<?xml version="1.0" encoding="utf-8"?>
<!-- Generator: Adobe Illustrator 22.1.0, SVG Export Plug-In . SVG Version: 6.00 Build 0)  -->
<svg version="1.1" id="Layer_1" xmlns="http://www.w3.org/2000/svg" xmlns:xlink="http://www.w3.org/1999/xlink" x="0px" y="0px"
	 viewBox="30 0 220 375" style="enable-background:new 30 0 220 375;" xml:space="preserve">
<style type="text/css">
	.st0{clip-path:url(#SVGID_2_);fill:#FFFFFF00;}
	.st1{clip-path:url(#SVGID_4_);fill:#FFFFFF00;}
	.st2{clip-path:url(#SVGID_6_);fill-rule:evenodd;clip-rule:evenodd;fill:#c39e9f;}
	.st3{clip-path:url(#SVGID_6_);fill-rule:evenodd;clip-rule:evenodd;fill:#d6bebe;}
	.st4{clip-path:url(#SVGID_6_);fill-rule:evenodd;clip-rule:evenodd;fill:#231F1F;}
	.st5{clip-path:url(#SVGID_6_);fill-rule:evenodd;clip-rule:evenodd;fill:#9b6062;}
</style>
<g>
	<defs>
		<rect id="SVGID_1_" y="-1" width="375" height="375.8"/>
	</defs>
	<clipPath id="SVGID_2_">
		<use xlink:href="#SVGID_1_"  style="overflow:visible;"/>
	</clipPath>
	<rect y="-1" class="st0" width="375" height="375.8"/>
</g>
<g>
	<defs>
		<rect id="SVGID_3_" y="-1" width="375" height="375"/>
	</defs>
	<clipPath id="SVGID_4_">
		<use xlink:href="#SVGID_3_"  style="overflow:visible;"/>
	</clipPath>
	<rect y="-1" class="st1" width="375" height="375"/>
</g>
<g>
	<defs>
		<polygon id="SVGID_5_" points="112,374 66.4,374 25.8,352.8 207.4,4.3 283.9,44.2 		"/>
	</defs>
	<clipPath id="SVGID_6_">
		<use xlink:href="#SVGID_5_"  style="overflow:visible;"/>
	</clipPath>
	<path class="st2" d="M155.8,122.2c0.6,0.3,0.9-0.2,1.2-0.5c1.7-1.5,3.7-2.4,5.8-3.1c0.6-0.2,1.2-0.3,1.8-0.3c0.8,0,1.5,0.3,1.8,1.1
		c0.3,0.7,0.1,1.4-0.4,1.9c-0.8,0.9-1.7,1.6-2.9,1.8c-1.6,0.3-3.1,0.7-4.7,1c-3.4,0.8-4.6,1.6-5.3,5.9c-0.5,2.9-0.9,5.7-0.8,8.7
		c0,0.5,0.1,1.1-0.6,1.4c-0.6-0.2-0.7-0.8-0.8-1.4c-0.2-1.3-0.4-2.6-0.5-3.9c0-0.6,0.1-1.2,0.2-1.8c0.2-1.1,0.2-2.2-0.3-3.2
		c-0.9-2-1.2-4.1-1.4-6.2c-0.1-0.8-0.1-1.7,0-2.5c0.2-1.8,0.8-3.5,1.5-5.2c0.2-0.4,0.4-0.9,0.7-1.2c0.4-0.5,1-0.5,1.5-0.4
		c0.6,0.1,0.7,0.6,0.9,1.1c0.2,0.9,0.1,1.8-0.2,2.6c-0.4,1.1-0.9,2.2-1.4,3.2c-0.5,1-0.6,2.1-0.6,3.2c0,0.3,0.2,0.6,0.3,1.1
		c0.6-0.8,0.8-1.5,1.1-2.2c0.7-2.2,1.7-4.2,2.9-6.2c1.1-1.8,2-3.8,3.4-5.4c0.5-0.6,0.7-1.5,0.7-2.3c0.1-3.2,1.1-6.3,1.9-9.3
		c0.7-2.4,1.8-4.5,3.9-6c0.4-0.3,0.8-0.5,1.3-0.7c0.8-0.3,1.6,0.2,1.7,1c0,0.5,0,1-0.2,1.4c-0.5,1.5-1.2,2.9-2.2,4.2
		c-0.5,0.7-1,1.3-1.5,2c-1.4,1.8-2.3,3.9-2.8,6.1c0.4,0.4,0.7,0.1,1,0c1.9-1.3,3.8-2.6,5.6-3.9c1-0.7,1.5-1.6,1.9-2.7
		c0.8-2.4,2-4.5,3.2-6.7c1.4-2.5,2.6-5,4.2-7.4c0.6-0.9,1.4-1.7,2.4-2.2c0.4-0.2,0.8-0.3,1.2-0.4c0.8-0.1,1.4,0.4,1.4,1.2
		c-0.1,0.9-0.3,1.9-0.7,2.8c-1.5,3-3.2,5.8-5.5,8.2c-1.4,1.4-2.5,2.9-3.5,4.8c0.5-0.1,0.8-0.1,1.1-0.1c1.2-0.4,2.3-0.9,3.6-1.1
		c2.7-0.5,4.6-2.2,6-4.4c1.2-1.8,2.1-3.7,3.3-5.5c1.5-2.3,3.2-4.5,4.8-6.8c0.7-1,1.7-1.6,2.9-1.9c0.8-0.2,1.4,0.3,1.4,1.1
		c0,1-0.1,1.9-0.6,2.8c-0.8,1.3-1.4,2.7-2.3,3.9c-1.6,2.3-3.3,4.4-5.4,6.3c-0.6,0.5-1.3,1-1.5,2c1.4,0.3,2.5,0,3.6-0.6
		c0.7-0.3,1.3-0.8,1.9-1.3c2.3-2,4.6-4,6.8-6.1c1.1-1,2.2-1.9,3.5-2.6c0.7-0.4,1.4-0.5,2.2-0.3c0.8,0.3,1.2,1,0.8,1.8
		c-0.5,1.2-1.3,2.1-2.4,2.8c-1.2,0.8-2.4,1.7-3.6,2.5c-0.6,0.4-1.2,0.9-1.9,1.5c0.4,0.2,0.6,0.4,0.8,0.4c0.7,0,1.4,0.1,2.1,0
		c1.9-0.4,3.7,0,5.6,0.1c0.8,0.1,1.5,0.3,2.1,0.9c0.5,0.5,0.5,1.2,0,1.6c-0.7,0.6-1.6,0.9-2.5,1c-3.6,0.6-7.1,0.7-10.7,0
		c-2.5-0.5-4.9-0.1-7.4,0.5c-0.1,0-0.2,0.1-0.3,0.2c0,0,0,0.1-0.1,0.3c0.5,0.5,1.3,0.6,2,0.8c1.6,0.5,3.3,1,4.9,1.6
		c0.8,0.3,1.6,0.8,2.3,1.3c0.9,0.7,1.3,1.6,1.1,2.7c-0.1,0.6-0.4,1.1-1,1.2c-0.7,0.1-1.4,0.2-2,0.1c-0.7-0.1-1.5-0.4-2.1-0.8
		c-1.4-0.8-2.7-1.7-4-2.6c-1.2-0.8-2.4-1.6-3.6-2.4c-1.7-1-3.6-1.4-5.6-0.7c-0.8,0.3-1.6,0.4-2.3,1.2c0.4,0.2,0.8,0.5,1.1,0.6
		c1.5,0.3,3,0.6,4.5,0.9c1.9,0.3,3.7,1.1,5.4,2c0.7,0.4,1.2,0.9,1.5,1.7c0.3,1,0,1.8-1,2.2c-0.6,0.2-1.2,0.3-1.8,0.3
		c-1.3,0-2.5-0.3-3.6-0.9c-1.1-0.6-2.2-1.2-3.2-1.8c-1.3-0.7-2.6-1.5-4-2.2c-2.1-1-4.2-1.2-6.3,0.1c-2.3,1.5-4.6,3-6.6,5
		c-0.3,0.3-0.5,0.6-0.8,1.1c0.4,0,0.6,0.1,0.7,0.1c2.1-0.7,4.3-1.1,6.5-1.3c1.3-0.1,2.6-0.4,3.9-0.5c1.4-0.1,2.8-0.1,4.1-0.1
		c1,0,1.9,0.4,2.7,0.9c1.3,0.9,1.1,2.6,0.1,3.3c-0.8,0.6-1.6,1-2.7,1c-0.8-0.1-1.7-0.2-2.5-0.3c-2-0.4-3.9-0.9-5.8-1.4
		c-2.2-0.6-4.4-0.2-6.5,0.6c-0.6,0.2-1.3,0.4-2,0.5c-0.7,0.1-1.2,0.3-1.5,0.9c-1,2-1.9,4-2.8,6C155.7,121.9,155.7,122,155.8,122.2"
		/>
	<path class="st2" d="M74.5,352.5c-0.2,0.4-0.3,0.9-0.6,1.3c-1.3,1.6-2,3.5-2.6,5.4c-0.2,0.5-0.3,0.9-0.3,1.4
		c-0.1,1.3,0.5,2.1,1.7,2.5c0.7,0.3,1.4,0.2,2-0.3c0.6-0.5,1.1-1,1.4-1.7c0.3-0.9,0.8-1.8,1.1-2.7c0.2-0.6,0.5-1.2,0.5-1.8
		c0.1-2.1,0.9-4,1.6-6c0.5-1.3,1.2-2.5,2.2-3.5c2.7-2.4,5-5.1,7.2-8c0.4-0.6,0.9-1.2,1.5-2.1c0.2,1.8,0.4,3.1-0.4,4.5
		c-1,1.9-1.8,3.9-2.7,5.9c-0.2,0.6-0.4,1.2-0.5,1.8c-0.2,1.4,0.7,2.7,2.1,3.2c1.1,0.4,2.5-0.2,3.2-1.3c0.2-0.3,0.4-0.7,0.6-1.1
		c1.2-2.7,1.6-5.6,1.3-8.5c-0.2-2.3-0.7-4.5-1.6-6.6c-0.4-0.9-0.4-1.9-0.1-2.8c0.5-1.4,0.9-2.9,1.3-4.4c0.4-1.4,0.7-2.8,1.1-4.2
		c0.4-0.2,0.5,0.1,0.6,0.3c0.3,1.2,0.6,2.4,0.8,3.6c0.1,0.6,0.1,1.2,0.3,1.8c0.4,1.9,1.1,2.4,3.3,2.2c1.1-1.6,1.3-3.4,0.9-5.3
		c-0.2-0.8-0.4-1.6-0.8-2.4c-1.2-2.5-2.5-4.9-4.2-7.1c-0.2-0.2-0.3-0.5-0.5-0.6c-1.4-0.8-2-2.2-2.7-3.6c-0.5-1.1-1.1-2.1-1.7-3.1
		c-0.2-0.3-0.4-0.5-0.8-0.9c-0.2,0.4-0.4,0.6-0.3,0.8c0.1,0.5,0.4,0.9,0.6,1.3c0.5,1,1,2,1.4,3c1.1,3,0.7,5.7-1.3,8.2
		c-1.7,2.1-3.4,4.2-5.1,6.3c-0.3,0.4-0.7,0.9-0.9,1.4c-0.3,0.7-0.1,1.4,0.4,1.9c0.5,0.5,1.1,0.6,1.7,0.3c1.2-0.6,2.6-1,3.5-2.1
		c0.4-0.4,0.7-1,1.5-1c-0.1,1.3-0.4,2.5-0.8,3.6c-0.6,1.5-1.4,3-2.1,4.5c-0.8,1.5-2,2.5-3.7,2.7c-1.6,0.2-3.1,0.3-4.7-0.1
		c-2.3-0.6-4.7-0.3-7,0.3c-0.6,0.2-1.2,0.6-1.8,1.1c-1,0.8-0.9,2,0.2,2.8c0.3,0.2,0.7,0.4,1.1,0.5c2.1,0.5,4.2,0.8,6.3,0.1
		c1-0.3,2-0.7,3-1c0.4-0.1,0.9-0.2,1.6-0.4c-0.6,1.2-1.4,1.9-2.1,2.6c-1.9,1.7-3.8,3.5-6,4.7c-1.9,1-3.8,1.9-6,2.3
		c-0.7,0.1-1.5,0.2-2.3,0.2c-0.9,0-1.8-0.3-2.4-1c-1.1-1.1-2.3-2.1-3.2-3.3c-1.2-1.5-2.8-2.2-4.5-2.9c-0.8-0.3-1.6-0.3-2.4,0
		c-1.3,0.4-1.6,1.7-0.6,2.6c1,1,2.1,1.8,3.1,2.7c0.4,0.3,0.8,0.6,1.1,0.9c0.8,0.7,1.6,1.3,2.6,1.6c0.3,0.1,0.6,0.3,1,0.6
		c-0.4,0.2-0.5,0.5-0.8,0.5c-2.4,0.5-4.7,1.1-7.1,1.6c-2.1,0.4-4.1,0.4-6-0.9c-0.4-0.3-0.9-0.4-1.4-0.5c-1.8-0.2-3.6-0.3-5.4,0.2
		c-0.6,0.1-1.2,0.4-1.7,0.7c-1.2,0.8-1.1,2.3,0.2,3c0.3,0.1,0.6,0.3,1,0.3c3.2,0.6,6.4,0.8,9.6-0.2c1.1-0.3,2.2-0.5,3.2-0.7
		c1.1-0.2,2.2-0.3,3.2-0.4c0.3,0.5,0,0.8-0.2,1c-0.9,0.9-1.9,1.6-2.7,2.6c-0.9,1-1.8,2.1-2.5,3.3c-0.6,1-0.2,2,0.8,2.5
		c0.4,0.2,0.9,0.3,1.4,0.2c1.3-0.2,2.6-0.7,3.5-1.7c2.1-2.5,4.8-4.6,6.6-7.5c0.9-1.6,2.3-2.5,4.1-2.9c1.5-0.4,2.9-1,4.3-1.5
		c0.6-0.2,1.3-0.5,1.9-0.7C74,352.4,74.2,352.5,74.5,352.5"/>
	<path class="st2" d="M216.8,54.5c0.5-1,1-1.8,1.4-2.7c1.4-2.8,3.5-4.9,6-6.8c0.8-0.6,1.8-1.1,2.8-1.2c1.9-0.3,2.5,1.1,2.4,2.3
		c-0.1,0.9-0.5,1.7-1.3,2.3c-0.6,0.4-1.3,0.8-2,1.1c-1.5,0.8-3,1.5-4.4,2.3c-1.8,0.9-2.7,2.5-3.3,4.3c0,0.2,0.1,0.4,0.1,0.6
		c0.8-0.1,1.2-0.7,1.7-1.1c0.9-0.7,1.8-1.5,2.8-2.2c0.5-0.4,1.1-0.6,1.7-0.8c1-0.3,1.7-0.1,2.1,0.7c0.5,0.8,0.4,1.8-0.3,2.5
		c-0.6,0.6-1.3,1.2-2.1,1.7c-0.9,0.5-1.8,1-2.8,1.4c-1.2,0.6-2.5,1.2-3.7,1.8c-1.3,0.7-1.7,2.1-1.3,3.8c1-0.1,1.9-0.7,2.8-1.1
		c1.2-0.5,2.4-1.1,3.7-1.4c1.6-0.5,3,0.8,2.8,2.5c-0.1,1.4-0.9,2.3-2.1,2.9c-0.9,0.4-2,0.6-3,0.8c-2.4,0.4-4.5,1.3-6.4,2.7
		c-1.1,0.8-1.6,1.8-1.5,3.2c0.8,0.3,1.4-0.1,2.1-0.2c1.1-0.3,2.2-0.5,3.2-0.6c1.2-0.1,1.8,0.6,1.7,1.8c-0.1,1.1-0.5,2-1.2,2.8
		c-1.1,1.1-2.3,2-3.9,2.3c-1.3,0.2-2.6,0.3-3.9,0.5c-0.4,0-0.8,0.1-1.2,0.1c-2.2,0-4,0.8-5.6,2.3c-0.1,0.1-0.2,0.2-0.3,0.3
		c-0.7,0.6-1.2,0.8-1.4,0.4c-0.3-0.7,0.3-1,0.7-1.4c0.9-0.9,2-1.7,2.9-2.7c1-1,1.9-2,2.8-3c0.5-0.6,1-1.3,1.4-2.1
		c0.4-0.8,0.4-1.7,0.2-2.6c-0.6-1.9-1.2-3.8-2.3-5.5c-1.1-1.5-1.1-3.3-0.6-5c0.6-2.1,2.3-2.7,4-1.4c0.4,0.3,0.8,0.8,1.2,1.2
		c0.3,0.4,0.6,0.8,0.9,1.2c1-1,1.1-1.6,0.7-2.5c-0.3-0.6-0.7-1.2-1-1.8c-0.6-1-1.3-1.9-2-2.9c-0.5-0.8-0.8-1.6-0.9-2.5
		c-0.1-1.4,0.4-2.2,1.8-2.7c1.2-0.4,2.5-0.1,3.1,0.9c0.3,0.5,0.4,1,0.6,1.5c0.2,0.5,0.3,1.1,0.5,1.6
		C216.4,54.2,216.6,54.2,216.8,54.5"/>
	<path class="st2" d="M138.5,302.4c0.2,1.1,0.3,2,0.5,3c0.6,3.1,0.1,6.1-0.7,9c-0.3,1-0.8,1.9-1.5,2.7c-1.3,1.4-2.7,0.6-3.3-0.4
		c-0.5-0.8-0.6-1.7-0.3-2.6c0.3-0.7,0.6-1.4,0.9-2.1c0.7-1.5,1.5-3,2.2-4.5c0.9-1.8,0.7-3.6,0-5.4c-0.1-0.2-0.3-0.3-0.4-0.4
		c-0.6,0.5-0.5,1.3-0.7,1.9c-0.3,1.1-0.5,2.3-0.9,3.4c-0.2,0.6-0.5,1.1-0.9,1.6c-0.6,0.9-1.3,1-2.2,0.7c-0.9-0.4-1.4-1.1-1.3-2.1
		c0.1-0.9,0.3-1.8,0.7-2.6c0.4-1,0.9-1.9,1.4-2.8c0.6-1.2,1.3-2.4,1.9-3.7c0.6-1.3,0.2-2.7-1.3-3.8c-0.8,0.7-1.1,1.7-1.6,2.6
		c-0.7,1.1-1.3,2.3-2.1,3.3c-1,1.3-2.9,1.1-3.8-0.3c-0.7-1.2-0.7-2.4,0-3.6c0.5-0.9,1.2-1.7,1.9-2.4c1.7-1.7,2.8-3.7,3.5-6
		c0.4-1.3,0.1-2.4-0.7-3.5c-0.8,0.2-1.1,0.9-1.5,1.4c-0.7,0.8-1.4,1.7-2.2,2.4c-0.9,0.8-1.8,0.6-2.5-0.4c-0.6-0.9-0.8-1.9-0.7-3
		c0.2-1.5,0.7-3,1.8-4.1c0.9-0.9,1.9-1.8,2.8-2.7c0.3-0.3,0.6-0.6,0.9-0.8c1.7-1.3,2.8-3,3.1-5.2c0-0.1,0-0.3,0.1-0.4
		c0.2-0.9,0.5-1.4,0.8-1.2c0.6,0.4,0.3,1,0.3,1.5c-0.2,1.3-0.5,2.6-0.7,3.9c-0.2,1.4-0.4,2.7-0.5,4.1c-0.1,0.8,0,1.7,0.2,2.5
		c0.2,0.9,0.7,1.6,1.4,2.2c1.6,1.2,3.2,2.4,5.2,3c1.8,0.6,2.8,2,3.5,3.6c0.8,2-0.2,3.5-2.4,3.5c-0.5,0-1.1-0.1-1.6-0.2
		c-0.5-0.1-0.9-0.3-1.4-0.4c-0.1,1.4,0,2,0.9,2.5c0.6,0.3,1.3,0.6,1.9,0.8c1.1,0.4,2.2,0.8,3.3,1.1c0.9,0.3,1.6,0.8,2.2,1.5
		c0.9,1.1,1,2,0.2,3.2c-0.7,1.1-1.9,1.5-3.1,1.1c-0.5-0.2-0.9-0.5-1.4-0.8c-0.5-0.3-0.9-0.6-1.4-0.9
		C139,302.4,138.9,302.4,138.5,302.4"/>
	<path class="st3" d="M171.1,145.3c-0.6-0.7-0.5-1.4-0.4-2.1c0.4-2.7,1-5.4,2.3-7.8c0.9-1.8,1.8-3.7,3-5.3c1.3-1.7,2.7-3.2,4.3-4.7
		c3.5-3.2,7.5-5.4,11.8-7.3c2.9-1.2,5.8-2.6,8.7-3.9c0.5-0.2,1-0.6,1.6-0.2c0,0.8-0.4,1.5-0.8,2.1c-1,2-1.9,4.1-2.7,6.2
		c-1.5,3.9-3.5,7.7-6.5,10.8c-1.9,2-3.7,4-6,5.6c-2.8,2-5.9,3.5-9.1,5c-1.2,0.5-2.5,1-3.7,1.4C172.7,145.4,171.9,145.5,171.1,145.3"
		/>
	<path class="st2" d="M181.4,128.1c0.7,0.2,0.9,0.5,0.8,1.2c-0.1,1-0.1,2-0.6,2.9c-0.2,0.3-0.2,0.8-0.4,1.3c1-0.4,1.6-1.1,2.3-1.7
		c1.5-1.4,2.6-3.1,3.4-5c0.4-1,1.1-1.8,1.7-2.8c0.1,0,0.3,0,0.4,0c0.5,0.1,0.6,0.3,0.5,0.8c-0.2,0.7-0.4,1.3-0.7,2.1
		c0.8-0.2,1.3-0.6,1.7-1.1c1.1-1,2.5-1.9,3.4-3.2c0.2-0.3,0.4-0.3,1-0.1c-1.6,2.4-3.5,4.6-5.5,6.6c0,0.1,0.1,0.1,0.1,0.2
		c0.5-0.1,1-0.1,1.6-0.2c0.5,0,1-0.4,1.5,0c0.1,0.6-0.1,1-0.7,1.3c-0.5,0.2-1,0.4-1.5,0.5c-1.2,0.4-2.5,0.8-3.8,1.2
		c-1.6,0.4-2.7,1.6-4,2.6c-0.6,0.5-1.2,1.1-2,1.7c0.8,0.3,1.4-0.1,2-0.1c0.6,0,1.2-0.1,1.8-0.2c0,0.4,0,0.7,0,1.1
		c-2.7,1-5.4,1.7-8,3.1c0.6,0.5,1.4-0.1,1.7,0.8c-0.2,0.1-0.3,0.3-0.5,0.4c-0.9,0.4-1.8,0.8-2.7,1c-0.6,0.2-1,0.4-1.4,0.8
		c-1.6,1.7-3,3.5-4,5.7c-0.2,0.4-0.5,0.8-0.8,1.1c-0.2,0.2-0.4,0.3-0.7,0.4c-0.6,0.1-0.9-0.2-0.8-0.8c0.1-0.4,0.3-0.7,0.5-1
		c1-1.6,1.9-3.1,2.9-4.6c0.1-0.1,0.2-0.3,0.3-0.4c1.6-1.2,2.1-3,2.5-4.9c0.2-0.7,0.4-1.5,0.6-2.2c0.2-0.8,0.3-0.8,1.3-0.7
		c0,0.7,0.1,1.5,0.1,2.3c0.2-0.1,0.4-0.2,0.5-0.3c2.5-2.4,4.2-5.3,4.9-8.8c0-0.2,0.1-0.4,0.2-0.6
		C181.3,128.4,181.3,128.3,181.4,128.1"/>
	<path class="st3" d="M172.7,230.8c-0.7,0.5-1.3,0.5-1.9,0.3c-3.2-1.3-5.8-3.4-8.4-5.6c-0.2-0.2-0.4-0.4-0.6-0.6
		c-1.4-2.3-2.8-4.5-3.8-7c-1.4-3.7-1.7-7.5-1-11.4c0.4-2.7,1.3-5.2,2.3-7.7c0.2-0.4,0.4-0.7,0.7-1.1c1.2,0.6,2.1,1.6,2.9,2.5
		c1.7,1.8,3.3,3.7,5.1,5.4c3.4,3.3,5,7.4,5.1,11.9c0.1,4.1-0.2,8.3-0.3,12.5C172.8,230.2,172.8,230.4,172.7,230.8"/>
	<path class="st4" d="M175.8,219.7c0-0.1,0-0.3,0.1-0.4c0,0,0,0.1,0,0.1C175.8,219.6,175.8,219.6,175.8,219.7
		C175.8,219.7,175.8,219.7,175.8,219.7"/>
	<path class="st2" d="M165.7,219.3c-0.6,0.5-0.6,1.2-0.8,1.8c-0.1,0.3-0.2,0.7-0.3,1c-0.1,0.2-0.4,0.3-0.6,0.3
		c-0.2,0-0.5-0.3-0.5-0.4c0-0.5,0-1,0.1-1.4c0.2-0.8,0.6-1.6,0.8-2.4c0.3-0.9,0.3-1.8-0.2-2.7c-0.3-0.5-0.4-1-0.6-1.5
		c-0.1-0.2-0.2-0.5-0.4-0.9c-0.2,0.9-0.3,1.6-0.5,2.3c-0.1,0.2-0.1,0.5-0.2,0.7c-0.2,0.2-0.5,0.4-0.7,0.4c-0.2,0-0.5-0.3-0.6-0.5
		c-0.3-0.7-0.5-1.3-0.1-2.1c0.4-1,0.6-2.2,1-3.3c0.5-1.6-0.1-2.9-0.8-4.3c-0.4,0.1-0.7,0.3-1,0.3c-0.4,0.1-0.7-0.2-0.7-0.6
		c0-0.2,0.1-0.5,0.2-0.7c0.2-1,0.5-2,0.6-2.9c0.1-0.5,0.1-1,0.1-1.5c-0.1-1.5-0.4-3.1-0.5-4.6c0-1.7,0.1-3.4,0.2-5.2
		c0-0.2,0.1-0.4,0.2-0.6c0.3-0.4,0.8-0.4,1,0c0.2,0.5,0.4,1.2,0.3,1.7c-0.2,0.9-0.2,1.7-0.1,2.6c0.4,2.4,0.8,4.8,1.2,7.2
		c0.2,0.9,0.8,1.5,1.4,2.1c0.9,0.9,1.8,1.8,2.8,2.7c0.4,0.4,0.4,0.7,0.1,1.1c-0.3,0.4-0.7,0.2-1,0c-0.3-0.2-0.6-0.4-0.9-0.7
		c-0.3-0.2-0.6-0.4-0.9-0.6c-0.1,0.1-0.1,0.1-0.1,0.1c0.2,1.6,0.4,3.1,1.5,4.4c1.1,1.2,2.3,2.5,3.7,3.5c0.3,0.2,0.5,0.7,0.8,1.1
		c0.1,0.3,0.2,0.6-0.2,0.8c-0.3,0.2-0.6,0.2-0.9-0.1c-0.2-0.2-0.3-0.3-0.5-0.5c-0.4-0.5-1.3-1.1-2.2-1.4c0.2,1.8,0.6,3.5,2.2,4.5
		c0.3,0.2,0.5,0.4,0.7,0.6c0.5,0.6,0.3,1.1-0.5,1.1c-0.1,0-0.2,0-0.4,0.1c0.3,0.6,0.6,1.2,0.9,1.8c0.2,0.3,0.3,0.6,0.5,0.9
		c0.2,0.5,0.1,0.9-0.3,1.1c-0.4,0.2-0.8,0.1-1.1-0.3c-0.5-0.8-0.9-1.6-1.3-2.5c-0.3-0.6-0.5-1.3-0.8-1.9
		C166.1,219.7,165.9,219.5,165.7,219.3"/>
	<path class="st3" d="M102.2,278.6c0.6,0.8,1.1,1.3,1.4,1.9c1.5,2.9,3.8,5.2,5.8,7.7c1.7,2.2,3.7,4.2,4.9,6.8c1,2.1,1.6,4.2,1.5,6.5
		c-0.1,2.3-0.2,4.6-0.3,7c-0.1,2.6-0.4,5.2,0,8c-0.4,0-0.7,0-1-0.1c-0.5-0.2-0.9-0.4-1.3-0.7c-2.7-1.9-5.5-3.6-7.8-6.1
		c-0.2-0.3-0.5-0.5-0.7-0.8c-1.1-2-2.3-3.9-2.8-6.1c-1.1-4.9-1.6-9.8-1-14.9c0.3-2.5,0.5-5,0.7-7.6
		C101.8,279.9,102,279.4,102.2,278.6"/>
	<path class="st2" d="M109.6,305.5c0.2,0.6,0.3,1.2,0.5,1.9c0.4,1.2,0.7,2.5,1.5,3.5c0.4,0.5-0.2,1,0.2,1.6
		c-0.8-0.2-1.3-0.6-1.5-1.2c-0.6-1.3-1.1-2.5-1.7-3.8c-0.1-0.3-0.3-0.6-0.4-0.9c-0.5,0.3-1,0.7-1.3,0.6c-0.6-0.1-0.4-0.9-0.5-1.3
		c-0.1-0.6,0-1.2,0.1-1.7c0.5-1.7,0.2-3.4-0.9-4.9c-0.2-0.2-0.2-0.6-0.3-1c-0.9-5.9-2.4-9.6-3.2-16.1c-0.3-2.2-0.7-4.6-1-6.8
		c-0.1-0.4,0.7-2.1,0.8-2.6c0.1,0.1,0.4,0.3,0.4,0.4c0.1,0.5,0.1,1.1,0.1,1.6c0.2,1.9,0.4,3.8,0.8,5.8c0.5,2.6,1,5.2,1.5,7.8
		c0.1,0.7,0.7,1.1,1.2,1.5c0.8,0.5,1.6,1,2.4,1.5c0.2,0.1,0.4,0.3,0.6,0.4c0.3,0.3,0.5,0.6,0.2,1c-0.3,0.4-0.6,0.4-1,0.2
		c-0.6-0.3-1.2-0.6-1.8-0.9c-0.1-0.1-0.3-0.1-0.5-0.2c0,1.6,0.7,2.8,1.8,3.9c1,1,2.1,1.8,3.1,2.8c0.3,0.2,0.5,0.4,0.8,0.7
		c0.3,0.3,0.4,0.6,0.2,0.9c-0.2,0.3-0.6,0.4-0.9,0.2c-0.4-0.3-0.9-0.6-1.3-0.9c-0.5-0.4-1-0.8-1.7-1.4c0,0.5,0,0.7,0.1,1
		c0.2,1.4,0.9,2.4,1.9,3.3c1,0.9,1.9,1.8,2.8,2.8c0.2,0.2,0.3,0.4,0.5,0.7c0.2,0.3,0.3,0.6,0,0.8c-0.2,0.1-0.6,0.2-0.9,0
		c-0.4-0.2-0.8-0.6-1.2-0.8c-0.3-0.2-0.7-0.4-1-0.6C109.8,305.4,109.7,305.5,109.6,305.5"/>
	<path class="st3" d="M180,181.2c2.2,0,3.9,0.6,5.7,1c3.5,0.9,6.8,2.3,9.6,4.6c1.2,1,2.3,2.1,3.2,3.3c1.5,2,2.9,4.2,4.2,6.3
		c0.4,0.6,0.7,1.2,0.7,2c-1.1,0.4-2.1,0.2-3.1,0c-6.4-1.1-11.6-4.2-15.5-9.4c-1.5-2-2.8-4.2-4.2-6.3
		C180.4,182.4,180.3,182,180,181.2"/>
	<path class="st2" d="M187.1,188.1c0.1,0.2,0.2,0.5,0.3,0.8c0.1,0.4-0.1,0.7-0.4,0.9c-0.3,0.2-0.6,0.1-0.8-0.2
		c-0.3-0.4-0.6-0.8-0.9-1.3c-0.6-1-1.2-2.1-1.8-3.1c-0.1-0.2-0.3-0.4-0.5-0.5c-1.8-1-3.5-2.3-5.3-3.3c-0.6-0.3-0.6-0.8,0-1.6
		c0.1,0,0.3,0,0.5,0.1c1.3,0.7,2.7,1.5,4,2.2c0.7,0.3,1.4,0.6,2.1,0.9c0.4,0.2,0.7,0.4,1,0.6c0.7,0.6,1.5,0.9,2.5,0.9
		c0.6,0,1.2,0.1,1.9,0.1c0.4,0,0.8-0.1,1.2-0.1c0.2,0,0.4,0.1,0.7,0.2c0,0.2,0,0.5-0.1,0.6c-0.1,0.7-0.3,0.8-1,0.8
		c-0.4,0-0.7,0-1.1,0c0,0,0,0-0.2,0.1c0.4,0.5,0.9,1,1.4,1.4c0.6,0.4,1.3,0.6,1.7,1.3c0.1,0.1,0.4,0.2,0.5,0.2
		c0.8,0.1,1.6,0.2,2.5,0.3c0.4,0,0.8-0.2,1.3-0.3c0.7,0.6,1.1,1.3,0.7,1.7c-0.2,0.3-0.6,0.6-1,0.7c-0.3,0.1-0.7-0.2-1.2-0.1
		c0.9,0.8,1.8,1.6,2.6,2.4c0.4,0.4,0.5,0.7,0.2,1.1c-0.3,0.4-0.7,0.4-1.1,0.2c-0.3-0.2-0.5-0.4-0.8-0.6c-0.7-0.6-1.4-1.1-2.1-1.7
		c-0.3-0.2-0.6-0.4-1.1-0.6c0.1,0.3,0.1,0.6,0.2,1c0,0.2,0.1,0.5,0.1,0.6c-0.1,0.2-0.4,0.5-0.6,0.6c-0.3,0.1-0.6,0-0.7-0.4
		c-0.2-0.8-0.5-1.5-0.6-2.3c-0.1-0.8-0.5-1.3-1.1-1.8c-0.9-0.7-1.8-1.3-2.8-2C187.2,188,187.1,188.1,187.1,188.1"/>
	<path class="st3" d="M129,249.9c0.4-1.3,1.2-1.8,2-2.4c2.5-1.7,5.2-3.1,7.9-4.4c1.2-0.6,2.5-0.8,3.9-1c2.6-0.4,5.3-0.6,8-0.4
		c1.1,0.1,2.3,0,3.4,0c0.4,0,0.8,0,1.1,0.6c-0.1,0.2-0.2,0.4-0.4,0.6c-2.3,2.6-4.8,5-7.7,6.9c-2.3,1.6-4.9,2.3-7.7,2.4
		c-3,0.1-5.9-0.6-8.7-1.5C130.2,250.5,129.7,250.2,129,249.9"/>
	<path class="st2" d="M136.3,247.7c2.2-0.2,4.1-0.4,5.3-2.5c0.2-0.4,0.5-0.7,0.9-1c0.1-0.1,0.5-0.2,0.6-0.1c0.2,0.1,0.3,0.4,0.3,0.7
		c0,0.4-0.1,0.7-0.2,1.2c1.2-0.1,2.3-0.4,3.3-0.8c0.5-0.2,1-0.5,1.5-0.7c0.3-0.1,0.7,0,0.8,0.1c0.1,0.2,0.1,0.6,0,0.8
		c-0.2,0.3-0.5,0.6-0.8,0.7c-0.7,0.4-1.5,0.7-2.3,1.1c0.3,0.2,0.6,0.4,0.7,0.6c0.1,0.2,0,0.6-0.1,0.9c-1.1,0.2-2.2,0-3.2-0.2
		c-1.3-0.3-2.4,0.4-3.7,0.6c0,0.1,0,0.2,0,0.3c0.4,0.1,0.8,0.2,1.2,0.3c0.4,0.1,0.7,0.3,0.6,0.8c0,0.4-0.4,0.7-0.9,0.6
		c-1.2-0.3-2.5-0.6-3.7-0.9c-0.3-0.1-0.7-0.2-1-0.2c-1.8,0.2-3.5,0.5-5.3,0.7c-1.4,0.2-2.8,0.2-4.2,0.3c-0.6,0.1-1.1-0.2-1.4-0.7
		c-0.5-0.6-0.3-1.1,0.5-1.2c0.4-0.1,0.8,0,1.2,0c2-0.2,3.9-0.3,5.9-0.5c0.5,0,0.8-0.2,1.1-0.6c0.8-1,1.7-1.9,2.6-2.8
		c0.1-0.1,0.2-0.2,0.3-0.3c0.3-0.2,0.6-0.3,1-0.1c0.4,0.2,0.3,0.6,0.2,0.9c-0.2,0.4-0.5,0.8-0.7,1.1
		C136.7,247.1,136.6,247.4,136.3,247.7"/>
	<path class="st3" d="M111.5,205.4c-0.5,0.1-0.9,0.1-1.3,0.1c-0.8,0-1.5,0.1-2.3,0.1c-1.6-0.1-2.6-1-3.1-2.4c-0.4-1-0.2-1.9,0.6-2.7
		c1-1.1,2.9-1.4,4.2-0.7c0.9,0.5,1.3,1.2,1.3,2.2c0,0.2-0.2,0.5-0.4,0.7c-0.1,0.1-0.4,0.1-0.7,0.2c-0.2-0.4-0.4-0.7-0.6-1
		c-0.3-0.4-0.7-0.6-1.2-0.7c-0.5,0-0.9,0.2-1.2,0.7c-0.3,0.5-0.1,0.9,0.2,1.4c0.5,0.7,1.3,0.8,2,0.7c0.7-0.1,1.3-0.5,2-0.5
		c1.7-0.1,2.8-0.9,3.5-2.5c1.6-1.8,2.8-3.9,4.8-5.3c0.7-0.5,1.4-0.9,1.7-1.9c-0.3-0.3-0.6-0.7-0.9-1c-0.5-0.5-0.7-1-0.8-1.6
		c-0.3-2.7,2.2-5.2,4.9-5c0.9,0.1,1.6,0.5,2,1.3c0.3,0.6,0.5,1.3,0.1,2c-0.5,0.6-1.1,1-2,0.9c-0.3,0-0.5-0.1-0.8-0.2
		c-0.4-0.2-0.7-0.5-0.7-1c0-0.5,0.5-0.6,0.9-0.6c0.2,0,0.4-0.1,0.5-0.2c0-0.4-0.3-0.5-0.6-0.5c-1.3,0.2-2.2,1-2.5,2.1
		c-0.2,0.8,0.1,1.4,0.6,1.9c0.6,0.5,1.2,0.6,1.9,0.2c1.6-0.9,3.1-1.9,4.6-2.8c3.1-1.8,6.4-2.7,9.9-2.9c0.3,0,0.6,0,0.8,0
		c1.2,0,1.9,0.3,1.7,0.7c-0.4,0.7-1.1,0.3-1.7,0.4c-1.6,0.3-3.3,0.4-4.9,0.8c-1.6,0.4-2.6,1.5-3.2,3c-0.7,1.8,0.6,3.6,2.5,3.5
		c0.5,0,1-0.1,1.4-0.3c0.2-0.1,0.3-0.4,0.4-0.5c-0.4-0.5-0.7-0.2-1-0.1c-0.4,0-0.8,0-0.8-0.4c-0.1-0.3,0-0.7,0.1-1
		c0.4-0.7,1.2-0.9,2-0.7c0.7,0.2,1.2,0.6,1.4,1.4c0.3,1.5-0.5,2.8-2,3.1c-2,0.4-4,0.2-5.4-2.1c-0.4-0.7-0.6-1.4-0.6-2.2
		c0-0.3-0.1-0.6-0.1-1.1c-0.4,0.1-0.7,0.1-0.9,0.2c-1.6,0.6-3.1,1.6-4.4,2.6c-0.8,0.6-1.2,1.4-1.1,2.3c0.2,2.1,0.6,4.1,2.1,5.7
		c1.3,1.5,3,1.9,4.9,1.8c1.1-0.1,1.7-0.9,1.4-1.8c-0.1-0.3-0.3-0.5-0.5-0.7c-0.5-0.4-1.1-0.2-1.3,0.3c-0.1,0.1-0.1,0.3-0.1,0.4
		c-0.1,0.4-0.3,0.6-0.7,0.7c-0.4,0-0.7-0.3-0.8-0.8c-0.2-0.9,0.1-1.6,0.8-2.2c0.7-0.5,1.4-0.7,2.1-0.2c0.4,0.3,0.8,0.5,1.2,0.8
		c1.5,1.2,1.3,3.3-0.3,4.4c-0.2,0.1-0.5,0.3-0.7,0.4c-3.2,1-7-0.7-8.2-3.8c-0.4-1.1-0.8-2.2-1.2-3.3c-0.1-0.3-0.3-0.6-0.4-1
		c-0.8,0.3-1.4,0.8-1.9,1.3c-1.5,1.6-3.1,3.2-4.1,5.2c-0.6,1.1-1.3,2.1-2,3.2c-0.4,0.6-0.3,1.1,0,1.8c0.8,1.8,2.1,3,4.1,3.4
		c1.2,0.2,2.2-0.1,3.1-0.8c0.2-0.1,0.4-0.4,0.5-0.6c0.5-0.8,0.1-1.4-1.1-1.6c-0.5,0.3-0.1,0.8-0.1,1.1c0,0.4-0.2,0.7-0.6,0.7
		c-0.2,0-0.6,0-0.8-0.1c-0.8-0.6-1-1.5-0.7-2.2c0.4-0.9,1.3-1.4,2.1-1.3c1.7,0.2,2.7,1,2.9,2.5c0.1,1.2-0.4,2.2-1.4,2.8
		c-2.2,1.3-4.4,1.6-6.7,0.3c-0.7-0.4-1.4-0.8-2.3-1.3c-0.1,0.5-0.2,0.9-0.2,1.3c0,2.4-0.1,4.8-0.1,7.4c1.1,1.3,2.4,2.8,3.9,4.1
		c0.5,0.4,1.1,0.7,1.7,0.6c0.8-0.1,1.6-0.3,2.4-0.6c0.7-0.3,1.1-0.9,1.1-1.6c0-0.5,0-1.1-0.2-1.6c-0.2-0.8-0.8-1.2-1.5-1.2
		c-0.9,0-1.6,0.7-1.7,1.5c0,0.4,0.2,0.7,0.6,0.7c0.3,0,0.7-0.1,1-0.1c0.4,0.4,0.3,0.8,0,1c-0.3,0.2-0.8,0.4-1.1,0.4
		c-1.4-0.2-2.2-1.8-1.5-3c0.6-1,1.5-1.7,2.6-1.8c0.4,0,1,0.1,1.3,0.4c1.2,0.8,2,3.2,1.5,4.7c-0.3,0.9-1,1.3-1.8,1.5
		c-1.1,0.3-2.3,0.6-3.4,0.8c-0.4,0.1-0.8,0.2-1.3,0.3c-0.1,0.6-0.1,1.2-0.3,1.8c-0.2,0.8-0.3,1.6-0.7,2.4c-0.7,1.6-2,2.6-3.7,3
		c-1.4,0.3-2.4,0-3.4-1c-0.7-0.7-1.1-1.6-1.2-2.6c-0.2-1.7,1.7-3.4,3.4-3c0.8,0.2,1.3,0.7,1.4,1.6c0.2,0.9,0,1.2-0.9,1.8
		c-0.6-0.3-0.2-0.9-0.4-1.3c-0.2-0.6-0.8-0.8-1.3-0.4c-0.8,0.6-1,1-0.7,2c0.5,1.8,1.8,2.4,3.5,1.8c1-0.4,1.8-1.1,2.2-2
		c1.2-2.5,0.5-6.2-1.4-8.1c-0.7-0.7-1.4-0.8-2.2-0.1c-0.4,0.3-0.7,0.7-1.1,1c-1.4,1.1-3.1,1.1-4.8,0.7c-0.4-0.1-0.9-0.5-1-0.9
		c-0.9-1.9-0.9-3.9,0-5.8c0.4-0.8,1.1-1.2,2.1-1.1c0.5,0.1,1.1,0.3,1.5,0.6c1.5,1.1,1.6,2.1,0.4,3.5c-0.3,0.4-0.7,0.5-1.1,0.4
		c-0.4-0.1-0.7-0.4-0.7-0.9c0-0.4,0.2-0.6,0.5-0.8c0.2-0.1,0.3-0.2,0.6-0.4c-0.2-0.3-0.4-0.6-0.6-0.8c-0.6-0.4-1.1-0.2-1.4,0.3
		c-0.6,1-0.6,3.5,0.1,4.4c0.2,0.2,0.6,0.4,0.9,0.4c0.9,0.1,1.8-0.1,2.6-0.7c1.7-1.2,2.8-2.7,2.6-5c-0.2-1.9-0.1-3.9,0-5.8
		c0.1-1.4,0.6-2.7,0.9-4C111.2,206.4,111.3,206,111.5,205.4"/>
	<path class="st3" d="M201.9,153.5c0.9-0.1,1.4-0.2,1.9-0.3c4.6-1.2,8.2,3.2,6.6,7.8c-0.6,1.6-1.5,2.8-3.1,3.4
		c-2.8,0.9-5.4-1.2-5.4-3.5c0-1.5,1-2.9,2.4-3.2c0.4-0.1,1,0,1.4,0.1c0.6,0.2,0.7,0.7,0.5,1.8c-0.3-0.1-0.6-0.2-0.9-0.2
		c-0.9-0.2-1.3,0.1-1.5,0.9c-0.2,0.8-0.1,1.5,0.5,2.1c0.8,0.7,1.7,0.9,2.7,0.5c0.5-0.2,1-0.6,1.3-1c1.1-1.2,1.3-3.7,0.5-5.1
		c-0.8-1.5-2.3-2.3-4.2-2c-2.5,0.4-4.7,1.4-6.7,3c-1.5,1.3-3.1,2.5-4.7,3.7c-1.5,1.1-3.1,1.8-4.9,2.1c-0.5,0.1-1,0.1-1.4,0.1
		c-0.2,0-0.5-0.3-0.6-0.5c0-0.2,0.2-0.5,0.4-0.6c0.4-0.2,0.8-0.3,1.2-0.3c1.9-0.4,3.6-1.3,5.2-2.4c3.4-2.3,6-5.3,8.3-8.6
		c1.5-2.2,2.1-4.8,1.5-7.5c-0.1-0.6-0.2-1.2-0.3-1.8c-0.3-1.2-0.9-2.2-1.8-3c-0.6-0.5-1.3-0.8-2.1-0.7c-1.6,0.1-2.4,0.9-2.3,2.6
		c0,0.5,0.1,1.1,0.3,1.6c0.2,0.5,0.4,1,1.1,1.2c0.4,0.1,0.6,0,1.5-0.6c-0.1-0.4-0.3-0.9-0.4-1.3c0.5-0.6,1-0.6,1.5-0.3
		c0.5,0.2,0.7,0.7,0.7,1.2c0.1,1-0.3,1.8-1.2,2.3c-0.5,0.3-1,0.5-1.5,0.6c-1,0.2-1.9-0.1-2.5-1c-1.2-1.7-1.3-3.6-0.7-5.6
		c0.1-0.4,0.4-0.9,0.8-1.2c2.2-1.7,5.4-1.8,7.2,1.2c0.5,0.8,0.7,1.8,1.1,2.7c0.2,0.6,0.2,1.4,0.8,2c0.6-0.3,0.7-0.8,0.9-1.3
		c0.5-1.9,1-3.7,1.5-5.6c0.4-1.7,0.8-3.4,1.3-5c0.5-1.7,0.3-3.4-0.3-5.1c-0.4-1.1-1.1-2-2.4-2.1c-1.2-0.1-1.9,0.9-2.4,1.7
		c-0.7,1-0.6,2.2-0.1,3.4c0.2,0.5,0.8,0.7,1.2,0.6c0.5-0.1,0.9-0.4,1-0.9c0.1-0.5,0-1-0.6-1.2c-0.2-0.1-0.4-0.2-0.6-0.3
		c-0.2-0.1-0.1-0.6,0.1-0.7c0.8-0.3,1.5-0.3,2.1,0.3c0.5,0.4,0.7,1,0.6,1.7c-0.2,0.7-0.4,1.3-0.8,1.9c-0.6,0.9-1.5,1.2-2.5,1.1
		c-1-0.1-1.8-0.6-2.2-1.7c-0.5-1.3-0.6-2.7-0.2-4.1c0.5-1.9,1.8-2.9,3.6-3.3c1.5-0.3,2.9,0.2,3.8,1.5c0.3,0.4,0.6,0.9,0.9,1.3
		c0.7-0.3,0.8-0.9,1-1.4c0.5-1.7,1.6-2.9,2.6-4.2c0.8-1,2-1.5,3.1-1.9c2-0.6,4.2,0.6,4.9,2.2c0.9,2.1,0.7,4.7-0.9,6.4
		c-0.9,1-2.2,1.4-3.5,1.5c-1.2,0.1-2.4-1.2-2.6-2.3c-0.1-1.2,0.8-2.5,2.1-2.7c0.3-0.1,0.7,0,1,0.2c0.2,0.1,0.3,0.4,0.4,0.8
		c-0.5,0.2-1,0.4-1.4,0.6c-0.7,0.4-0.6,1.3,0.1,1.7c0.3,0.1,0.7,0.3,1,0.2c2.2-0.4,3.7-3.3,2.7-5.4c-0.7-1.5-2.3-2.2-3.8-1.6
		c-0.9,0.3-1.7,0.9-2.4,1.6c-0.9,1-1.7,2.2-2.1,3.5c-0.7,2.3-1.6,4.4-1.9,6.8c-0.1,0.7-0.4,1.5-0.6,2.2c-0.3,0.9-0.6,1.7-0.4,2.7
		c1-0.4,2-0.8,3-1c1.1-0.2,2.2-0.4,3.3-0.5c1-0.1,1.7,0.4,2.4,1c1.8,1.7,2.2,4.6,1.1,6.9c-0.6,1.2-1.4,2.2-2.7,2.7
		c-0.7,0.3-1.5,0.4-2.2,0c-0.7-0.3-1.4-0.7-2-1.1c-0.9-0.8-1-1.9-0.3-3c0.7-1.1,1.8-1.6,2.8-1.2c0.3,0.1,0.5,0.4,0.7,0.7
		c0.2,0.3,0,0.8-0.3,0.8c-0.3,0-0.5,0-0.8,0c-0.6,0-0.9,0.4-1,0.9c-0.1,0.5,0.2,0.8,0.6,1c0.8,0.5,1.5,0.5,2.3,0
		c2.4-1.4,2.3-5.4,0.4-6.8c-0.6-0.4-1.3-0.6-2-0.6c-2.2,0.2-4.1,0.9-5.5,2.9c-1.2,1.8-2.1,3.7-2.9,5.7c-1,2.5-1.9,4.9-3.4,7.1
		C202.3,152.5,202.2,152.8,201.9,153.5"/>
	<path class="st3" d="M75.5,297.8c-0.9,0.2-1.4,0.3-1.9,0.5c-4.5,1.7-8.5-2.3-7.4-7c0.4-1.6,1.1-3,2.7-3.7c2.7-1.2,5.5,0.6,5.8,2.9
		c0.2,1.5-0.6,3-2,3.5c-0.4,0.1-1,0.1-1.4,0.1c-0.7-0.1-0.8-0.6-0.7-1.7c0.3,0,0.6,0.1,1,0.1c0.9,0.1,1.3-0.3,1.4-1.1
		c0.1-0.8-0.1-1.5-0.8-2c-0.9-0.6-1.8-0.7-2.7-0.2c-0.5,0.2-0.9,0.7-1.2,1.1c-1,1.3-0.9,3.8,0,5.1c1,1.4,2.6,2,4.4,1.6
		c2.5-0.6,4.6-1.9,6.3-3.8c1.4-1.4,2.8-2.9,4.3-4.2c1.3-1.2,2.9-2.1,4.7-2.6c0.5-0.1,0.9-0.2,1.4-0.2c0.2,0,0.5,0.2,0.6,0.4
		c0.1,0.2-0.1,0.5-0.3,0.7c-0.3,0.2-0.7,0.4-1.1,0.5c-1.9,0.6-3.5,1.7-4.9,3c-3.1,2.7-5.4,6-7.2,9.5c-1.2,2.4-1.5,5-0.7,7.7
		c0.2,0.6,0.3,1.2,0.5,1.8c0.4,1.2,1.1,2.1,2.1,2.8c0.6,0.5,1.3,0.7,2.2,0.5c1.6-0.3,2.3-1.2,2-2.8c-0.1-0.5-0.3-1.1-0.5-1.6
		c-0.2-0.5-0.6-1-1.2-1c-0.4,0-0.6,0.1-1.4,0.8c0.2,0.4,0.4,0.8,0.6,1.2c-0.4,0.6-0.9,0.7-1.5,0.5c-0.5-0.2-0.7-0.6-0.8-1.1
		c-0.2-1,0.1-1.8,0.9-2.4c0.5-0.3,0.9-0.6,1.5-0.8c1-0.3,1.9-0.1,2.6,0.7c1.4,1.6,1.7,3.4,1.4,5.4c-0.1,0.4-0.3,0.9-0.7,1.3
		c-2,1.9-5.1,2.4-7.2-0.4c-0.6-0.8-0.9-1.7-1.4-2.5c-0.3-0.6-0.4-1.3-1-1.9c-0.6,0.3-0.6,0.9-0.7,1.4c-0.3,1.9-0.6,3.8-0.9,5.7
		c-0.2,1.7-0.4,3.4-0.7,5.1c-0.3,1.8,0.1,3.5,0.9,5c0.5,1,1.4,1.8,2.6,1.8c1.2,0,1.7-1.1,2.2-2c0.6-1.1,0.4-2.3-0.3-3.4
		c-0.3-0.4-0.8-0.6-1.3-0.5c-0.5,0.2-0.8,0.5-0.9,1.1c-0.1,0.5,0.1,0.9,0.7,1.1c0.2,0.1,0.4,0.1,0.6,0.2c0.2,0.1,0.2,0.6,0,0.7
		c-0.7,0.4-1.4,0.4-2.1,0c-0.6-0.4-0.9-0.9-0.8-1.6c0.1-0.7,0.3-1.4,0.6-2c0.5-0.9,1.3-1.4,2.4-1.3c1,0,1.9,0.4,2.3,1.4
		c0.6,1.3,0.9,2.6,0.7,4c-0.2,2-1.5,3.1-3.2,3.7c-1.5,0.5-2.9,0.1-4-1.1c-0.4-0.4-0.7-0.8-1-1.2c-0.7,0.4-0.7,1-0.8,1.5
		c-0.3,1.7-1.2,3.1-2.1,4.5c-0.7,1.1-1.8,1.7-2.9,2.3c-1.9,0.9-4.2-0.1-5.1-1.6c-1.2-2-1.2-4.6,0.2-6.5c0.8-1.1,2-1.7,3.3-1.9
		c1.2-0.2,2.6,0.9,2.8,2c0.3,1.2-0.5,2.6-1.7,3c-0.3,0.1-0.7,0-1-0.1c-0.2-0.1-0.3-0.4-0.5-0.7c0.5-0.3,0.9-0.5,1.3-0.8
		c0.6-0.5,0.5-1.4-0.3-1.7c-0.3-0.1-0.7-0.2-1-0.1c-2.2,0.7-3.2,3.7-2.1,5.7c0.8,1.4,2.5,1.9,4,1.1c0.9-0.4,1.6-1.1,2.2-1.9
		c0.8-1.1,1.5-2.3,1.7-3.7c0.4-2.3,1-4.6,1.1-7c0-0.8,0.2-1.5,0.4-2.2c0.2-0.9,0.4-1.8,0-2.8c-1,0.5-1.9,1-2.8,1.3
		c-1,0.4-2.1,0.6-3.2,0.8c-0.9,0.2-1.8-0.2-2.5-0.7c-1.9-1.5-2.7-4.3-1.8-6.8c0.5-1.3,1.2-2.3,2.4-3c0.7-0.4,1.4-0.6,2.2-0.3
		c0.7,0.3,1.5,0.5,2.1,0.9c1,0.6,1.2,1.8,0.7,2.9c-0.5,1.1-1.6,1.7-2.7,1.5c-0.3-0.1-0.6-0.3-0.8-0.6c-0.2-0.2-0.1-0.8,0.2-0.9
		c0.3-0.1,0.5-0.1,0.8-0.1c0.6-0.1,0.8-0.5,0.9-1c0-0.5-0.3-0.7-0.7-0.9c-0.8-0.4-1.6-0.3-2.3,0.3c-2.3,1.7-1.7,5.7,0.4,6.8
		c0.6,0.4,1.3,0.5,2,0.3c2.2-0.5,4-1.4,5.1-3.5c1-1.9,1.7-4,2.2-6c0.7-2.5,1.4-5.1,2.5-7.4C75.2,298.8,75.2,298.5,75.5,297.8"/>
	<path class="st3" d="M220.4,37.5c-0.3,0.2-0.5,0.3-0.8,0.5c-0.7,0.4-0.7,1.1-0.1,1.5c0.8,0.5,1.7,0.8,2.5,0.4
		c0.9-0.4,1.3-1.2,1.4-2.2c0.1-1.2-0.6-2.8-2.2-3.2c-1.7-0.4-3.4-0.4-5.1,0.2c-1.6,0.6-3,1.3-4.4,2.3c-1,0.7-1.9,1.6-2.5,2.7
		c-0.9,1.5-1.8,3-2.6,4.5c-1.1,2-1.8,4.2-2.6,6.3c-0.3,0.7-0.6,1.4-0.9,2.1c-0.1,0.1-0.5,0.2-0.7,0.1c-0.1,0-0.3-0.3-0.3-0.5
		c0.1-0.4,0.2-0.8,0.3-1.2c1.1-3,2.3-5.9,3.3-8.9c0.6-1.8,1-3.6,1.4-5.4c0.4-1.8,0.1-3.6-1.2-5.1c-0.3-0.3-0.6-0.6-0.9-0.8
		c-0.8-0.5-1.6-0.3-2.1,0.6c-0.3,0.6-0.6,1.2-0.8,1.9c-0.2,0.5,0,1,0.3,1.3c0.4,0.4,0.9,0.3,1.4,0.1c-0.2-0.5-0.9-0.9-0.5-1.6
		c0.2,0,0.5,0.1,0.7,0.1c0.9,0.1,1.4,0.5,1.5,1.3c0.1,0.8-0.4,1.6-1.1,1.8c-1.6,0.7-3.5-0.5-3.7-2.2c-0.1-1,0.1-1.9,0.6-2.8
		c0.1-0.1,0.1-0.2,0.2-0.4c0.6-0.7,0.7-1.9,2-1.9c1.5,0,2.9,0.3,3.8,1.7c0.9,1.3,1.3,2.9,1.4,4.5c0.1,0.5,0.1,0.9,0.2,1.6
		c0.5-0.4,0.8-0.6,1.1-0.9c2.1-2.5,4.4-4.8,6.9-6.8c1-0.8,1.5-1.8,1.9-2.9c0.4-1.3,0.4-2.4-0.6-3.5c-0.3-0.3-0.5-0.7-0.8-1
		c-0.8-0.8-1.9-0.5-2.3,0.6c-0.1,0.4-0.1,0.8-0.1,1.2c-0.1,0.6,0.2,0.9,0.7,1.2c0.4,0.2,0.8,0.1,1.1-0.2c0.2-0.2,0.4-0.3,0.5-0.5
		c0.7,0.3,0.8,0.8,0.6,1.2c-0.1,0.4-0.4,0.7-0.8,0.9c-0.9,0.5-2.7,0.1-3.3-0.6c-0.2-0.2-0.3-0.5-0.4-0.7c-0.5-1.5,0.4-3.7,1.7-4.6
		c0.7-0.5,1.8-0.5,2.5,0.2c1.2,1,2.3,2.2,2.5,3.9c0.1,0.5,0.2,0.9,0.3,1.4c3.3-0.5,5.8-2.1,7.3-5c0.7-1.4,0.5-2.8-0.1-4.2
		c-0.4-0.9-1.7-1.2-2.5-0.6c-0.6,0.4-1,1-1.1,1.7c-0.1,0.5-0.1,1,0.3,1.3c0.4,0.3,0.9,0.2,1.3-0.2c0.1-0.1,0.3-0.2,0.5-0.3
		c0.3-0.1,0.7,0.3,0.7,0.6c-0.1,0.8-0.6,1.4-1.4,1.7c-0.7,0.3-1.3,0.1-1.9-0.4c-1.1-1.1-1.2-3.3-0.1-4.6c1.1-1.3,3.2-1.7,4.5-0.7
		c0.2,0.2,0.4,0.4,0.5,0.6c0.8,1.7,1.4,3.5,0.6,5.4c-0.1,0.3-0.2,0.6-0.2,0.9c0.5,0.6,1,0.3,1.4,0.2c2-0.6,4.1-0.5,6.2-0.5
		c2.5,0.1,3.9,1.9,3.3,4.4c-0.4,2-1.6,3.1-3.4,3.4c-1.4,0.2-2.8-1.2-2.6-2.5c0.1-0.7,0.7-1.1,1.3-1.2c0.6-0.2,1.1-0.1,1.5,0.6
		c-0.4,0.3-0.7,0.6-1.2,1c0.2,0.2,0.4,0.7,0.6,0.7c0.5,0,1,0,1.4-0.2c1.2-0.6,1.7-2.7,0.9-3.8c-0.3-0.3-0.7-0.6-1.2-0.7
		c-2.1-0.5-7.1,0.4-9.2,1.6c0.6,0.4,1.2,0.8,1.8,1.1c1.5,0.8,2.1,2.2,1.9,3.8c-0.1,0.7-0.2,1.5-0.5,2.2c-0.4,1.2-1.5,1.9-2.7,1.8
		c-0.5,0-1.1-0.1-1.6-0.3c-1.5-0.6-2.2-2.6-1.5-4c0.3-0.5,0.8-0.7,1.4-0.7c0.4,0,0.8,0.2,0.9,0.8c-0.2,0.2-0.4,0.3-0.6,0.5
		c-0.7,0.6-0.7,1.4-0.1,1.9c0.7,0.7,2.1,0.7,2.8,0c0.8-0.8,1-2.6,0.4-3.5c-1.2-1.9-4.1-2.8-6.3-2c-1.6,0.6-3.1,1.3-4.3,2.4
		c-1.2,1-2.4,1.9-3.6,2.9c-0.5,0.4-1.1,0.9-1.4,1.7c0.8,0.1,1.4-0.2,2-0.3c1.6-0.3,3.2-0.5,4.7,0c0.5,0.1,0.9,0.3,1.3,0.6
		c2.1,1.6,2.3,5.5,0.2,7.2c-0.3,0.3-0.7,0.5-1.1,0.6c-1.3,0.2-2.5,0-3.5-0.8c-0.9-0.8-1.2-2-0.8-3c0.3-0.5,0.7-0.9,1.3-0.9
		C219.6,36.6,220.1,36.7,220.4,37.5"/>
	<path class="st5" d="M147.6,222.8c2.3-1,3.6-0.1,4.7,1.5c0.8,1.1,0.8,2.4,0.1,3.5c-0.7,1.2-1.7,2.1-3.1,2.3
		c-0.9,0.1-1.8,0.1-2.7,0.1c-0.5,0-0.9-0.1-1.3-0.1c-0.5,0.5-0.4,1-0.3,1.4c0.3,0.9,0.2,1.8-0.1,2.7c-0.3,1-0.9,1.5-1.9,1.6
		c-1.8,0.1-3.4-0.6-4.6-1.9c-0.4-0.4-0.5-1.1-0.7-1.7c-0.2-0.6,0.1-1.3-0.5-1.8c-0.6,0.2-1.2,0.4-1.9,0.6c-2.4,0.6-5.4-1.4-5.7-3.9
		c-0.1-1.2,0.2-2.2,1.1-3c0.9-0.9,2-1.3,3.1-1.7c0.5-0.2,0.6-0.7,0.2-1.2c-0.3-0.3-0.6-0.5-0.9-0.9c-1.5-1.8-1.1-4.4,0.9-5.6
		c2.2-1.3,4.5-1.3,6.6,1.2c0.2,0.2,0.3,0.4,0.6,0.7c0.4-0.2,0.7-0.4,1.1-0.6c0.8-0.5,1.5-1.2,2.4-1.6c3-1.3,4.8-0.1,4.6,3.2
		c0,1-0.2,2.1-1.2,2.7C147.4,220.9,147.6,221.7,147.6,222.8"/>
	<path class="st3" d="M137.1,219.5c0.4,0.3,0.9,0.7,1.3,1.1c0.7,0.7,1.4,0.9,2.3,0.5c0.1-0.1,0.2-0.1,0.4-0.1c0.9,0,1.6-0.3,2.2-1
		c0.2-0.2,0.6-0.6,1-0.3c0.5,0.4,0,0.8-0.3,1c-0.5,0.5-0.5,1-0.2,1.7c0.2,0.5,0.3,1,0.5,1.7c0.3,0.1,0.8,0.4,1.3,0.6
		c0.2,0.1,0.4,0.2,0.6,0.3c0.1,0.1,0.2,0.3,0.2,0.4c0,0.1-0.2,0.2-0.4,0.2c-0.3,0-0.6-0.1-0.9-0.2c-0.8-0.2-1.5-0.2-2,0.6
		c-0.2,0.3-0.5,0.5-0.8,0.7c0.2,0.9,0.8,1.8,0.5,2.8c-0.1,0-0.2,0.1-0.3,0.1c-0.2-0.3-0.4-0.5-0.5-0.8c-0.2-0.3-0.3-0.6-0.4-0.8
		c-0.3-0.6-0.7-1-1.5-0.9c-0.5,0-1-0.2-1.3-0.6c-0.3-0.4-0.6-0.4-1-0.3c-0.5,0.1-1,0.2-1.5,0.4c-0.4,0.1-0.7,0-0.9-0.4
		c0.2-0.2,0.3-0.3,0.5-0.4c0.2-0.1,0.5-0.2,0.7-0.3c1.6-0.7,1.9-1,1.8-2.7c0-0.5-0.5-0.9-0.7-1.4c-0.2-0.3-0.5-0.6-0.7-0.9
		c-0.1-0.2-0.1-0.4-0.2-0.7C136.9,219.6,137,219.6,137.1,219.5"/>
	<path class="st2" d="M177.7,199.7c-0.4,0-0.6,0-0.8-0.1c-2-0.8-4.1-1.4-5.9-2.5c-3.3-2.1-6.3-4.6-8.1-8.3c-1.2-2.4-2.5-4.7-2.9-7.3
		c0-0.2-0.1-0.4-0.2-0.6c-0.2-0.4-0.3-1-0.9-1c-0.7,0-0.7,0.6-0.8,1c-0.3,1.4-0.6,2.8-1,4.2c-0.5,1.6-0.9,3.3-1.6,4.9
		c-1.8,3.9-4.7,6.8-8.6,8.6c-0.9,0.4-1.8,0.8-2.8,1.1c-0.2,0.1-0.5,0.1-1,0.1c0.4-0.9,0.6-1.6,0.9-2.3c0.3-0.7,0.5-1.4,0.7-2
		c0.7-1.9,1.3-3.8,1.5-5.8c0.5-3.8,1.8-7.3,4.3-10.3c0.4-0.4,0.7-0.9,1-1.4c0.1-0.2,0.2-0.4,0.2-0.5c-0.2-0.6-0.7-0.6-1-0.4
		c-2.8,2.3-6.1,2.9-9.5,3.3c-0.6,0.1-1.2,0.1-1.7,0.3c-2,0.7-4,0.3-5.9-0.3c-2.6-0.9-5.2-1.9-7.5-3.6c-0.3-0.2-0.5-0.5-0.8-0.7
		c-0.1-0.1-0.1-0.3-0.1-0.5c0.3-0.1,0.6-0.3,0.9-0.3c1.5-0.1,2.9-0.6,4.3-1.2c2.1-0.9,4.2-1.8,6.4-2.3c0.7-0.1,1.3-0.5,2-0.7
		c1.8-0.5,3.6-0.7,5.5-0.4c0.6,0.1,1.3,0.3,1.9-0.2c-0.1-0.2-0.3-0.5-0.4-0.6c-2-2-3.9-4.2-5.7-6.4c-1.3-1.5-2.1-3.2-2.5-5.1
		c-0.6-2.9-1.1-5.9-0.8-8.9c0-0.3,0.1-0.6,0.1-0.8c0.1-0.5,0.7-0.7,1-0.3c0.6,0.6,1,1.2,1.6,1.7c0.7,0.8,1.4,1.6,2.3,2.3
		c3.2,2.4,5.8,5.5,8.2,8.7c0.7,0.9,1.1,1.2,1.4,0.9c0.6-0.5,0.2-1,0.1-1.6c-1.3-4.1-0.9-8,1-11.8c0.8-1.7,1.7-3.3,2.6-4.9
		c0.3-0.6,0.5-1.2,0.8-1.8c0.8-1.7,1.6-3.4,2.4-5c0.1-0.2,0.3-0.4,0.6-0.7c0.2,0.3,0.3,0.4,0.4,0.6c1.2,3.2,2.4,6.4,3.1,9.8
		c0.9,4,1,8.1-0.1,12.1c-0.2,0.9-0.6,1.7-1,2.6c-0.2,0.5-0.5,0.9-0.6,1.4c-0.1,0.2,0,0.6,0.2,0.7c0.1,0.1,0.6,0,0.7-0.1
		c0.5-0.8,1.1-1.7,1.5-2.6c0.6-1.4,1.4-2.6,2.2-3.9c1.4-2.2,3.4-3.7,5.6-4.8c2.4-1.3,4.9-2.3,7.6-2.8c1.2-0.2,2.3-0.6,3.5-0.9
		c1-0.3,2.1-0.5,3-0.7c0.5,0.4,0.3,0.7,0.2,1.1c-0.9,1.6-1.7,3.3-2.9,4.8c-1.2,1.6-2.3,3.3-3.5,4.9c-2.3,3.3-5.5,5.5-9,7.4
		c-0.5,0.3-1,0.5-1.5,0.8c-0.2,0.1-0.4,0.4-0.5,0.6c0.3,0.6,0.8,0.5,1.1,0.4c2.3-0.9,4.5-0.4,6.6,0.7c2,1,3.9,2,5.9,3
		c0.9,0.4,1.8,0.8,2.7,1.3c0.9,0.5,1.9,1,3,1.5c-0.3,0.2-0.6,0.5-0.9,0.6c-1.6,0.3-3.2,0.6-4.8,0.9c-1.2,0.2-2.4,0.4-3.6,0.6
		c-3.4,0.5-6.8,0.7-10.2-0.3c-0.9-0.3-1.6-0.1-1.7,0.3c-0.1,0.7,0.4,1,0.8,1.4c3.6,2.6,5.2,6.5,6.7,10.5c0.4,1.2,0.8,2.4,1.1,3.7
		c0.7,2.6,1.8,5,2.8,7.4C177.5,198.7,177.5,199.2,177.7,199.7"/>
	<path class="st5" d="M155.8,153.2c1,2.7,0.7,5.7,1.4,8.6c0.8-1.1,0.4-2.4,1.1-3.6c0.1,0.3,0.3,0.5,0.3,0.7c0,1.2,0,2.4-0.1,3.6
		c0,0.5-0.4,0.8-0.8,1.2c-0.7,0.5-1.5,0.6-2.3,0.8c-0.5,0.1-0.8-0.1-1-0.6c-0.7-2-1.1-4.1-1.3-6.3c-0.1-0.6,0-1.1,0.3-1.7
		c0.7,0.5,0.4,1.2,0.6,1.8c0.3,0.6,0.4,1.3,0.5,2c0.2,0.6,0.4,1.2,0.5,1.8c0.1,0,0.2,0,0.3,0c0-1.4,0-2.7,0.1-4.1
		C155.5,155.9,155.1,154.6,155.8,153.2"/>
	<path class="st5" d="M149.2,173.9c-0.7,0.1-1.3,0.3-2,0.4c-0.3,0.1-0.6,0.2-0.8,0.1c-0.2,0-0.4-0.3-0.5-0.5c0-0.1,0.2-0.4,0.3-0.5
		c1.3-0.5,2.6-1,4-1.4c0.6-0.2,0.8,0.1,1,0.8c0,0.1,0,0.2,0.1,0.3c0.4,1,0.4,1.2-0.4,1.7c-1.5,0.8-3.1,1.5-4.7,2.1
		c-0.8,0.3-1.8,0-2.7-0.1c-0.2,0-0.4-0.1-0.6-0.3c-0.2-0.2-0.3-0.4-0.4-0.6c0.2-0.1,0.4-0.3,0.6-0.3c0.5,0,0.9,0.1,1.4,0.1
		c1.4,0.2,2.5-0.7,3.7-1.2c0.4-0.1,0.7-0.4,1-0.6C149.2,174,149.2,173.9,149.2,173.9"/>
	<path class="st5" d="M143.8,160.4c0.3,0.1,0.5,0.2,0.8,0.3c1.5,0.9,2.9,2.1,4,3.5c0.6,0.8,1.2,1.5,1.7,2.3c0.6,0.9,0.5,1-0.6,1.6
		c0.2,0.2,0.4,0.4,0.4,0.6c0.1,0.2,0.1,0.6,0,0.7c-0.2,0.2-0.6,0.4-0.7,0.3c-1.5-0.8-3.1-1.6-4-3.1c-0.1-0.1-0.1-0.2-0.1-0.3
		c0-0.1,0-0.2,0.1-0.3c0.4-0.3,0.7,0,1,0.2c0.8,0.6,1.6,1.3,2.7,1.6c0.1-0.7-0.3-1.1-0.6-1.6c-1.2-1.8-2.6-3.4-4.2-4.8
		c-0.2-0.2-0.4-0.4-0.6-0.6C143.7,160.6,143.8,160.5,143.8,160.4"/>
	<path class="st5" d="M163.4,170.9c-0.3-0.1-0.6-0.3-0.7-0.7c0-0.2-0.1-0.4-0.3-0.6c-0.4-0.6-0.4-0.9,0.3-1.2c0.9-0.5,1.9-0.7,3-0.7
		c1.5,0,2.9,0.5,4.3,1.2c0,0.6-0.4,0.5-0.8,0.4c-0.6-0.1-1.1-0.3-1.7-0.4c-1.3-0.4-2.5-0.1-3.7,0.6c0.3,0.1,0.6,0.1,0.8,0.2
		c0.6,0.1,1.1,0.2,1.7,0.3c0.2,0,0.4,0.3,0.4,0.4c0,0.2-0.2,0.4-0.3,0.5c-0.3,0.1-0.6,0.1-0.8,0.1
		C165,170.9,164.2,170.9,163.4,170.9L163.4,170.9"/>
	<path class="st5" d="M166.3,159.1c0,0.7-0.4,1.2-0.7,1.6c-0.8,1-1.5,2-2.3,3.1c-0.7,0.8-1.1,1.8-1.3,2.8c0,0.3-0.2,0.5-0.4,0.7
		c-0.3,0.2-0.8-0.1-0.8-0.5c0.1-0.7,0.1-1.5,0.4-2.1c1.1-2.1,2.7-3.9,4.5-5.4C165.8,159.2,166,159.2,166.3,159.1"/>
	<path class="st5" d="M154,183.8c-0.3,0.5-0.5,0.9-0.8,1.4c-0.3,0.4-0.6,0.6-1.1,0.5c-0.1,0-0.4-0.1-0.4-0.3c0-0.1,0-0.4,0.1-0.5
		c1.6-1.4,1.9-3.3,2.4-5.2c0.2-0.9,0.5-1.7,0.7-2.6c0.1-0.2,0.3-0.2,0.5-0.3c0.1,0.2,0.3,0.4,0.3,0.6
		C155.1,179.5,155.1,181.8,154,183.8"/>
	<path class="st5" d="M163.4,170.9c1,0.4,1.9,0.8,2.9,1.2c1,0.4,2.1,0.4,3.2,0.1c0.1,0,0.3,0,0.4-0.1c0,0,0.1,0,0.1,0
		c-0.1,0.8-0.4,1.2-1.2,1.2c-0.9,0-1.8,0-2.7-0.1c-1-0.2-2-0.6-3-0.9c-0.3-0.1-0.6-0.4-0.6-0.6c-0.1-0.3,0.2-0.6,0.6-0.7
		C163.2,171,163.3,170.9,163.4,170.9C163.4,170.9,163.4,170.9,163.4,170.9"/>
	<path class="st5" d="M166.5,181.5c-0.7,0.3-0.9-0.1-1.2-0.4c-1.1-1.3-2.2-2.6-3.3-3.9c-0.3-0.4-0.7-0.7-1-1.1
		c-0.1-0.2-0.2-0.6-0.1-0.8c0.2-0.3,0.6-0.2,0.8,0.1c1.1,1.3,2.1,2.5,3.2,3.8c0.4,0.4,0.7,0.9,1,1.4
		C166.2,180.8,166.3,181.2,166.5,181.5"/>
	<path class="st5" d="M143.3,172.9c0.1-0.3,0.2-0.5,0.3-0.6c0.3-0.2,0.7-0.3,1-0.3c1.5-0.2,2.9-0.7,4.2-1.3c0.2-0.1,0.5-0.2,0.7-0.3
		c0.4-0.1,0.8-0.1,0.9,0.3c0.2,0.4-0.1,0.7-0.5,0.9c-1.6,0.6-3.2,1.4-5,1.2C144.5,172.7,144,172.8,143.3,172.9"/>
	<path class="st5" d="M162.4,181.6c-0.3-0.3-0.6-0.5-0.8-0.8c-0.7-1.1-1.3-2.2-1.9-3.3c-0.2-0.5-0.4-1-0.1-1.5
		c0.1-0.2,0.3-0.3,0.5-0.3c0.1,0,0.3,0.2,0.4,0.4c0.4,1.7,1.3,3.1,2.4,4.5c0.1,0.1,0.1,0.2,0.2,0.2c0.2,0.2,0.4,0.5,0.1,0.7
		C162.9,181.6,162.6,181.5,162.4,181.6"/>
	<path class="st5" d="M150.9,182.2c0.1-0.5,0.2-0.8,0.3-1.1c0.4-0.9,0.7-1.9,1.2-2.8c0.2-0.5,0.6-0.9,0.9-1.3
		c0.2-0.3,0.6-0.4,0.9-0.1c0.3,0.3,0.2,0.6,0,0.9c-0.5,0.9-1,1.9-1.5,2.9c-0.2,0.4-0.5,0.9-0.8,1.3C151.6,182,151.3,182,150.9,182.2
		"/>
	<path class="st5" d="M166.4,162.1c0.1,1-0.4,1.7-0.8,2.2c-0.5,0.7-1.2,1.3-1.9,1.9c-0.2,0.1-0.5,0.1-0.8,0c-0.1,0-0.1-0.5-0.1-0.7
		c0.2-0.3,0.4-0.6,0.7-0.8c0.7-0.7,1.4-1.4,2-2C165.8,162.5,166,162.4,166.4,162.1"/>
	<path class="st3" d="M159.3,176.8c-1,0.1-1.9,0.5-3,0.2c-0.5-0.1-1.1,0.3-1.8,0.5c-0.2-0.2-0.4-0.4-0.5-0.7c-0.2-0.4-0.5-0.8-1-0.9
		c-0.2-0.1-0.5-0.3-0.5-0.4c0-1-0.9-1.2-1.5-1.6c0,0-0.1-0.1-0.2-0.2c-0.2-0.5,0.2-1.4-0.6-1.9c-0.1-0.1-0.1-0.4-0.1-0.7
		c0-1,0.4-1.9,0.3-2.8c0-0.3,0.3-0.6,0.5-0.9c0.6-0.8,1.2-1.6,1.9-2.4c0.7-0.2,1.4-0.5,2.2-0.7c0.5-0.1,1.1-0.2,1.6-0.2
		c0.5,0,1.1,0.1,1.7,0.2c0.1,0.1,0.2,0.2,0.4,0.4c0.4,0.6,1,0.8,1.7,0.7c0.5-0.1,0.9,0.1,1,0.6c0.3,1.4,1.1,2.6,1.6,4
		c0,0.1,0.1,0.2,0.1,0.5c-0.6,1.2-0.8,2.7-1.5,3.9c-0.3,0.6-0.6,1.2-1.2,1.5C159.9,175.9,159.6,176.4,159.3,176.8"/>
	<path class="st2" d="M134.5,260.7c-0.4,0.2-0.7,0.5-1,0.5c-2.4,0.8-4.8,1.3-7.3,1.1c-0.4,0-0.8,0-1.2,0c-3.2,0.1-6.3-0.6-9.3-1.9
		c-0.2-0.1-0.5-0.2-0.8-0.3c-0.3-0.1-0.7,0.4-0.6,0.7c0.1,0.2,0.1,0.4,0.2,0.6c1.9,3.2,2.8,6.6,2.9,10.3c0.1,2.2,0.5,4.2,1.1,6.3
		c0.1,0.4,0.1,0.8,0.2,1.3c-0.9,0.1-1.6-0.3-2.2-0.7c-2.6-1.4-4.8-3.3-6.6-5.5c-1.8-2.3-2.9-4.9-2.6-7.9c0.1-0.9,0.1-1.8-0.6-2.7
		c-0.3,0.3-0.7,0.5-0.7,0.7c-0.5,2.7-2.3,4-4.6,4.8c-2.1,0.7-4.2,1.5-6.3,2.2c-0.5,0.2-1.1,0.4-1.5,0c-0.1-0.2-0.2-0.2-0.1-0.3
		c0.7-2.3,1.6-4.6,2.8-6.7c0.3-0.5,0.7-0.8,1.2-1.2c1.2-0.9,2.5-1.8,3.7-2.7c0.2-0.2,0.5-0.2,0.7-0.4c0.3-0.3,0.9-0.6,0.7-1.2
		c-0.1-0.6-0.7-0.5-1.2-0.6c-1.7-0.1-3.3-0.3-5-0.4c-2.7-0.2-5.1-1.4-7.4-2.5c-0.6-0.3-1.2-0.6-1.8-1c-0.6-0.4-1.2-0.9-1.9-1.4
		c0.4-0.5,0.7-0.9,1-1.1c5.4-2.9,10.9-3.5,16.3-0.1c0.2,0.1,0.4,0.2,0.6,0.3c0.1,0,0.3,0,0.4-0.1c0.1-0.2,0.2-0.4,0.1-0.5
		c-0.1-0.3-0.3-0.6-0.6-0.8c-1.7-1.5-2.6-3.5-3.3-5.6c-0.2-0.7-0.5-1.5-0.8-2.2c-0.4-1-0.4-2.1,0.1-3c0.6-1.3,1.4-2.6,2.4-3.7
		c0.3,0.3,0.6,0.5,0.7,0.8c1.1,1.6,2.2,3.2,3.3,4.8c1.4,2.1,2.4,4.3,3,6.8c0.1,0.5,0.3,1.1,0.6,1.5c0.4,0.7,1.1,0.7,1.5,0
		c0.5-0.8,1-1.7,1.4-2.5c0.7-1.8,2-3,3.5-4c1.9-1.3,4-2.1,6.3-2.6c1.7-0.4,3.4-0.6,5.1-0.8c0.3,0,0.5,0,0.8,0.1
		c0,0.2,0.1,0.4,0.1,0.4c-1.7,3.2-3.7,6.2-6.1,8.8c-1.1,1.2-2.3,2.2-3.5,3.2c-0.4,0.3-1,0.5-1.5,0.8c-0.3,0.2-0.7,0.3-0.9,0.5
		c-0.2,0.2-0.3,0.6-0.2,0.9c0,0.2,0.4,0.3,0.7,0.4c0.4,0,0.8-0.1,1.2-0.2c1-0.4,2-0.3,3.1-0.1c1.7,0.4,3.5,0.8,5.2,1.4
		c1.2,0.4,2.3,1,3.3,1.7c1.6,1,3.2,2.2,4.8,3.3C134,260.2,134.2,260.4,134.5,260.7 M105,259.1c1,1.2,2.5,1.4,3.8,1.6
		c1,0.1,1.8-0.5,2.5-1.1c0.2-0.2,0.5-0.1,0.8-0.2c0.2-0.1,0.5-0.2,0.5-0.3c0.2-1.1,1.3-1.2,1.8-1.8c0-1,0-1.8-1-2.3
		c-0.5-0.3-0.5-0.8-0.6-1.2c-0.1-0.8-0.7-1.4-1.3-1.4c-1,0-1.8-0.5-2.7-0.7c-1-0.2-1.9,0.3-2.7,0.2c-0.5,0.7-0.9,1.2-1.4,1.7
		c0.2,1.1-0.6,1.9-0.7,2.9C105.2,257.5,105.2,257.5,105,259.1L105,259.1z"/>
	<path class="st5" d="M114,256.5c1.1,0.3,2.2,0.7,3.3,1c1.1,0.3,2.2,0.7,3.3,1c1.1,0.3,2.2,0.5,3.4,0.8c-0.6,0.5-1.1,0.3-1.5,0.3
		c-2.1-0.3-4.1-0.7-6.2-1.1c-1.1-0.2-2.2-0.4-3.2-0.6c-0.3-0.1-0.7-0.1-0.8-0.5c-0.1-0.5,0.2-0.7,0.5-0.9c0-0.1,0-0.3,0-0.4
		c-0.1-0.9,0-1,0.8-1c1.7,0,3.5-0.1,5.2-0.1c0.6,0,1.2-0.1,1.6,0.4c0.2,0.2,0.2,0.5,0.2,0.7c-0.2,0-0.4,0.1-0.7,0.1
		c-0.6,0-1.3-0.1-1.9-0.1c-1.3,0.1-2.7,0.2-4,0.3C113.9,256.4,113.9,256.5,114,256.5"/>
	<path class="st5" d="M118.6,246.7c-0.2,0.3-0.3,0.7-0.5,1c-0.5,0.6-1.1,1.2-1.7,1.8c-1.2,1.1-2.5,2.2-3.7,3.3
		c-0.4,0.3-0.8,0.6-1.3,0.2c-0.9-0.6-1-0.9-0.8-1.6c0.1-0.2,0.1-0.3,0.2-0.5c0.9-1.3,2-2.4,3.2-3.3c0.3-0.2,0.7-0.3,0.9,0.1
		c0.2,0.3,0.2,0.6-0.2,0.9c-0.5,0.5-1,1-1.5,1.6c0.8,0,1.2-0.6,1.7-1c0.6-0.4,1.1-0.9,1.7-1.3c0.6-0.4,0.8-1.2,1.6-1.3
		C118.5,246.6,118.5,246.6,118.6,246.7"/>
	<path class="st5" d="M107.7,250.5c-0.1-0.9-0.2-1.6-0.2-2.3c0.6-0.3,0.7,0.2,0.9,0.5c0.3,0.4,0.4,0.9,0.6,1.3
		c0.1,0.1,0.1,0.3,0.1,0.4c-0.2,0.8-0.4,1.7-0.7,2.5c-0.2,0.4-0.6,0.4-0.9,0.1c-0.3-0.3-0.6-0.7-0.8-1.1c-1-1.5-2-3.1-2.3-4.9
		c-0.1-0.4,0-0.8,0-1.2c0-0.3,0.3-0.5,0.6-0.4c0.2,0.1,0.4,0.4,0.4,0.5c0,1.8,1,3.1,2,4.5C107.3,250.4,107.4,250.4,107.7,250.5"/>
	<path class="st5" d="M99.8,252c1.1,1.4,2.7,1.1,4.2,1.5c0.6,0.2,1.2,0.2,1.8,0.4c0.6,0.2,0.7,0.4,0.3,1c-0.3,0.5-0.7,0.8-1.4,0.9
		c-1.9,0.2-3.7,0-5.5-0.6c-0.8-0.3-1-0.6-1.1-1.4c0.1,0,0.3,0,0.4,0.1c1,1.2,2.4,1.1,3.7,1.1c0.3,0,0.5-0.1,1-0.1
		c-0.9-0.4-1.6-0.6-2.2-0.9c-0.4-0.2-0.8-0.3-1.1-0.6C99.3,252.8,99.3,252.5,99.8,252"/>
	<path class="st5" d="M105.1,259.8c-1.3,0.4-2.1,1.5-3.5,1.9c0-0.3-0.1-0.6,0-0.7c0.2-0.3,0.5-0.5,0.7-0.7c0.7-0.6,1.4-1.2,2.1-1.7
		c0.6-0.4,0.9-0.4,1.4,0.2c0.8,1,0.8,0.9,0,1.9c-1.1,1.2-2.2,2.4-3.6,3.4c-0.4,0.3-0.8,0.7-1.4,0.4c0.2-0.8,1-1,1.4-1.5
		c0.4-0.5,1-1,1.4-1.5C104.2,260.9,104.7,260.3,105.1,259.8"/>
	<path class="st5" d="M111,269.5c-0.2-0.3-0.4-0.6-0.5-1c-0.4-1.2-0.9-2.3-1.3-3.5c-0.5-1.3-0.9-2.6-0.9-4c0-0.8,0.2-0.9,1.1-0.7
		c0.2,2.1,0.9,4.1,1.6,6c0.3,0.7,0.3,1.5,0.4,2.2c0,0.3-0.1,0.6-0.1,0.9C111.2,269.4,111.1,269.4,111,269.5"/>
	<path class="st5" d="M114.3,267.4c-0.5,0.2-0.7-0.2-0.8-0.5c-0.7-1.1-1.3-2.2-2-3.3c-0.5-0.8-0.9-1.6-1.3-2.3
		c-0.1-0.2-0.3-0.5-0.4-0.7c-0.1-0.4-0.1-0.7,0.3-0.9c0.4-0.1,0.7,0,0.9,0.3c0.5,1,1.1,1.9,1.6,2.9c0.6,1.3,1.1,2.6,1.6,3.9
		C114.3,267,114.3,267.2,114.3,267.4"/>
	<path class="st3" d="M105,259.1c0.2-1.6,0.2-1.6-0.8-2.7c0.1-1,0.9-1.8,0.7-2.9c0.4-0.5,0.8-1.1,1.4-1.7c0.8,0.2,1.6-0.3,2.7-0.2
		c0.9,0.2,1.7,0.7,2.7,0.7c0.7,0,1.2,0.6,1.3,1.4c0.1,0.5,0.1,1,0.6,1.2c1,0.5,1,1.4,1,2.3c-0.5,0.7-1.7,0.8-1.8,1.8
		c0,0.1-0.3,0.2-0.5,0.3c-0.3,0.1-0.6,0.1-0.8,0.2c-0.7,0.7-1.6,1.3-2.5,1.1C107.4,260.5,106,260.3,105,259.1"/>
	<path class="st5" d="M197.8,58.4c0.6,0.1,1,0.1,1.4,0.2c0.4,0.1,0.8,0.1,1.2,0.2c3.8,1.4,3.5,4.4,1.4,6.7c-0.5,0.6-1.4,0.9-2.1,1.3
		c-0.6,0.3-0.9,0.8-0.9,1.5c0,0.6-0.1,1.1-0.2,1.6c-0.1,0.6-0.3,1.2-0.5,1.8c-0.7,1.5-1.5,1.9-3.2,1.7c-1.6-0.2-2.8-1-3.9-2.2
		c-0.5-0.6-0.9-1.2-1.4-1.9c-0.4,0.1-0.8,0.2-1.2,0.4c-1.2,0.7-2.5,0.6-3.8,0.4c-1.7-0.3-2.6-1.5-3.3-2.9c-0.4-0.9,0.2-1.9,0.9-2.6
		c0.6-0.5,1.2-0.9,1.7-1.5c0.2-0.2,0.2-0.6,0.4-1c-0.6-0.2-1.2-0.3-1.7-0.5c-0.8-0.3-1.2-0.9-1.3-1.7c-0.6-3.2,2.3-6.5,6.2-5.5
		c0.5,0.1,0.9,0.3,1.4,0.4c0.1,0,0.1,0,0.2,0c0.6-0.3,0.7-1,1-1.5c1.1-2.3,4.2-2.9,6.4-1.1c0.7,0.6,1.1,1.4,1.1,2.4
		c0,0.8,0,1.5,0,2.3C197.8,57.2,197.8,57.7,197.8,58.4"/>
	<path class="st3" d="M196.9,62c0,0.5-0.3,0.7-0.7,0.7c-1.4,0.1-2.3,1-3.1,2.1c-0.3,0.5-0.5,0.8-0.3,1.3c0.2,0.6,0.4,1.3,0.5,2
		c0.1,0.2,0,0.5,0,0.8c-0.6-0.3-1-0.6-1.1-1.2c-0.1-0.3-0.2-0.6-0.4-1c-0.2-0.4-0.4-0.7-0.9-0.8c-0.3-0.1-0.5-0.2-0.8-0.3
		c-0.5-0.3-0.9-0.2-1.3,0c-0.4,0.2-0.9,0.3-1.3,0.5c-0.4-0.7-0.4-0.7,0.1-1.1c0.1-0.1,0.2-0.1,0.3-0.2c0.2-0.2,0.5-0.5,0.7-0.6
		c-0.1-0.8-0.2-1.5-0.3-2.2c-0.1-0.3-0.2-0.5-0.4-0.7c-0.2-0.3-0.5-0.6-0.8-0.9c-0.3-0.3-0.3-0.6,0.1-1c0.6,0.4,1.2,0.8,1.8,1.2
		c0.6-0.6,1.2-1,2-0.9c0.4,0,0.7-0.3,0.9-0.6c0.3-0.6,0.7-1.2,1.1-1.7c0.1-0.1,0.3-0.2,0.5-0.3c0,0.8-0.2,1.6-0.5,2.3
		c-0.2,0.5-0.2,0.8,0.3,1.2c0.4,0.3,0.7,0.8,1.1,1.3C195.2,61.9,196.1,61.7,196.9,62"/>
	<path class="st5" d="M212.6,97.5c-0.5-1-1-1.9-1.3-2.8c-0.6-1.5,0.1-2.6,1.6-2.9c1.2-0.3,2.2,0.1,3.1,0.8c0.4,0.3,0.8,0.7,1.3,1.2
		c0.2-0.3,0.4-0.6,0.5-0.9c0.4-0.7,0.7-1.5,1.1-2.2c0.3-0.5,0.7-0.9,1.1-1.2c1.7-1.1,3.5-0.3,3.8,1.7c0.1,0.3,0,0.7,0,1
		c0,0.5-0.1,1,0,1.4c0,0.5,0.2,1.1,0.3,1.7c0.4,0.1,0.8,0.2,1.2,0.3c1.4,0.3,2.3,1.2,2.8,2.5c0.6,1.4,0.3,2.7-0.8,3.8
		c-0.8,0.8-1.8,1.3-2.9,1.5c-0.4,0.1-0.8,0.1-1.4,0.1c-0.2,0.4-0.5,0.9-0.7,1.4c-0.8,1.4-1.9,2.3-3.4,2.8c-1.1,0.3-1.7,0.1-2.1-1
		c-0.3-0.7-0.4-1.5-0.6-2.2c-0.1-0.3-0.1-0.7-0.2-1c-0.1-0.4-0.5-0.5-0.8-0.4c-0.3,0.1-0.6,0.3-0.9,0.4c-1.6,0.7-3.7-0.4-3.9-2.2
		c-0.1-0.8,0.3-1.5,0.8-2.1C211.7,98.8,212.4,98.3,212.6,97.5"/>
	<path class="st3" d="M219.2,103c-0.1-0.4-0.2-0.7-0.3-1c-0.2-1.2-1.2-1.7-2.3-1.2c-0.6,0.3-0.6,0.3-1.2,0c0-0.4,0.3-0.6,0.5-0.8
		c0.3-0.2,0.6-0.4,1-0.6c0.5-0.3,0.6-0.8,0.3-1.3c-0.2-0.3-0.5-0.5-0.7-0.8c-0.1-0.1,0-0.4-0.1-0.5c0.2,0,0.4-0.1,0.6,0
		c0.2,0,0.3,0.2,0.4,0.3c1,0.5,1.9,0.1,2.2-1c0.2-0.7,0.2-1.5,0.9-2c0,0.9-0.1,1.7-0.1,2.5c0,0.1-0.1,0.2,0,0.3
		c0.1,0.2,0.2,0.4,0.3,0.5c0.6,0.2,0.6,1.1,1.3,1.3c0.5,0.1,0.9,0.3,1.4,0.5c0.1,0.1,0.2,0.3,0.3,0.5c-0.1,0.1-0.3,0.2-0.4,0.2
		c-0.1,0-0.3,0.1-0.4,0c-0.7-0.1-1.1,0.3-1.5,0.8c-0.2,0.2-0.4,0.5-0.7,0.7c-0.4,0.3-0.9,0.6-0.9,1.3
		C219.7,102.7,219.5,102.8,219.2,103"/>
	<path class="st5" d="M82.4,266.3c1.1-0.3,2-0.6,3-0.8c1.6-0.3,2.5,0.6,2.6,2.2c0.1,1.2-0.5,2.1-1.4,2.9c-0.4,0.4-0.9,0.7-1.4,1.1
		c0.3,0.3,0.5,0.5,0.8,0.7c0.7,0.5,1.4,1,2,1.5c0.4,0.4,0.7,0.8,0.9,1.3c0.8,1.9-0.4,3.5-2.4,3.4c-0.3,0-0.7-0.1-1-0.2
		c-0.5-0.1-0.9-0.3-1.4-0.3c-0.5-0.1-1.1,0-1.7,0c-0.2,0.4-0.4,0.7-0.5,1.1c-0.6,1.3-1.7,2-3,2.3c-1.5,0.3-2.7-0.2-3.6-1.5
		c-0.6-0.9-1-2-0.9-3.1c0-0.4,0.1-0.8,0.1-1.4c-0.4-0.3-0.8-0.6-1.2-1c-1.2-1-1.9-2.3-2.1-3.9c-0.1-1.2,0.2-1.7,1.4-1.9
		c0.7-0.1,1.5-0.1,2.3-0.1c0.3,0,0.7,0.1,1,0c0.4-0.1,0.6-0.4,0.6-0.7c0-0.3-0.2-0.7-0.2-1c-0.4-1.7,1.1-3.6,2.9-3.4
		c0.8,0.1,1.4,0.6,1.9,1.2C81.4,265.2,81.7,265.9,82.4,266.3"/>
	<path class="st3" d="M75.7,271.7c0.4,0,0.7-0.1,1-0.1c1.3,0,1.9-0.8,1.7-2.1c-0.1-0.7-0.1-0.7,0.2-1.2c0.4,0,0.6,0.4,0.7,0.7
		c0.2,0.3,0.3,0.7,0.4,1.1c0.2,0.5,0.6,0.7,1.2,0.5c0.3-0.1,0.6-0.4,0.9-0.5c0.1-0.1,0.4,0,0.5,0.1c0,0.2,0,0.4-0.1,0.6
		c-0.1,0.1-0.3,0.2-0.4,0.4c-0.7,0.9-0.4,1.8,0.6,2.3c0.6,0.3,1.4,0.5,1.8,1.3c-0.8-0.2-1.7-0.4-2.5-0.6c-0.1,0-0.2-0.1-0.3-0.1
		c-0.2,0-0.5,0.1-0.5,0.2c-0.4,0.6-1.2,0.3-1.5,1.1c-0.2,0.5-0.5,0.9-0.8,1.3c-0.1,0.1-0.3,0.1-0.5,0.2c0-0.2-0.1-0.3-0.1-0.5
		c0-0.1,0-0.3,0-0.4c0.2-0.7-0.1-1.1-0.5-1.6c-0.2-0.3-0.4-0.5-0.5-0.8c-0.3-0.5-0.5-1-1.1-1.2C75.9,272.3,75.9,272,75.7,271.7"/>
</g>
</svg>
