<svg xmlns="http://www.w3.org/2000/svg" xmlns:xlink="http://www.w3.org/1999/xlink" id="Layer_1" viewBox="0 0 315.44067 194.58348" width="315.441" height="194.583"><style id="style3">.st0,.st1{clip-path:url(#SVGID_2_);fill:#ffffff00}.st1{clip-path:url(#SVGID_4_)}.st2{clip-path:url(#SVGID_6_)}.st3{fill:#5d730e}.st4,.st5,.st6,.st7{clip-path:url(#SVGID_8_);fill:#ec929a}.st5,.st6,.st7{fill:#d83e43}.st6,.st7{fill:#f9c461}.st7{fill:#f09852}.st8,.st9{clip-path:url(#SVGID_10_);fill:#67923d}.st9{fill:#5d730e}.st10,.st11{clip-path:url(#SVGID_12_);fill:#67923d}.st11{fill:#5d730e}.st12{clip-path:url(#SVGID_14_)}.st13{fill:#ec929a}</style><g id="g5" transform="translate(-2.472 -25.09)"><defs id="defs7"><path id="SVGID_1_" d="M0 -1H375V374.8H0z"/></defs><clipPath id="SVGID_2_"><use xlink:href="#SVGID_1_" id="use11" width="100%" height="100%" overflow="visible"/></clipPath><path class="st0" id="rect13" clip-path="url(#SVGID_2_)" fill="#ffffff00" d="M0 -1H375V374.8H0z"/></g><g id="g15" transform="matrix(.8305 0 0 .50636 1.5 4.606)"><defs id="defs17"><path id="SVGID_3_" d="M0 -1H375V374H0z"/></defs><clipPath id="SVGID_4_"><use xlink:href="#SVGID_3_" id="use21" width="100%" height="100%" overflow="visible"/></clipPath><path class="st1" id="rect23" clip-path="url(#SVGID_4_)" fill="#ffffff0000" d="M0 -1H375V374H0z"/></g><g id="g25" transform="translate(-31.074 -39.392)"><defs id="defs27"><path id="SVGID_5_" d="M0 -1H375V374H0z"/></defs><clipPath id="SVGID_6_"><use xlink:href="#SVGID_5_" id="use31" width="100%" height="100%" overflow="visible"/></clipPath><g class="st2" id="g33" clip-path="url(#SVGID_6_)"><path class="st3" d="M82.9 184.2c.8 6 1.7 13.8 2.6 23.5.9 9.6 1.4 17.1 1.4 22.4 0 1.4-.7 2.2-2.1 2.2-1.4 0-2.1-.6-2.1-1.7v-8.4c-.6-.4-1.7-.8-3.3-1.1-1.6-.3-3-.5-4.2-.6-.5.9-.9 2.7-1.2 5.4-.3 2.7-.7 4.6-1.4 5.6-2.1 0-3.2-.4-3.4-1.3 1-1.4 2.9-10.4 5.9-26.9 1.2-6.5 1.8-10.3 2.1-11.4 1.2-5.5 2.4-8.3 3.7-8.3.8 0 1.4.2 1.9.6zm-.3 34c-.1-.8-.3-3.1-.6-6.9-.9-9.9-1.4-15.4-1.4-16.5v-1.9c-.3.3-.9 3.3-1.8 9.1-1 5.8-1.5 8.9-1.6 9.4-.1.5-.3 1.2-.6 2.1-.6 1.8-.9 3.2-.9 4.2 1.8.5 3.3.7 4.4.7 1.2 0 2-.1 2.5-.2z" id="path35" fill="#5d730e"/></g><g class="st2" id="g37" clip-path="url(#SVGID_6_)"><path class="st3" d="M103.1 218.9c2.9-16.5 4.7-27.9 5.3-34.4v-.4c.1-.6.4-1 .8-1.3.5-.3.9-.5 1.4-.5.5 0 .8.1 1 .3.5.4.8.8.8 1.4 0 5.1.1 12.7.4 22.9.3 10.2.4 17.8.4 22.9 0 1.3-.4 2.3-1.3 3-.5.3-.7.4-.8.2-.9.2-1.3.1-1.4-.5 0-.3-.1-.6-.1-.9v-1c-.1-3.3-.1-5.8-.1-7.7v-7.6-18.5c-.2 1.3-.7 3.9-1.5 7.6-.8 3.7-1.3 6.4-1.5 8.1-.2 1.7-.5 3.1-.7 4.2-.2 1.1-.3 2.1-.5 3l-.6 2.7c-.5 1.9-1.2 2.9-2.1 2.9-1.3 0-2-2-2-6-.3-2.1-.9-6.2-2.1-12.3-1.1-6.2-1.9-10.4-2.3-12.7 0 4-.1 7-.1 9l.5 26.8c0 .9-.3 1.7-1 2.4-1.1 0-1.8-.4-2.2-1.1-.4-.7-.6-1.7-.6-2.9l.2-10.8-.2-24.9c0-2.8 0-5.6.1-8.3l1.8-1c1.2.1 2.5 3.9 4 11.3 1.2 5.9 2.1 11.3 2.9 16.2 1 4.9 1.4 7.5 1.5 7.9z" id="path39" fill="#5d730e"/></g><g class="st2" id="g41" clip-path="url(#SVGID_6_)"><path class="st3" d="M135.4 212.8l-.6 8.1v.3c-.3 1.2-.4 2.5-.4 3.9s-.2 2.7-.7 4c-.5 1.3-1.2 2.4-2.2 3.4-1 1-2 1.5-3.2 1.5-1.2 0-2.2-.4-3.2-1.2-1-.8-1.7-1.8-2.4-3.1-.6-1.2-1.2-2.7-1.7-4.5-.5-1.7-.8-3.4-1.1-5.1-.3-1.7-.5-3.4-.6-5.2-.2-2.8-.3-5.1-.3-6.9 0-1.8 0-3.3.1-4.4.1-2.1.2-4 .3-5.6.1-1.6.2-2.9.2-3.8 0-.9 0-1.6.1-2.2 0-.6.1-1.4.2-2.2.1-.8.2-1.7.4-2.3.1-.6.4-1.3.7-2 .3-.7.7-1.3 1.1-1.7 1-1 2-1.5 3.2-1.5 1.2 0 2.1.1 2.9.3.7.2 1.3.5 1.8.9s.9.8 1.4 1.4c.4.6.7 1.2 1 1.7.3.6.5 1.2.7 2 .3 1 .5 2.4.8 4.3 1 7.6 1.5 14.2 1.5 19.9zm-5.6-23.5c-.4-1.1-.9-1.9-1.6-2.5-.6-.6-1.2-.9-1.8-.9-.6 0-1 .1-1.4.4-.4.3-.7.7-.9 1.3-.3.6-.5 1.2-.7 1.9-.2.7-.4 1.5-.5 2.4-.1 1-.3 1.8-.4 2.6-.1.8-.2 1.7-.3 2.8-.1 1.1-.1 1.9-.2 2.6 0 .7-.1 1.5-.1 2.4v3.2c0 3.5.3 7.4 1 11.9 1.3 8.8 3.1 13.2 5.5 13.2.8 0 1.6-.8 2.1-2.4.6-1.6 1-3.6 1.2-6 .4-4.1.6-7 .6-8.9v-3.9c0-.8 0-2-.1-3.5s-.1-2.9-.3-4.3c-.1-1.3-.3-2.8-.5-4.4-.2-1.6-.4-3-.8-4.3 0-1.4-.4-2.5-.8-3.6z" id="path43" fill="#5d730e"/></g><g class="st2" id="g45" clip-path="url(#SVGID_6_)"><path class="st3" d="M155.2 230.8c0 1.4-.5 2.1-1.5 2.1-.8 0-1.6-.6-2.3-1.7v-.2c-.1-1.7-.6-4.1-1.6-7.1s-1.5-5-1.8-6.1c-.2-1-.6-3-1.1-5.9-.5-2.9-1-5.1-1.3-6.7v25.4c0 1.4-.7 2-2.1 2-.5 0-.9-.2-1.3-.5s-.5-.8-.5-1.3v-.5l.4-37.8v-7.9c0-.5.1-.9.3-1.1.2-.2.8-.3 1.8-.3s2 .3 3.1 1c1 .7 1.9 1.5 2.5 2.6 1.3 2.2 1.9 4.5 1.9 7.1 0 2.1-.5 4.5-1.6 7.2-.1.3-.4.9-.8 1.9-.4.9-.6 1.5-.7 1.7 0 1.7.3 3.8.8 6.3s1 4.5 1.5 6.1c.5 1.5 1.2 3.9 2.3 7.2 1.1 3.3 1.7 5.1 1.8 5.6v.9zm-9.8-44.6l-.3 13.1c0 1.3 0 2.3.1 3 .7-.7 1.4-1.5 2.1-2.5l.9-5.6c0-2.2-.3-4.1-.9-5.6-.7-1.4-1.3-2.2-1.9-2.4z" id="path47" fill="#5d730e"/></g><g class="st2" id="g49" clip-path="url(#SVGID_6_)"><path class="st3" d="M167.2 208.7l-1.6-.1c-.5 0-.9.2-1.1.5V229c2.2-.1 3.3-.2 3.4-.2 2.4 0 3.6.6 3.6 1.7v.2c-.3.6-.8 1-1.5 1.4-.7.3-1.3.5-1.8.5s-1.2.1-2.1.1h-2c-1.6 0-2.6-.3-3-.9-.2-.3-.3-.7-.3-1.2V184l5.6-.6c.6 0 1.3.2 2 .6.7.4 1 .9 1 1.5 0 1.3-1 1.9-2.9 1.9l-1.9-.1h-.7l.5 10.6c0 .9-.1 2.1-.2 3.8-.1 1.6-.2 2.8-.2 3.6.2 0 .5-.1.9-.2.9-.2 1.6-.3 2.1-.3s.9.2 1.3.5.6.8.6 1.3-.2 1-.5 1.4c-.3.5-.7.7-1.2.7z" id="path51" fill="#5d730e"/></g><g class="st2" id="g55" clip-path="url(#SVGID_6_)"><path class="st3" d="M185.7 230.4l.3-23c0-10.2-.5-17.8-1.6-23 .7-1 1.5-1.4 2.5-1.4 1.6 0 3 .4 4.4 1.1 1.3.7 2.4 1.7 3.2 2.8 1.7 2.5 2.5 5.3 2.5 8.4 0 3.1-.7 6-2 8.6-1.3 2.6-3.4 4.6-6 6l.5 20.1c0 1.8-.7 2.7-2.1 2.7-.5 0-.9-.2-1.2-.7-.3-.5-.5-1-.5-1.6zm3-23.7c3.2-3.1 4.9-6.7 4.9-10.9 0-3.1-.6-5.2-1.7-6.4-.7-.7-2-1.7-3.7-3 0 2.3.1 5.7.3 10.2.2 4.5.2 7.9.2 10.1z" id="path57" fill="#5d730e"/></g><g class="st2" id="g59" clip-path="url(#SVGID_6_)"><path class="st3" d="M215 184.2c.8 6 1.7 13.8 2.6 23.5.9 9.6 1.4 17.1 1.4 22.4 0 1.4-.7 2.2-2.1 2.2-1.4 0-2.1-.6-2.1-1.7v-8.4c-.6-.4-1.7-.8-3.3-1.1-1.6-.3-3-.5-4.2-.6-.5.9-.9 2.7-1.2 5.4-.3 2.7-.7 4.6-1.4 5.6-2.1 0-3.2-.4-3.4-1.3 1-1.4 2.9-10.4 5.9-26.9 1.2-6.5 1.8-10.3 2.1-11.4 1.2-5.5 2.4-8.3 3.7-8.3.8 0 1.4.2 1.9.6zm-.2 34c-.1-.8-.3-3.1-.6-6.9-.9-9.9-1.4-15.4-1.4-16.5v-1.9c-.3.3-.9 3.3-1.8 9.1-1 5.8-1.5 8.9-1.6 9.4-.1.5-.3 1.2-.6 2.1-.6 1.8-.9 3.2-.9 4.2 1.8.5 3.3.7 4.4.7 1.1 0 2-.1 2.5-.2z" id="path61" fill="#5d730e"/></g><g class="st2" id="g63" clip-path="url(#SVGID_6_)"><path class="st3" d="M238.7 230.8c0 1.4-.5 2.1-1.5 2.1-.8 0-1.6-.6-2.3-1.7v-.2c-.1-1.7-.6-4.1-1.6-7.1s-1.5-5-1.8-6.1c-.2-1-.6-3-1.1-5.9-.5-2.9-1-5.1-1.3-6.7v25.4c0 1.4-.7 2-2.1 2-.5 0-.9-.2-1.3-.5s-.5-.8-.5-1.3v-.5l.4-37.8v-7.9c0-.5.1-.9.3-1.1.2-.2.8-.3 1.8-.3s2 .3 3.1 1c1 .7 1.9 1.5 2.5 2.6 1.3 2.2 2 4.5 2 7.1 0 2.1-.5 4.5-1.6 7.2-.1.3-.4.9-.8 1.9-.4.9-.6 1.5-.7 1.7 0 1.7.3 3.8.8 6.3s1 4.5 1.5 6.1c.5 1.5 1.2 3.9 2.3 7.2 1.1 3.3 1.7 5.1 1.8 5.6v.9zm-9.8-44.6l-.3 13.1c0 1.3 0 2.3.1 3 .7-.7 1.4-1.5 2.1-2.5l.9-5.6c0-2.2-.3-4.1-.9-5.6-.7-1.4-1.3-2.2-1.9-2.4z" id="path65" fill="#5d730e"/></g><g class="st2" id="g67" clip-path="url(#SVGID_6_)"><path class="st3" d="M256.2 184.2c.8 6 1.7 13.8 2.6 23.5.9 9.6 1.4 17.1 1.4 22.4 0 1.4-.7 2.2-2.1 2.2-1.4 0-2.1-.6-2.1-1.7v-8.4c-.6-.4-1.7-.8-3.3-1.1-1.6-.3-3-.5-4.2-.6-.5.9-.9 2.7-1.2 5.4-.3 2.7-.7 4.6-1.4 5.6-2.1 0-3.2-.4-3.4-1.3 1-1.4 2.9-10.4 5.9-26.9 1.2-6.5 1.8-10.3 2.1-11.4 1.2-5.5 2.4-8.3 3.7-8.3.8 0 1.4.2 1.9.6zm-.2 34c-.1-.8-.3-3.1-.6-6.9-.9-9.9-1.4-15.4-1.4-16.5v-1.9c-.3.3-.9 3.3-1.8 9.1-1 5.8-1.5 8.9-1.6 9.4-.1.5-.3 1.2-.6 2.1-.6 1.8-.9 3.2-.9 4.2 1.8.5 3.3.7 4.4.7 1.1 0 1.9-.1 2.5-.2z" id="path69" fill="#5d730e"/></g><g class="st2" id="g71" clip-path="url(#SVGID_6_)"><path class="st3" d="M274.9 231.9l-2.3-.3h-1.2c-.2 0-.5.1-.8.2-.6.2-1.2.3-1.6.1-2.7 0-4.1-.5-4.1-1.6s.6-1.6 1.9-1.6l1.4.1c.6 0 .9-.5.9-1.5 0-3.3-.2-8.3-.6-14.9-.4-6.6-.6-11.6-.6-14.9l.1-6.6c0-1.4-.1-2.6-.2-3.6-.6.2-1.1.3-1.5.3-1 0-1.5-.5-1.5-1.5 0-.5.3-1 1-1.4.6-.4 1.5-.7 2.4-.8 1.8-.3 3.1-.5 4-.5.9 0 1.5.2 1.9.5.4.3.6.8.6 1.2 0 .4-.1.9-.4 1.2-.3.3-.6.5-1.1.5h-1.1c-.4 0-.7.1-.9.3-.2.2-.3.5-.3 1.1 0 4.2.3 10.5.8 18.8.5 8.4.8 14.6.8 18.8v2.5c.4-.1.9-.1 1.3-.1 1.8 0 2.7.8 2.7 2.3v.4l-1.6 1zm-6-52.8c-1.4 0-2.2-.6-2.2-1.7v-.1c0-.8 1.9-2.6 5.7-5.3 1.5-1 2.4-1.7 2.7-2 1.6 0 2.5.6 2.5 1.8l-.3 1.5c-1.4.6-2.9 1.4-4.5 2.5-1.6 1.2-2.9 2.2-3.9 3.3z" id="path73" fill="#5d730e"/></g><g class="st2" id="g75" clip-path="url(#SVGID_6_)"><path class="st3" d="M280.9 231.5c0-1.2.5-1.7 1.4-1.7.5 0 1.1.2 1.9.5.8.3 1.5.5 2 .5.6 0 1.2-.4 1.9-1.1.7-.7 1.2-1.6 1.6-2.7.8-2.2 1.2-4.2 1.2-6 0-1.8-.3-3.7-.9-5.8-.6-2.1-1.4-4-2.3-5.8L285 204c-2.2-4.3-3.2-8.2-3.2-11.8 0-3.4 1.1-6 3.2-7.9 1.1-1 2.5-1.5 4-1.5.8 0 1.5.2 2.3.6.7.4 1.2 1 1.5 1.7v1.4c-1.8 0-3-.2-3.6-.6-.8.1-1.5.5-2.1 1.1-1.1 1.3-1.6 2.7-1.6 4.4 0 1.7.2 3.3.7 5.1.5 1.8 1.1 3.4 1.7 4.9.6 1.5 1.3 3 2 4.3.7 1.3 1.3 2.4 1.7 3.2.5.8.7 1.3.7 1.3v.5c.1.5.4 1.4.8 2.6.4 1.2.6 2.1.8 2.8.5 1.9.8 3.6.8 5.1 0 1.5-.2 3-.5 4.4-.4 1.4-.9 2.7-1.6 3.9-.7 1.2-1.6 2.2-2.8 3-1.2.8-2.2 1.2-3.3 1.2-1 0-1.9-.1-2.5-.2-.7-.1-1.4-.3-2.1-.7-.7-.3-1-.8-1-1.3z" id="path77" fill="#5d730e"/></g><g class="st2" id="g79" clip-path="url(#SVGID_6_)"><path class="st3" d="M316 212.8l-.6 8.1v.3c-.3 1.2-.4 2.5-.4 3.9s-.2 2.7-.7 4c-.5 1.3-1.2 2.4-2.2 3.4-1 1-2 1.5-3.2 1.5-1.2 0-2.2-.4-3.2-1.2-1-.8-1.7-1.8-2.4-3.1-.6-1.2-1.2-2.7-1.7-4.5-.5-1.7-.8-3.4-1.1-5.1-.3-1.6-.5-3.4-.6-5.2-.2-2.8-.3-5.1-.3-6.9 0-1.8 0-3.3.1-4.4.1-2.1.2-4 .3-5.6.1-1.6.2-2.9.2-3.8 0-.9 0-1.6.1-2.2 0-.6.1-1.4.2-2.2.1-.9.2-1.7.4-2.3.1-.6.4-1.3.7-2 .3-.7.7-1.3 1.1-1.7 1-1 2-1.5 3.2-1.5 1.2 0 2.1.1 2.9.3.7.2 1.3.5 1.8.9s.9.8 1.4 1.4c.4.6.7 1.2 1 1.7.3.6.5 1.2.7 2 .3 1 .5 2.4.8 4.3.9 7.6 1.5 14.2 1.5 19.9zm-5.7-23.5c-.4-1.1-.9-1.9-1.6-2.5-.6-.6-1.2-.9-1.8-.9-.6 0-1 .1-1.4.4-.4.3-.7.7-.9 1.3-.3.6-.5 1.2-.7 1.9-.2.7-.4 1.5-.5 2.4-.1 1-.3 1.8-.4 2.6-.1.8-.2 1.7-.3 2.8-.1 1.1-.1 1.9-.2 2.6 0 .7-.1 1.5-.1 2.4v3.2c0 3.5.3 7.4 1 11.9 1.3 8.8 3.1 13.2 5.5 13.2.8 0 1.6-.8 2.1-2.4.5-1.6 1-3.6 1.2-6 .4-4.1.6-7 .6-8.9v-3.9c0-.8 0-2-.1-3.5s-.1-2.9-.3-4.3c-.1-1.3-.3-2.8-.5-4.4-.2-1.6-.4-3-.8-4.3 0-1.4-.4-2.5-.8-3.6z" id="path81" fill="#5d730e"/></g></g><g id="g83" transform="translate(-31.074 -39.392)"><defs id="defs85"><path id="SVGID_7_" d="M120.8 44.7H261.8V172.89999999999998H120.8z"/></defs><clipPath id="SVGID_8_"><use xlink:href="#SVGID_7_" id="use89" width="100%" height="100%" overflow="visible"/></clipPath><path class="st4" d="M192 110.3S169.4 61.6 229 50c.1 0 16.2 42.3-37 60.3z" id="path91" clip-path="url(#SVGID_8_)" fill="#ec929a"/><path class="st5" d="M196.8 91.6c1.3-5.7 4.3-11 8.4-15.2-1.7 6.4-3.3 12.8-5 19.2 3.4-6.1 7.1-12 11.3-17.6-1.3 5.7-3.2 11.4-5.7 16.7 4.8-5.4 9.2-11.1 13.1-17.2-3.5 14.3-13.4 26.8-26.6 33.4-1-9.7.4-19.7 3.9-28.8 0 3.2.2 6.4.6 9.5z" id="path93" clip-path="url(#SVGID_8_)" fill="#d83e43"/><path class="st4" d="M191.8 109.5s35.7-40.1 70 10c-.1-.1-32.4 31.6-70-10z" id="path95" clip-path="url(#SVGID_8_)" fill="#ec929a"/><path class="st5" d="M210.8 106.4c5.8-1 11.8-.5 17.2 1.6-6.5 1-13.1 2-19.6 3.1 7 .7 13.9 1.8 20.6 3.4-5.8 1.1-11.7 1.6-17.6 1.4 6.8 2.3 13.9 4 21 5.2-14.5 2.5-29.9-1.6-41.2-11.1 8.5-4.8 18.2-7.5 27.9-7.9-2.8 1.2-5.6 2.6-8.3 4.3z" id="path97" clip-path="url(#SVGID_8_)" fill="#d83e43"/><path class="st4" d="M190.5 109.3s27.4 46.2-30.8 63.7c0 0-20.3-40.5 30.8-63.7z" id="path99" clip-path="url(#SVGID_8_)" fill="#ec929a"/><path class="st5" d="M187.6 128.4c-.8 5.8-3.1 11.4-6.8 15.9 1-6.5 2.1-13.1 3.1-19.6-2.7 6.4-5.9 12.7-9.5 18.7.7-5.9 2-11.6 4-17.2-4.2 5.8-8 12-11.3 18.4 2-14.5 10.7-28 23.1-35.9 1.9 9.6 1.6 19.6-1 29-.3-3.1-.8-6.2-1.6-9.3z" id="path101" clip-path="url(#SVGID_8_)" fill="#d83e43"/><path class="st4" d="M190.2 111.7s-37.6 38.4-69.4-13.3c0-.1 33.8-30.1 69.4 13.3z" id="path103" clip-path="url(#SVGID_8_)" fill="#ec929a"/><path class="st5" d="M171 113.8c-5.8.8-11.8-.1-17.2-2.4 6.6-.7 13.2-1.4 19.7-2.1-6.9-1-13.8-2.4-20.4-4.4 5.8-.8 11.7-1 17.6-.5-6.7-2.6-13.6-4.7-20.7-6.2 14.6-1.8 29.8 3.1 40.6 13.1-8.7 4.4-18.5 6.6-28.3 6.5 3.1-1.1 5.9-2.4 8.7-4z" id="path105" clip-path="url(#SVGID_8_)" fill="#d83e43"/><path class="st4" d="M189.4 110.3s-52.6-10.7-26.6-65.6c.1 0 43.7 12.1 26.6 65.6z" id="path107" clip-path="url(#SVGID_8_)" fill="#ec929a"/><path class="st5" d="M177.2 95.4c-3.8-4.5-6.3-10-7.3-15.8 4.1 5.1 8.3 10.3 12.5 15.4-2.9-6.4-5.4-12.9-7.4-19.6 3.9 4.4 7.2 9.3 10 14.5-1.5-7.1-3.5-14-6.1-20.7 9.4 11.2 13.6 26.8 11.1 41.2-8.4-5-15.6-12-20.8-20.2 2.5 2 5.2 3.7 8 5.2z" id="path109" clip-path="url(#SVGID_8_)" fill="#d83e43"/><path class="st4" d="M190.3 111.2s53.7-.6 39.7 58.6c0 0-45.2-2.7-39.7-58.6z" id="path111" clip-path="url(#SVGID_8_)" fill="#ec929a"/><path class="st5" d="M205.3 123.3c4.7 3.6 8.3 8.4 10.4 13.9-5.1-4.1-10.3-8.3-15.4-12.5 4.2 5.6 8 11.5 11.4 17.6-4.7-3.5-9-7.6-12.8-12.1 2.9 6.6 6.3 12.9 10.2 19-11.6-9-18.9-23.3-19.5-38 9.3 3.1 17.8 8.4 24.6 15.4-2.8-1.4-5.8-2.5-8.9-3.3z" id="path113" clip-path="url(#SVGID_8_)" fill="#d83e43"/><path class="st6" d="M190.7 124c3.8.8 7.8-.6 11-2.8 5-3.4 8.6-9.1 8.7-15.2.1-6.1-3.6-12.2-9.4-14.2-4-1.4-8.5-.7-12.5.5-4.3 1.3-8.6 3.3-11.2 6.9-3 4.2-3.1 10.1-.6 14.5 1.9 3.3 5.2 5.7 8.5 7.8 1.7 1.1 3.5 2.1 5.5 2.5z" id="path115" clip-path="url(#SVGID_8_)" fill="#f9c461"/><path class="st7" d="M181.5 105c0 .1 0 .1-.1.2-.2.6.2 1.3.8 1.5.7.1 1.2-.2 1.5-.8 0-.1 0-.1.1-.2.2-.6-.2-1.3-.8-1.5-.7-.2-1.3.2-1.5.8z" id="path117" clip-path="url(#SVGID_8_)" fill="#f09852"/><path class="st7" d="M190.8 116.9c0 .1 0 .1-.1.2-.2.6.2 1.3.8 1.5.7.1 1.2-.2 1.5-.8 0-.1 0-.1.1-.2.2-.6-.2-1.3-.8-1.5-.7-.2-1.3.2-1.5.8z" id="path119" clip-path="url(#SVGID_8_)" fill="#f09852"/><path class="st7" d="M189 113.2c1.5 0 1.5-2.4 0-2.4s-1.5 2.4 0 2.4z" id="path121" clip-path="url(#SVGID_8_)" fill="#f09852"/><path class="st7" d="M197.8 121.4c1.5 0 1.5-2.4 0-2.4s-1.5 2.4 0 2.4z" id="path123" clip-path="url(#SVGID_8_)" fill="#f09852"/><path class="st7" d="M206.4 109.3c-.1 0-.1 0-.2-.1-.6-.2-1.3.2-1.5.8-.1.7.2 1.2.8 1.5.1 0 .1 0 .2.1.6.2 1.3-.2 1.5-.8.2-.7-.2-1.3-.8-1.5z" id="path125" clip-path="url(#SVGID_8_)" fill="#f09852"/><path class="st7" d="M184.3 117.4c.1 0 .1 0 .2.1.4.1 1 0 1.4-.2.4-.2.7-.6.8-1 .2-1-.3-1.8-1.2-2.2-.1 0-.1 0-.2-.1-.4-.1-1 0-1.4.2-.4.2-.7.6-.8 1-.3 1 .3 1.9 1.2 2.2z" id="path127" clip-path="url(#SVGID_8_)" fill="#f09852"/><path class="st7" d="M190.5 108.8c2.3 0 2.3-3.5 0-3.5s-2.3 3.5 0 3.5z" id="path129" clip-path="url(#SVGID_8_)" fill="#f09852"/><path class="st7" d="M198.6 112.4c2.3 0 2.3-3.5 0-3.5s-2.2 3.5 0 3.5z" id="path131" clip-path="url(#SVGID_8_)" fill="#f09852"/><path class="st7" d="M206.9 105.6c2.3 0 2.3-3.5 0-3.5s-2.3 3.5 0 3.5z" id="path133" clip-path="url(#SVGID_8_)" fill="#f09852"/><path class="st7" d="M199.1 114.6c0 .1 0 .1-.1.2-.1.4 0 1 .2 1.4.2.4.6.7 1 .8 1 .2 1.8-.3 2.2-1.2 0-.1 0-.1.1-.2.1-.4 0-1-.2-1.4-.2-.4-.6-.7-1-.8-1-.2-1.9.3-2.2 1.2z" id="path135" clip-path="url(#SVGID_8_)" fill="#f09852"/><path class="st7" d="M179.8 113.3c2.3 0 2.3-3.5 0-3.5-2.3-.1-2.3 3.5 0 3.5z" id="path137" clip-path="url(#SVGID_8_)" fill="#f09852"/></g><g id="g139" transform="translate(-31.074 -39.392)"><defs id="defs141"><path id="SVGID_9_" transform="rotate(-38.842 305.244 134.37)" d="M250.1 105.9H360.4V162.9H250.1z"/></defs><clipPath id="SVGID_10_"><use xlink:href="#SVGID_9_" id="use145" width="100%" height="100%" overflow="visible"/></clipPath><path class="st8" d="M268.8 163.4c10.9 16.3 40.7 6.1 58.3-10.3l-7.8-3.9s16.1-12.5 23.4-21.7l-10.4-2.9s9.2-19.8 11.1-30.7c0 0-26.5 10.6-33.7 15.7 0 0-.1-11.1-2-13.4 0 0-14.6 15.6-21.4 26.1l-1.8-7.6c-.1-.1-29.3 28.5-15.7 48.7z" id="path147" clip-path="url(#SVGID_10_)" fill="#67923d"/><path class="st9" d="M306.4 144.8c-4.9 1-9.9 2-14.8 3 4.6-4.5 9.2-9.1 13.7-13.7 4.1-.7 8.2-1.4 12.3-2.2 2-.4 1.6-3.5-.5-3.2-2.6.5-5.3.9-7.9 1.4 3.3-3.4 6.6-6.8 10-10.1 1.4-1.5-.6-4-2-2.5-6.4 6.4-12.7 12.9-19.1 19.4 1.7-4.2 3.4-8.5 5.1-12.7.8-1.9-2.2-3.1-3-1.1-2.5 6.3-5 12.6-7.6 18.8-.1.2-.1.4-.1.6-2.2 2.2-4.4 4.3-6.7 6.5-.7.1-1.1.6-1.3 1.2-1 1-2 1.9-3 2.8 1.4-4.2 2.8-8.4 4.2-12.5.7-2-2.4-3.1-3-1.1-2 5.9-3.9 11.9-5.9 17.8 0 .1 0 .2-.1.2-4.2 3.8-8.5 7.4-12.9 10.9-1.6 1.3.4 3.8 2 2.5 7.4-5.9 14.6-12.2 21.5-18.8 6.5-1.3 13.1-2.6 19.6-4 2-.5 1.5-3.6-.5-3.2z" id="path149" clip-path="url(#SVGID_10_)" fill="#5d730e"/></g><g id="g151" transform="translate(-31.074 -39.392)"><defs id="defs153"><path id="SVGID_11_" transform="rotate(-45.001 80.999 134.377)" d="M52.5 79.3H109.5V189.5H52.5z"/></defs><clipPath id="SVGID_12_"><use xlink:href="#SVGID_11_" id="use157" width="100%" height="100%" overflow="visible"/></clipPath><path class="st10" d="M113.8 167.5c15-12.6 1.7-41.2-16.5-56.9l-3.1 8.2S80 104.1 70.1 97.9l-1.8 10.6s-20.7-7.1-31.8-7.8c0 0 13.4 25.2 19.3 31.8 0 0-11.1 1.3-13.1 3.4 0 0 17.1 12.8 28.2 18.5l-7.4 2.6c.1.2 31.6 26.1 50.3 10.5z" id="path159" clip-path="url(#SVGID_12_)" fill="#67923d"/><path class="st11" d="M91.2 132.1c1.5 4.8 3 9.6 4.6 14.4-5-4.1-10.1-8.2-15.1-12.2-1.2-4-2.3-8-3.5-12-.6-2-3.7-1.2-3.1.8.7 2.6 1.5 5.2 2.2 7.7-3.7-2.9-7.4-5.9-11.1-8.8-1.6-1.3-3.9 1-2.3 2.3 7 5.6 14.2 11.2 21.3 16.9-4.4-1.2-8.8-2.5-13.2-3.7-2-.6-2.8 2.6-.8 3.1 6.5 1.8 13 3.7 19.5 5.5.2.1.4.1.6.1 2.4 2 4.8 3.9 7.2 5.9.2.7.8 1 1.3 1.1 1.1.9 2.1 1.8 3.1 2.7-4.3-.9-8.6-1.9-12.9-2.8-2-.4-2.9 2.7-.8 3.1 6.1 1.3 12.3 2.7 18.4 4h.2c4.2 3.8 8.3 7.6 12.2 11.6 1.5 1.5 3.7-.8 2.3-2.3-6.6-6.8-13.7-13.2-21-19.4-2-6.4-4-12.7-6-19.1-.6-1.7-3.7-.9-3.1 1.1z" id="path161" clip-path="url(#SVGID_12_)" fill="#5d730e"/></g></svg>