<?xml version="1.0" encoding="UTF-8" standalone="no"?>
<!-- Generator: Adobe Illustrator 22.1.0, SVG Export Plug-In . SVG Version: 6.00 Build 0)  -->

<svg
   xmlns:dc="http://purl.org/dc/elements/1.1/"
   xmlns:cc="http://creativecommons.org/ns#"
   xmlns:rdf="http://www.w3.org/1999/02/22-rdf-syntax-ns#"
   xmlns:svg="http://www.w3.org/2000/svg"
   xmlns="http://www.w3.org/2000/svg"
   xmlns:xlink="http://www.w3.org/1999/xlink"
   xmlns:sodipodi="http://sodipodi.sourceforge.net/DTD/sodipodi-0.dtd"
   xmlns:inkscape="http://www.inkscape.org/namespaces/inkscape"
   version="1.1"
   id="Layer_1"
   x="0px"
   y="0px"
   viewBox="0 0 315.44067 140"
   xml:space="preserve"
   inkscape:version="0.91 r13725"
   sodipodi:docname="logo.svg"
   width="315.44067"
   height="140"><metadata
     id="metadata239"><rdf:RDF><cc:Work
         rdf:about=""><dc:format>image/svg+xml</dc:format><dc:type
           rdf:resource="http://purl.org/dc/dcmitype/StillImage" /><dc:title></dc:title></cc:Work></rdf:RDF></metadata><defs
     id="defs237" /><sodipodi:namedview
     pagecolor="#ffffff00"
     bordercolor="#666666"
     borderopacity="1"
     objecttolerance="10"
     gridtolerance="10"
     guidetolerance="10"
     inkscape:pageopacity="0"
     inkscape:pageshadow="2"
     inkscape:window-width="1440"
     inkscape:window-height="856"
     id="namedview235"
     showgrid="false"
     inkscape:zoom="1.2586667"
     inkscape:cx="169.93215"
     inkscape:cy="38.920168"
     inkscape:window-x="0"
     inkscape:window-y="0"
     inkscape:window-maximized="0"
     inkscape:current-layer="Layer_1"
     fit-margin-top="4.1"
     fit-margin-left="1.5"
     fit-margin-right="2.5"
     fit-margin-bottom="0.6"
     borderlayer="false"
     inkscape:showpageshadow="false"
     showborder="false" /><style
     type="text/css"
     id="style3">
	.st0{clip-path:url(#SVGID_2_);fill:#FFFFFF00;}
	.st1{clip-path:url(#SVGID_4_);fill:#FFFFFF00;}
	.st2{clip-path:url(#SVGID_6_);}
	.st3{fill:#9b6062;}
	.st4{clip-path:url(#SVGID_8_);fill:#d6bebe;}
	.st5{clip-path:url(#SVGID_8_);fill:#9b6062;}
	.st6{clip-path:url(#SVGID_8_);fill:#eadddd;}
	.st7{clip-path:url(#SVGID_8_);fill:#eadddd;}
	.st8{clip-path:url(#SVGID_10_);fill:#d6bebe;}
	.st9{clip-path:url(#SVGID_10_);fill:#9b6062;}
	.st10{clip-path:url(#SVGID_12_);fill:#d6bebe;}
	.st11{clip-path:url(#SVGID_12_);fill:#9b6062;}
	.st12{clip-path:url(#SVGID_14_);}
	.st13{fill:#d6bebe;}
</style><g
     id="g83"
     transform="translate(-31.074153,-39.391525)"><defs
       id="defs85"><rect
         id="SVGID_7_"
         x="120.8"
         y="44.700001"
         width="141"
         height="128.2" /></defs><clipPath
       id="SVGID_8_"><use
         xlink:href="#SVGID_7_"
         style="overflow:visible"
         id="use89"
         x="0"
         y="0"
         width="100%"
         height="100%" /></clipPath><path
       class="st4"
       d="m 192,110.3 c 0,0 -22.6,-48.7 37,-60.3 0.1,0 16.2,42.3 -37,60.3 z"
       id="path91"
       clip-path="url(#SVGID_8_)"
       inkscape:connector-curvature="0"
       style="fill:#d6bebe" /><path
       class="st5"
       d="m 196.8,91.6 c 1.3,-5.7 4.3,-11 8.4,-15.2 -1.7,6.4 -3.3,12.8 -5,19.2 3.4,-6.1 7.1,-12 11.3,-17.6 -1.3,5.7 -3.2,11.4 -5.7,16.7 4.8,-5.4 9.2,-11.1 13.1,-17.2 -3.5,14.3 -13.4,26.8 -26.6,33.4 -1,-9.7 0.4,-19.7 3.9,-28.8 0,3.2 0.2,6.4 0.6,9.5 z"
       id="path93"
       clip-path="url(#SVGID_8_)"
       inkscape:connector-curvature="0"
       style="fill:#9b6062" /><path
       class="st4"
       d="m 191.8,109.5 c 0,0 35.7,-40.1 70,10 -0.1,-0.1 -32.4,31.6 -70,-10 z"
       id="path95"
       clip-path="url(#SVGID_8_)"
       inkscape:connector-curvature="0"
       style="fill:#d6bebe" /><path
       class="st5"
       d="m 210.8,106.4 c 5.8,-1 11.8,-0.5 17.2,1.6 -6.5,1 -13.1,2 -19.6,3.1 7,0.7 13.9,1.8 20.6,3.4 -5.8,1.1 -11.7,1.6 -17.6,1.4 6.8,2.3 13.9,4 21,5.2 -14.5,2.5 -29.9,-1.6 -41.2,-11.1 8.5,-4.8 18.2,-7.5 27.9,-7.9 -2.8,1.2 -5.6,2.6 -8.3,4.3 z"
       id="path97"
       clip-path="url(#SVGID_8_)"
       inkscape:connector-curvature="0"
       style="fill:#9b6062" /><path
       class="st4"
       d="m 190.5,109.3 c 0,0 27.4,46.2 -30.8,63.7 0,0 -20.3,-40.5 30.8,-63.7 z"
       id="path99"
       clip-path="url(#SVGID_8_)"
       inkscape:connector-curvature="0"
       style="fill:#d6bebe" /><path
       class="st5"
       d="m 187.6,128.4 c -0.8,5.8 -3.1,11.4 -6.8,15.9 1,-6.5 2.1,-13.1 3.1,-19.6 -2.7,6.4 -5.9,12.7 -9.5,18.7 0.7,-5.9 2,-11.6 4,-17.2 -4.2,5.8 -8,12 -11.3,18.4 2,-14.5 10.7,-28 23.1,-35.9 1.9,9.6 1.6,19.6 -1,29 -0.3,-3.1 -0.8,-6.2 -1.6,-9.3 z"
       id="path101"
       clip-path="url(#SVGID_8_)"
       inkscape:connector-curvature="0"
       style="fill:#9b6062" /><path
       class="st4"
       d="m 190.2,111.7 c 0,0 -37.6,38.4 -69.4,-13.3 0,-0.1 33.8,-30.1 69.4,13.3 z"
       id="path103"
       clip-path="url(#SVGID_8_)"
       inkscape:connector-curvature="0"
       style="fill:#d6bebe" /><path
       class="st5"
       d="m 171,113.8 c -5.8,0.8 -11.8,-0.1 -17.2,-2.4 6.6,-0.7 13.2,-1.4 19.7,-2.1 -6.9,-1 -13.8,-2.4 -20.4,-4.4 5.8,-0.8 11.7,-1 17.6,-0.5 -6.7,-2.6 -13.6,-4.7 -20.7,-6.2 14.6,-1.8 29.8,3.1 40.6,13.1 -8.7,4.4 -18.5,6.6 -28.3,6.5 3.1,-1.1 5.9,-2.4 8.7,-4 z"
       id="path105"
       clip-path="url(#SVGID_8_)"
       inkscape:connector-curvature="0"
       style="fill:#9b6062" /><path
       class="st4"
       d="m 189.4,110.3 c 0,0 -52.6,-10.7 -26.6,-65.6 0.1,0 43.7,12.1 26.6,65.6 z"
       id="path107"
       clip-path="url(#SVGID_8_)"
       inkscape:connector-curvature="0"
       style="fill:#d6bebe" /><path
       class="st5"
       d="m 177.2,95.4 c -3.8,-4.5 -6.3,-10 -7.3,-15.8 4.1,5.1 8.3,10.3 12.5,15.4 -2.9,-6.4 -5.4,-12.9 -7.4,-19.6 3.9,4.4 7.2,9.3 10,14.5 -1.5,-7.1 -3.5,-14 -6.1,-20.7 9.4,11.2 13.6,26.8 11.1,41.2 -8.4,-5 -15.6,-12 -20.8,-20.2 2.5,2 5.2,3.7 8,5.2 z"
       id="path109"
       clip-path="url(#SVGID_8_)"
       inkscape:connector-curvature="0"
       style="fill:#9b6062" /><path
       class="st4"
       d="m 190.3,111.2 c 0,0 53.7,-0.6 39.7,58.6 0,0 -45.2,-2.7 -39.7,-58.6 z"
       id="path111"
       clip-path="url(#SVGID_8_)"
       inkscape:connector-curvature="0"
       style="fill:#d6bebe" /><path
       class="st5"
       d="m 205.3,123.3 c 4.7,3.6 8.3,8.4 10.4,13.9 -5.1,-4.1 -10.3,-8.3 -15.4,-12.5 4.2,5.6 8,11.5 11.4,17.6 -4.7,-3.5 -9,-7.6 -12.8,-12.1 2.9,6.6 6.3,12.9 10.2,19 -11.6,-9 -18.9,-23.3 -19.5,-38 9.3,3.1 17.8,8.4 24.6,15.4 -2.8,-1.4 -5.8,-2.5 -8.9,-3.3 z"
       id="path113"
       clip-path="url(#SVGID_8_)"
       inkscape:connector-curvature="0"
       style="fill:#9b6062" /><path
       class="st6"
       d="m 190.7,124 c 3.8,0.8 7.8,-0.6 11,-2.8 5,-3.4 8.6,-9.1 8.7,-15.2 0.1,-6.1 -3.6,-12.2 -9.4,-14.2 -4,-1.4 -8.5,-0.7 -12.5,0.5 -4.3,1.3 -8.6,3.3 -11.2,6.9 -3,4.2 -3.1,10.1 -0.6,14.5 1.9,3.3 5.2,5.7 8.5,7.8 1.7,1.1 3.5,2.1 5.5,2.5 z"
       id="path115"
       clip-path="url(#SVGID_8_)"
       inkscape:connector-curvature="0"
       style="fill:#eadddd" /><path
       class="st7"
       d="m 181.5,105 c 0,0.1 0,0.1 -0.1,0.2 -0.2,0.6 0.2,1.3 0.8,1.5 0.7,0.1 1.2,-0.2 1.5,-0.8 0,-0.1 0,-0.1 0.1,-0.2 0.2,-0.6 -0.2,-1.3 -0.8,-1.5 -0.7,-0.2 -1.3,0.2 -1.5,0.8 z"
       id="path117"
       clip-path="url(#SVGID_8_)"
       inkscape:connector-curvature="0"
       style="fill:#eadddd" /><path
       class="st7"
       d="m 190.8,116.9 c 0,0.1 0,0.1 -0.1,0.2 -0.2,0.6 0.2,1.3 0.8,1.5 0.7,0.1 1.2,-0.2 1.5,-0.8 0,-0.1 0,-0.1 0.1,-0.2 0.2,-0.6 -0.2,-1.3 -0.8,-1.5 -0.7,-0.2 -1.3,0.2 -1.5,0.8 z"
       id="path119"
       clip-path="url(#SVGID_8_)"
       inkscape:connector-curvature="0"
       style="fill:#eadddd" /><path
       class="st7"
       d="m 189,113.2 c 1.5,0 1.5,-2.4 0,-2.4 -1.5,0 -1.5,2.4 0,2.4 z"
       id="path121"
       clip-path="url(#SVGID_8_)"
       inkscape:connector-curvature="0"
       style="fill:#eadddd" /><path
       class="st7"
       d="m 197.8,121.4 c 1.5,0 1.5,-2.4 0,-2.4 -1.5,0 -1.5,2.4 0,2.4 z"
       id="path123"
       clip-path="url(#SVGID_8_)"
       inkscape:connector-curvature="0"
       style="fill:#eadddd" /><path
       class="st7"
       d="m 206.4,109.3 c -0.1,0 -0.1,0 -0.2,-0.1 -0.6,-0.2 -1.3,0.2 -1.5,0.8 -0.1,0.7 0.2,1.2 0.8,1.5 0.1,0 0.1,0 0.2,0.1 0.6,0.2 1.3,-0.2 1.5,-0.8 0.2,-0.7 -0.2,-1.3 -0.8,-1.5 z"
       id="path125"
       clip-path="url(#SVGID_8_)"
       inkscape:connector-curvature="0"
       style="fill:#eadddd" /><path
       class="st7"
       d="m 184.3,117.4 c 0.1,0 0.1,0 0.2,0.1 0.4,0.1 1,0 1.4,-0.2 0.4,-0.2 0.7,-0.6 0.8,-1 0.2,-1 -0.3,-1.8 -1.2,-2.2 -0.1,0 -0.1,0 -0.2,-0.1 -0.4,-0.1 -1,0 -1.4,0.2 -0.4,0.2 -0.7,0.6 -0.8,1 -0.3,1 0.3,1.9 1.2,2.2 z"
       id="path127"
       clip-path="url(#SVGID_8_)"
       inkscape:connector-curvature="0"
       style="fill:#eadddd" /><path
       class="st7"
       d="m 190.5,108.8 c 2.3,0 2.3,-3.5 0,-3.5 -2.3,0 -2.3,3.5 0,3.5 z"
       id="path129"
       clip-path="url(#SVGID_8_)"
       inkscape:connector-curvature="0"
       style="fill:#eadddd" /><path
       class="st7"
       d="m 198.6,112.4 c 2.3,0 2.3,-3.5 0,-3.5 -2.3,0 -2.2,3.5 0,3.5 z"
       id="path131"
       clip-path="url(#SVGID_8_)"
       inkscape:connector-curvature="0"
       style="fill:#eadddd" /><path
       class="st7"
       d="m 206.9,105.6 c 2.3,0 2.3,-3.5 0,-3.5 -2.3,0 -2.3,3.5 0,3.5 z"
       id="path133"
       clip-path="url(#SVGID_8_)"
       inkscape:connector-curvature="0"
       style="fill:#eadddd" /><path
       class="st7"
       d="m 199.1,114.6 c 0,0.1 0,0.1 -0.1,0.2 -0.1,0.4 0,1 0.2,1.4 0.2,0.4 0.6,0.7 1,0.8 1,0.2 1.8,-0.3 2.2,-1.2 0,-0.1 0,-0.1 0.1,-0.2 0.1,-0.4 0,-1 -0.2,-1.4 -0.2,-0.4 -0.6,-0.7 -1,-0.8 -1,-0.2 -1.9,0.3 -2.2,1.2 z"
       id="path135"
       clip-path="url(#SVGID_8_)"
       inkscape:connector-curvature="0"
       style="fill:#eadddd" /><path
       class="st7"
       d="m 179.8,113.3 c 2.3,0 2.3,-3.5 0,-3.5 -2.3,-0.1 -2.3,3.5 0,3.5 z"
       id="path137"
       clip-path="url(#SVGID_8_)"
       inkscape:connector-curvature="0"
       style="fill:#eadddd" /></g><g
     id="g139"
     transform="translate(-31.074153,-39.391525)"><defs
       id="defs141"><rect
         id="SVGID_9_"
         x="250.10001"
         y="105.9"
         transform="matrix(0.7789,-0.6272,0.6272,0.7789,-16.7781,221.1627)"
         width="110.3"
         height="57" /></defs><clipPath
       id="SVGID_10_"><use
         xlink:href="#SVGID_9_"
         style="overflow:visible"
         id="use145"
         x="0"
         y="0"
         width="100%"
         height="100%" /></clipPath><path
       class="st8"
       d="m 268.8,163.4 c 10.9,16.3 40.7,6.1 58.3,-10.3 l -7.8,-3.9 c 0,0 16.1,-12.5 23.4,-21.7 l -10.4,-2.9 c 0,0 9.2,-19.8 11.1,-30.7 0,0 -26.5,10.6 -33.7,15.7 0,0 -0.1,-11.1 -2,-13.4 0,0 -14.6,15.6 -21.4,26.1 l -1.8,-7.6 c -0.1,-0.1 -29.3,28.5 -15.7,48.7 z"
       id="path147"
       clip-path="url(#SVGID_10_)"
       inkscape:connector-curvature="0"
       style="fill:#d6bebe" /><path
       class="st9"
       d="m 306.4,144.8 c -4.9,1 -9.9,2 -14.8,3 4.6,-4.5 9.2,-9.1 13.7,-13.7 4.1,-0.7 8.2,-1.4 12.3,-2.2 2,-0.4 1.6,-3.5 -0.5,-3.2 -2.6,0.5 -5.3,0.9 -7.9,1.4 3.3,-3.4 6.6,-6.8 10,-10.1 1.4,-1.5 -0.6,-4 -2,-2.5 -6.4,6.4 -12.7,12.9 -19.1,19.4 1.7,-4.2 3.4,-8.5 5.1,-12.7 0.8,-1.9 -2.2,-3.1 -3,-1.1 -2.5,6.3 -5,12.6 -7.6,18.8 -0.1,0.2 -0.1,0.4 -0.1,0.6 -2.2,2.2 -4.4,4.3 -6.7,6.5 0,0 0,0 0,0 -0.7,0.1 -1.1,0.6 -1.3,1.2 -1,1 -2,1.9 -3,2.8 1.4,-4.2 2.8,-8.4 4.2,-12.5 0.7,-2 -2.4,-3.1 -3,-1.1 -2,5.9 -3.9,11.9 -5.9,17.8 0,0.1 0,0.2 -0.1,0.2 -4.2,3.8 -8.5,7.4 -12.9,10.9 -1.6,1.3 0.4,3.8 2,2.5 7.4,-5.9 14.6,-12.2 21.5,-18.8 6.5,-1.3 13.1,-2.6 19.6,-4 2,-0.5 1.5,-3.6 -0.5,-3.2 z"
       id="path149"
       clip-path="url(#SVGID_10_)"
       inkscape:connector-curvature="0"
       style="fill:#9b6062" /></g><g
     id="g151"
     transform="translate(-31.074153,-39.391525)"><defs
       id="defs153"><rect
         id="SVGID_11_"
         x="52.5"
         y="79.300003"
         transform="matrix(0.7071,-0.7071,0.7071,0.7071,-71.2931,96.6332)"
         width="57"
         height="110.2" /></defs><clipPath
       id="SVGID_12_"><use
         xlink:href="#SVGID_11_"
         style="overflow:visible"
         id="use157"
         x="0"
         y="0"
         width="100%"
         height="100%" /></clipPath><path
       class="st10"
       d="m 113.8,167.5 c 15,-12.6 1.7,-41.2 -16.5,-56.9 l -3.1,8.2 c 0,0 -14.2,-14.7 -24.1,-20.9 l -1.8,10.6 c 0,0 -20.7,-7.1 -31.8,-7.8 0,0 13.4,25.2 19.3,31.8 0,0 -11.1,1.3 -13.1,3.4 0,0 17.1,12.8 28.2,18.5 l -7.4,2.6 c 0.1,0.2 31.6,26.1 50.3,10.5 z"
       id="path159"
       clip-path="url(#SVGID_12_)"
       inkscape:connector-curvature="0"
       style="fill:#d6bebe" /><path
       class="st11"
       d="m 91.2,132.1 c 1.5,4.8 3,9.6 4.6,14.4 -5,-4.1 -10.1,-8.2 -15.1,-12.2 -1.2,-4 -2.3,-8 -3.5,-12 -0.6,-2 -3.7,-1.2 -3.1,0.8 0.7,2.6 1.5,5.2 2.2,7.7 -3.7,-2.9 -7.4,-5.9 -11.1,-8.8 -1.6,-1.3 -3.9,1 -2.3,2.3 7,5.6 14.2,11.2 21.3,16.9 -4.4,-1.2 -8.8,-2.5 -13.2,-3.7 -2,-0.6 -2.8,2.6 -0.8,3.1 6.5,1.8 13,3.7 19.5,5.5 0.2,0.1 0.4,0.1 0.6,0.1 2.4,2 4.8,3.9 7.2,5.9 0,0 0,0 0,0 0.2,0.7 0.8,1 1.3,1.1 1.1,0.9 2.1,1.8 3.1,2.7 -4.3,-0.9 -8.6,-1.9 -12.9,-2.8 -2,-0.4 -2.9,2.7 -0.8,3.1 6.1,1.3 12.3,2.7 18.4,4 0.1,0 0.2,0 0.2,0 4.2,3.8 8.3,7.6 12.2,11.6 1.5,1.5 3.7,-0.8 2.3,-2.3 -6.6,-6.8 -13.7,-13.2 -21,-19.4 -2,-6.4 -4,-12.7 -6,-19.1 -0.6,-1.7 -3.7,-0.9 -3.1,1.1 z"
       id="path161"
       clip-path="url(#SVGID_12_)"
       inkscape:connector-curvature="0"
       style="fill:#9b6062" /></g></svg>