<svg xmlns="http://www.w3.org/2000/svg" style="display: none;"><symbol id="picture" viewBox="0 0 512 512"><title>picture</title><path d="M509.769,134.021c-1.409-1.409-3.366-2.22-5.373-2.22h-49.081L278.802,53.613c0.002-0.13,0.01-0.257,0.01-0.388 c0-12.578-10.234-22.812-22.812-22.812s-22.812,10.234-22.812,22.812c0,0.131,0.008,0.26,0.01,0.39L56.685,131.801H7.604 c-1.997,0-3.964,0.811-5.373,2.22C0.811,135.441,0,137.397,0,139.405v70.97c0,4.187,3.406,7.604,7.604,7.604 c4.187,0,7.604-3.417,7.604-7.604v-63.376h42.988c0.037,0,0.073,0.008,0.11,0.008c0.052,0,0.103-0.007,0.154-0.008h60.455 c0.081,0.01,0.162,0.03,0.223,0H453.54c0.051,0.001,0.103,0.008,0.154,0.008c0.037,0,0.073-0.008,0.11-0.008h42.988v319.376 h-25.341v-2.489c0-0.014,0.002-0.026,0.002-0.04c0-20.964-17.055-38.02-38.02-38.02h-32.948l0.007-13.644 c11.045-5.26,20.838-12.737,28.8-21.851h44.687c4.2,0,7.604-3.404,7.604-7.604v-91.246c0-65.688-53.441-119.129-119.129-119.129 s-119.129,53.441-119.129,119.129v91.246c0,4.2,3.404,7.604,7.604,7.604h44.707c7.964,9.118,17.76,16.595,28.809,21.855v13.64 h-32.951c-20.964,0-38.02,17.055-38.02,38.02v2.529h-5.086v-12.667c0-20.964-17.055-38.02-38.02-38.02H197.7l0.007-16.836 c18.622-16.269,30.405-40.174,30.405-66.78V302.9c5.942-29.887,3.216-52.051-8.113-65.869 c-7.141-8.71-15.992-12.031-22.303-13.272v-33.654c0-4.2-3.404-7.604-7.604-7.604c-2.885,0-5.842-0.016-8.851-0.032 c-3.147-0.017-6.35-0.034-9.593-0.034c-36.683,0-77.868,2.321-102.333,30.034c-17.598,19.935-23.692,49.376-18.63,90.003v29.601 c0,26.612,11.788,50.522,30.417,66.792v16.824h-12.67c-20.964,0-38.02,17.055-38.02,38.02v12.667H15.208V240.791 c0-4.198-3.417-7.604-7.604-7.604c-4.198,0-7.604,3.406-7.604,7.604v233.188c0,1.997,0.811,3.964,2.231,5.373 c1.409,1.42,3.376,2.231,5.373,2.231h30.372c0.014,0,0.027,0.002,0.04,0.002s0.026-0.002,0.04-0.002h70.878 c0.018,0,0.036,0.004,0.054,0.004c0.028,0,0.056-0.004,0.084-0.004h60.659c0.028,0,0.056,0.004,0.084,0.004 c0.018,0,0.036-0.004,0.053-0.004h70.877c0.014,0,0.027,0.002,0.04,0.002s0.026-0.002,0.04-0.002h263.571 c1.997,0,3.964-0.811,5.373-2.231c1.42-1.409,2.231-3.376,2.231-5.373V139.405C512,137.397,511.189,135.441,509.769,134.021z M256,45.621c4.193,0,7.604,3.411,7.604,7.604s-3.411,7.604-7.604,7.604s-7.604-3.411-7.604-7.604S251.807,45.621,256,45.621z M119.129,131.801c-0.071,0-0.143,0-0.203,0h-24.69l144.303-63.919c4.188,4.981,10.46,8.154,17.461,8.154 c7.002,0,13.275-3.174,17.462-8.156l144.304,63.921H119.129z M80.718,222.533c20.275-22.967,57.568-24.89,90.932-24.89 c3.215,0,6.392,0.017,9.512,0.034c0.444,0.002,0.886,0.004,1.328,0.007v32.975c0,2.099,0.831,4.107,2.361,5.545 c1.53,1.438,3.549,2.174,5.644,2.049c0.697-0.036,10.719-0.149,17.745,8.422c5.19,6.331,7.78,16.046,7.722,28.642l-3.305-6.611 c-1.675-3.349-5.542-4.98-9.111-3.844c-0.451,0.144-45.475,14.403-71.495,14.403c-24.927,0-47.483-13.516-47.699-13.647 c-3.343-2.045-7.694-1.211-10.048,1.926l-10.037,13.383C63.653,255.214,69.162,235.624,80.718,222.533z M65.895,332.072v-27.971 l16.648-22.197c9.376,4.662,28.392,12.568,49.507,12.568c22.522,0,56.054-9.148,69.875-13.223l10.98,21.96v28.862 c0,40.516-32.974,73.477-73.505,73.477C98.869,405.55,65.895,372.588,65.895,332.072z M182.495,409.566l-0.004,9.655 l-23.352,15.57l-12.135-6.061v-8.301C159.796,419.338,171.82,415.522,182.495,409.566z M131.796,420.429v7.853l-16.446,6.578 l-19.039-15.224v-10.067C106.985,415.524,119.007,419.338,131.796,420.429z M45.62,466.375v-12.667 c0-12.578,10.234-22.812,22.812-22.812H83.56l14.192,35.479H45.62z M164.669,466.375h-50.536v0l-7.655-19.139l2.836,2.267 c0.067,0.053,0.143,0.089,0.211,0.141c0.215,0.159,0.435,0.307,0.663,0.443c0.138,0.082,0.274,0.162,0.415,0.235 c0.218,0.111,0.442,0.206,0.667,0.295c0.152,0.059,0.3,0.125,0.454,0.174c0.251,0.081,0.507,0.139,0.765,0.194 c0.129,0.028,0.254,0.066,0.383,0.087c0.392,0.062,0.79,0.099,1.192,0.099c0.265,0,0.531-0.018,0.798-0.046 c0.047-0.006,0.093-0.015,0.141-0.021c0.209-0.026,0.417-0.059,0.626-0.103c0.085-0.019,0.169-0.041,0.254-0.061 c0.163-0.041,0.327-0.085,0.489-0.138c0.106-0.034,0.211-0.07,0.316-0.109c0.065-0.024,0.133-0.042,0.198-0.068l22.17-8.867 l17.094,8.539c0.007,0.003,0.013,0.007,0.02,0.01l0.121,0.06c0.104,0.052,0.212,0.089,0.317,0.136 c0.151,0.067,0.3,0.139,0.455,0.195c0.182,0.067,0.367,0.119,0.552,0.171c0.098,0.028,0.194,0.062,0.293,0.086 c0.268,0.065,0.538,0.113,0.807,0.149c0.023,0.002,0.046,0.008,0.068,0.012c0.301,0.036,0.601,0.055,0.9,0.055 c0.357,0,0.712-0.027,1.063-0.076c0.152-0.022,0.303-0.064,0.454-0.095c0.196-0.04,0.392-0.073,0.584-0.128 c0.152-0.045,0.302-0.107,0.453-0.161c0.19-0.068,0.381-0.133,0.566-0.216c0.133-0.059,0.261-0.134,0.392-0.202 c0.199-0.104,0.396-0.209,0.585-0.33c0.041-0.027,0.085-0.044,0.126-0.071l10.032-6.689L164.669,466.375z M233.181,466.375 h-52.132l14.192-35.479h15.128c12.579,0,22.812,10.234,22.812,22.812V466.375z M258.534,375.125L258.534,375.125v-83.643 c0-57.302,46.619-103.921,103.921-103.921s103.921,46.619,103.921,103.921v83.642h-26.377 c7.117-12.756,11.179-27.438,11.179-43.052v-40.504c0-0.032,0-0.062,0-0.094c-0.005-22.181-8.192-42.485-21.701-58.053 c-0.31-0.434-0.662-0.828-1.047-1.178c-16.251-18.076-39.803-29.463-65.966-29.463c-48.917,0-88.713,39.796-88.713,88.713 c0,0.007,0.001,0.013,0.001,0.02v40.56c0,15.614,4.062,30.295,11.179,43.052H258.534z M421.069,247.187 c7.055,9.31,11.941,20.345,13.913,32.35l-43.985-18.839L421.069,247.187z M289,289.856c0.875-39.776,33.481-71.869,73.463-71.869 c18.114,0,34.707,6.599,47.534,17.503L289,289.856z M288.959,332.072v-25.526l83.186-37.377l63.824,27.337v35.566 c0,40.515-32.974,73.475-73.505,73.475S288.959,372.587,288.959,332.072z M294.03,466.376h-25.347v-2.529 c0-12.579,10.234-22.812,22.812-22.812h2.535V466.376z M415.688,466.377h-106.45v-25.341h22.812c4.2,0,7.604-3.404,7.604-7.604 V417.78c7.281,1.936,14.926,2.975,22.81,2.975c7.886,0,15.534-1.04,22.817-2.979l-0.007,15.651v0.001c0,0.001,0,0.002,0,0.002 c0,0.129,0.013,0.254,0.019,0.381c0.007,0.132,0.007,0.264,0.02,0.395c0.012,0.117,0.036,0.231,0.054,0.347 c0.02,0.137,0.035,0.275,0.062,0.408c0.024,0.117,0.058,0.23,0.088,0.345c0.033,0.129,0.059,0.258,0.099,0.384 c0.042,0.135,0.095,0.263,0.144,0.394c0.038,0.101,0.07,0.205,0.112,0.305c0.076,0.18,0.164,0.354,0.253,0.527 c0.023,0.044,0.042,0.092,0.065,0.137c1.051,1.937,2.92,3.365,5.142,3.824c0.003,0.001,0.006,0.002,0.01,0.003 c0.194,0.041,0.393,0.066,0.592,0.091c0.055,0.007,0.109,0.019,0.164,0.025c0.151,0.016,0.308,0.018,0.462,0.024 c0.105,0.004,0.208,0.016,0.314,0.016c0.001,0,0.002,0,0.003,0h22.811V466.377z M456.244,463.847v2.529h-25.347v-25.341h2.537 c12.569,0,22.797,10.219,22.811,22.786C456.245,463.829,456.244,463.838,456.244,463.847z"/></symbol><symbol id="love" viewBox="0 0 512 512"><title>love</title><g> <g> <path d="M317.185,113.705c-8.902-8.909-20.741-13.815-33.336-13.815c-10.155,0-19.817,3.189-27.843,9.095 c-8.034-5.906-17.701-9.095-27.857-9.095c-12.595,0-24.434,4.906-33.334,13.812c-18.378,18.375-18.379,48.283,0,66.672 l55.709,55.694c1.515,1.514,3.5,2.272,5.485,2.272c1.985,0,3.971-0.758,5.486-2.273l55.69-55.695 C335.557,161.985,335.557,132.078,317.185,113.705z M306.211,169.403l-50.203,50.208l-50.221-50.207 c-12.33-12.337-12.331-32.402,0.001-44.733c5.972-5.976,13.913-9.267,22.362-9.267c8.45,0,16.397,3.291,22.375,9.269 c1.454,1.455,3.428,2.272,5.485,2.272c0.001,0,0.002,0,0.002,0c2.06-0.001,4.033-0.819,5.487-2.276 c5.966-5.975,13.903-9.264,22.351-9.264c8.449,0,16.39,3.291,22.363,9.268C318.538,137.001,318.536,157.067,306.211,169.403z"/> </g> </g><g> <g> <path d="M493.898,455.112H418.91V49.131C418.91,22.04,396.87,0,369.78,0H59.473c-27.09,0-49.131,22.04-49.131,49.131 c0,4.285,3.473,7.757,7.757,7.757h310.305c4.284,0,7.757-3.473,7.757-7.757c0-18.536,15.08-33.616,33.616-33.616 s33.616,15.08,33.616,33.616V462.87c0,12.996,5.081,24.82,13.349,33.616H142.221c-18.536,0-33.616-15.08-33.616-33.616V80.163 c0-4.285-3.473-7.757-7.757-7.757c-4.284,0-7.757,3.473-7.757,7.757v382.706c0,27.09,22.04,49.131,49.131,49.131h310.305 c27.09,0,49.131-22.04,49.131-49.131C501.656,458.585,498.183,455.112,493.898,455.112z M321.267,41.373H26.771 c3.513-14.807,16.837-25.858,32.702-25.858h274.524C327.41,22.524,322.846,31.455,321.267,41.373z M452.526,496.485 c-15.865,0-29.189-11.051-32.702-25.858h65.404C481.715,485.434,468.391,496.485,452.526,496.485z"/> </g> </g><g> <g> <path d="M199.419,281.543c-3.029-3.028-7.941-3.028-10.971,0l-15.199,15.2l-4.856-4.858c-3.029-3.028-7.941-3.028-10.971,0 c-3.03,3.03-3.03,7.941,0,10.972l10.342,10.342c1.515,1.514,3.5,2.272,5.485,2.272s3.971-0.758,5.485-2.272l20.685-20.685 C202.449,289.484,202.449,284.573,199.419,281.543z"/> </g> </g><g> <g> <path d="M338.741,289.614H224.968c-4.284,0-7.757,3.473-7.757,7.757c0,4.285,3.473,7.757,7.757,7.757h113.772 c4.284,0,7.757-3.473,7.757-7.757C346.497,293.086,343.025,289.614,338.741,289.614z"/> </g> </g><g> <g> <path d="M199.419,343.6c-3.029-3.028-7.941-3.028-10.971,0l-15.199,15.2l-4.857-4.857c-3.029-3.028-7.941-3.028-10.971,0 c-3.029,3.03-3.029,7.941,0.001,10.971l10.342,10.342c1.515,1.514,3.5,2.272,5.485,2.272s3.971-0.758,5.485-2.272l20.685-20.684 C202.45,351.542,202.45,346.631,199.419,343.6z"/> </g> </g><g> <g> <path d="M287.02,351.672h-62.051c-4.284,0-7.757,3.473-7.757,7.757s3.472,7.757,7.757,7.757h62.051 c4.284,0,7.757-3.473,7.757-7.757S291.304,351.672,287.02,351.672z"/> </g> </g><g> <g> <path d="M199.419,405.657c-3.029-3.028-7.941-3.028-10.971,0l-15.199,15.2L168.393,416c-3.029-3.028-7.941-3.028-10.971,0 c-3.029,3.031-3.029,7.942,0.001,10.972l10.342,10.342c1.515,1.514,3.5,2.272,5.485,2.272s3.971-0.758,5.485-2.272l20.685-20.685 C202.45,413.599,202.45,408.688,199.419,405.657z"/> </g> </g><g> <g> <path d="M349.085,413.73H224.968c-4.284,0-7.757,3.473-7.757,7.757c-0.001,4.284,3.472,7.757,7.757,7.757h124.116 c4.284,0,7.757-3.473,7.757-7.757C356.841,417.202,353.369,413.73,349.085,413.73z"/> </g> </g></symbol><symbol id="travel" viewBox="0 0 512 512"><title>travel</title><g> <g> <path d="M512,138.34C512,62.06,452.061,0.003,378.385,0.003c-33.685,0-65.194,12.667-89.799,35.888 c-24.605-23.222-56.115-35.888-89.799-35.888c-24.282,0-48.061,6.813-68.765,19.703c-4.688,2.919-6.123,9.085-3.204,13.774 c2.918,4.688,9.085,6.124,13.774,3.204c17.53-10.913,37.653-16.681,58.195-16.681c31.463,0,60.729,13.099,82.408,36.884 c1.895,2.079,4.578,3.264,7.391,3.264c2.813,0,5.496-1.185,7.391-3.264c21.679-23.785,50.945-36.884,82.408-36.884 C441.033,20.003,492,73.088,492,138.34c0,35.705-20.957,77.944-62.286,125.545c-35.713,41.132-79.139,77.394-109.281,100.571 c-1.226,0.943-2.461,1.873-3.693,2.811l-21.577-81.843l38.494-38.494c23.659-23.659,35.16-57.585,30.767-90.755 c-0.594-4.48-4.12-8.007-8.601-8.601c-33.171-4.391-67.096,7.108-90.755,30.767l-38.493,38.494L65.166,174.281 c-3.44-0.908-7.104,0.083-9.621,2.598l-28.165,28.165c-2.308,2.308-3.344,5.596-2.777,8.81c0.567,3.214,2.667,5.948,5.625,7.326 l130.991,61.007l-70.347,70.347l-47.369,2.508c-2.466,0.131-4.796,1.169-6.542,2.915L2.934,391.986 c-2.452,2.452-3.458,5.998-2.661,9.372c0.797,3.374,3.286,6.094,6.576,7.188l72.494,24.108l24.113,72.499 c1.094,3.289,3.814,5.777,7.188,6.575c0.763,0.181,1.535,0.269,2.301,0.269c2.621,0,5.174-1.032,7.071-2.929l34.03-34.03 c1.746-1.747,2.785-4.077,2.915-6.544l2.503-47.372l70.346-70.347l61.007,130.991c1.378,2.959,4.112,5.059,7.326,5.626 c3.213,0.568,6.502-0.469,8.81-2.776l28.165-28.165c2.517-2.516,3.506-6.179,2.599-9.62l-15.467-58.668 c3.458-2.585,6.927-5.201,10.374-7.852C399.615,328.797,512,228.862,512,138.34z M302.915,460.37L241.908,329.38 c-1.378-2.959-4.112-5.059-7.326-5.626c-3.213-0.567-6.502,0.469-8.81,2.776l-81.846,81.847c-2.419,1.71-4.052,4.472-4.22,7.644 l-2.515,47.589l-19.868,19.868L96.74,421.59c-0.995-2.991-3.342-5.338-6.333-6.333l-61.881-20.579l19.867-19.867l47.585-2.52 c3.17-0.168,5.931-1.8,7.641-4.219l81.848-81.847c2.308-2.308,3.344-5.597,2.776-8.81c-0.567-3.214-2.667-5.949-5.625-7.327 L51.626,209.082l13.998-13.998l161.408,42.553c3.439,0.906,7.104-0.083,9.621-2.598l42.557-42.557 c17.407-17.408,41.622-26.751,66.067-25.763c0.978,24.435-8.356,48.662-25.763,66.067l-42.557,42.557 c-2.516,2.517-3.505,6.18-2.598,9.62l42.553,161.408L302.915,460.37z"/> </g> </g><g> <g> <path d="M170.351,83.269c-11.043-21.357-33.408-35.268-57.731-35.268c-24.323,0-46.688,13.912-57.73,35.268 C24.481,84.113,0,109.238,0,140.001c0,5.523,4.477,10,10,10h205.241c5.523,0,10-4.477,10-10 C225.241,109.238,200.761,84.113,170.351,83.269z M21.371,130.002c4.332-15.423,18.425-26.754,35.095-26.754 c1.204,0,2.477,0.067,3.784,0.199c4.508,0.45,8.742-2.168,10.35-6.395c6.609-17.376,23.496-29.05,42.021-29.05 c18.526,0,35.413,11.674,42.021,29.05c1.608,4.227,5.851,6.842,10.35,6.395c1.306-0.132,2.579-0.199,3.781-0.199 c16.671,0,30.766,11.332,35.098,26.754H21.371z"/> </g> </g><g> <g> <path d="M476.507,443.134c-9.516-16.063-26.885-26.136-45.86-26.136c-19.489,0-37.048,10.519-46.373,27.001 c-3.046-0.732-6.18-1.108-9.332-1.108c-22.007,0-39.911,17.904-39.911,39.911c0,9.354,3.308,18.452,9.313,25.619 c1.9,2.268,4.707,3.577,7.665,3.577h143.012c2.958,0,5.765-1.31,7.665-3.577c6.005-7.167,9.313-16.265,9.313-25.619 C512,462.287,496.443,445.338,476.507,443.134z M489.76,491.997H357.273c-1.475-2.811-2.24-5.928-2.24-9.196 c0-10.979,8.932-19.911,19.911-19.911c3.398,0,6.755,0.874,9.707,2.527c2.603,1.46,5.723,1.678,8.506,0.599 c2.783-1.08,4.938-3.347,5.875-6.181c4.52-13.66,17.225-22.838,31.616-22.838c13.226,0,25.204,7.835,30.516,19.962 c1.679,3.832,5.563,6.201,9.743,5.971c0.392-0.023,0.787-0.04,1.185-0.04c10.979,0,19.911,8.932,19.911,19.911 C492,486.07,491.234,489.187,489.76,491.997z"/> </g> </g><g> <g> <path d="M211.573,300.429c-1.86-1.86-4.44-2.93-7.07-2.93c-2.63,0-5.21,1.069-7.07,2.93c-1.86,1.86-2.93,4.44-2.93,7.07 c0,2.63,1.07,5.21,2.93,7.069c1.86,1.86,4.44,2.931,7.07,2.931c2.63,0,5.21-1.07,7.07-2.931c1.86-1.859,2.93-4.439,2.93-7.069 C214.503,304.869,213.433,302.289,211.573,300.429z"/> </g> </g><g> <g> <path d="M188.074,323.928c-3.905-3.904-10.237-3.904-14.142,0l-52.631,52.631c-3.905,3.905-3.905,10.237,0,14.143 c1.953,1.952,4.512,2.929,7.071,2.929c2.559,0,5.119-0.977,7.071-2.929l52.631-52.631 C191.979,334.166,191.979,327.834,188.074,323.928z"/> </g> </g><g> <g> <path d="M361.329,43.665c-6.341-0.078-10.197,4.959-10.27,9.851c-0.073,4.892,3.637,10.026,9.971,10.151 c0.067,0.001,0.133,0.002,0.199,0.002c6.336,0,10.147-5.06,10.171-9.952C371.424,48.825,367.664,43.728,361.329,43.665z"/> </g> </g><g> <g> <path d="M407.054,55.183c-4.868-2.609-10.929-0.779-13.539,4.088c-2.609,4.868-0.779,10.929,4.088,13.539 c26.724,14.327,43.326,42.676,43.326,73.983c0,5.523,4.477,10,10,10s10-4.477,10-10 C460.929,108.102,440.285,72.999,407.054,55.183z"/> </g> </g></symbol><symbol id="balloon" viewBox="0 0 512 512"><title>balloon</title><path d="M86.295,95.844c-0.02-0.38-0.029-0.735-0.029-1.062c0-5.545-4.495-10.039-10.039-10.039 c-5.545,0-10.039,4.495-10.039,10.039c0,0.656,0.017,1.365,0.058,2.127c0.285,5.355,4.716,9.507,10.016,9.507 c0.18,0,0.36-0.005,0.542-0.015C82.34,106.108,86.59,101.381,86.295,95.844z"/><path d="M152.252,183.477c-24.665-21.087-42.869-40.694-54.106-58.275c-2.987-4.672-9.193-6.039-13.866-3.052 c-4.671,2.986-6.039,9.194-3.052,13.866c12.301,19.246,31.808,40.35,57.976,62.722c1.891,1.617,4.21,2.408,6.518,2.408 c2.833,0,5.65-1.193,7.636-3.516C156.962,193.417,156.466,187.08,152.252,183.477z"/><path d="M410.977,89.258c-9.537,0-18.695,1.798-27.138,5.08C383.597,42.279,341.176,0,289.061,0 c-36.269,0-68.234,20.51-84.123,51.078C189.048,20.51,157.082,0,120.813,0C68.55,0,26.03,42.52,26.03,94.783 c0,85.629,138.917,175.586,168.533,193.788c-0.125,8.481,0.844,24.158,7.584,43.517c5.423,15.577,15.408,35.579,33.736,56.605 c-15.644,3.627-27.342,17.668-27.342,34.398c0,19.474,15.844,35.318,35.318,35.318c2.948,0,6.303-0.705,9.863-1.886 l-28.461,39.577c-3.238,4.502-2.213,10.774,2.289,14.012c1.774,1.276,3.823,1.889,5.853,1.889c3.121,0,6.197-1.452,8.159-4.179 l48.811-67.873l48.811,67.873c1.962,2.728,5.038,4.179,8.159,4.179c2.03,0,4.079-0.614,5.853-1.889 c4.502-3.238,5.527-9.51,2.289-14.012l-28.461-39.577c3.56,1.182,6.914,1.886,9.863,1.886c19.474,0,35.318-15.844,35.318-35.318 c0-19.387-15.702-35.17-35.057-35.312c7.777-12.956,12.403-25.578,15.149-36.136c4.21-16.19,4.726-29.903,4.562-37.599 c10.604-6.595,35.577-22.825,60.869-44.355c45.284-38.551,68.245-74.025,68.245-105.438 C485.971,122.9,452.329,89.258,410.977,89.258z M126.797,214.547C74.01,169.561,46.109,128.147,46.109,94.783 c0-41.193,33.513-74.705,74.705-74.705c37.821,0,69.7,28.285,74.156,65.795c0.6,5.051,4.883,8.856,9.969,8.856 s9.37-3.805,9.969-8.856c4.454-37.509,36.335-65.795,74.155-65.795c41.192,0,74.705,33.512,74.705,74.705 c0,3.951-0.396,8.017-1.175,12.188c-6.347,5.361-11.806,11.759-16.094,18.965c-13.152-22.107-37.287-36.677-64.481-36.677 c-41.351,0-74.994,33.642-74.994,74.994c0,24.003,13.423,50.381,39.952,78.687c-18.635,13.606-34.343,23.647-42.038,28.416 C192.561,263.688,159.47,242.39,126.797,214.547z M243.86,438.33c-8.404,0-15.24-6.837-15.24-15.24 c0-8.404,6.837-15.24,15.24-15.24c4.787,0,17.357,6.968,29.451,15.24C261.216,431.362,248.646,438.33,243.86,438.33z M290.238,410.436c-1.17-0.851-2.432-1.756-3.77-2.693c-31.912-23.478-54.267-51.335-64.945-81.089 c-6.175-17.203-6.968-30.936-6.884-37.673c8.154-4.992,25.816-16.169,46.794-31.635c4.358,4.079,8.959,8.192,13.836,12.343 c25.818,21.979,51.299,38.432,61.507,44.753c0.133,6.348-0.277,18.535-4.115,32.914 C325.821,372.982,311.55,394.165,290.238,410.436z M352.123,423.091c0,8.403-6.837,15.24-15.24,15.24 c-4.788,0-17.36-6.969-29.455-15.243c12.087-8.269,24.656-15.237,29.455-15.237C345.287,407.851,352.123,414.687,352.123,423.091 z M346.494,296.882c-37.568-23.104-119.393-83.642-119.393-132.63c0-30.28,24.635-54.915,54.915-54.915 c27.802,0,51.237,20.791,54.511,48.363c0.6,5.051,4.882,8.856,9.969,8.856s9.37-3.805,9.969-8.856 c3.275-27.571,26.708-48.363,54.511-48.363c30.28,0,54.915,24.635,54.915,54.915 C465.892,213.186,384.058,273.761,346.494,296.882z"/><path d="M419.672,197.176c-4.141-3.688-10.486-3.324-14.174,0.816c-7.351,8.248-16.374,16.94-26.818,25.831 c-5.159,4.392-10.686,8.85-16.426,13.251c-4.4,3.373-5.232,9.675-1.86,14.076c1.977,2.578,4.958,3.932,7.975,3.932 c2.131,0,4.279-0.676,6.101-2.072c6.011-4.608,11.807-9.284,17.226-13.897c11.144-9.487,20.831-18.827,28.792-27.76 C424.177,207.211,423.811,200.865,419.672,197.176z"/><path d="M435.775,154.212c-5.545,0-10.039,4.495-10.039,10.039c0,0.154-0.006,0.313-0.018,0.478 c-0.379,5.532,3.798,10.323,9.328,10.703c0.234,0.016,0.466,0.024,0.697,0.024c5.231,0,9.642-4.056,10.005-9.354 c0.043-0.636,0.064-1.254,0.064-1.85C445.814,158.707,441.32,154.212,435.775,154.212z"/></symbol><symbol id="wedding-day" viewBox="0 0 512 512"><title>wedding-day</title><g> <g> <path d="M479.057,425.821c-4.199,0-7.604,3.405-7.604,7.604v63.367H40.549v-15.211h357.384c0.254,0,0.508-0.013,0.759-0.039 c0.192-0.019,0.38-0.052,0.569-0.085c0.057-0.01,0.114-0.015,0.17-0.025c0.221-0.045,0.438-0.101,0.652-0.164 c0.022-0.006,0.046-0.01,0.068-0.017c0.219-0.067,0.433-0.146,0.644-0.231c0.018-0.007,0.037-0.012,0.056-0.02 c0.204-0.084,0.401-0.18,0.595-0.282c0.025-0.013,0.053-0.024,0.078-0.037c0.182-0.098,0.359-0.207,0.531-0.318 c0.036-0.023,0.073-0.043,0.109-0.066c0.169-0.114,0.331-0.236,0.489-0.363c0.036-0.028,0.075-0.053,0.109-0.082 c0.192-0.158,0.376-0.324,0.552-0.501l0.001-0.001l80.095-80.254c1.963-1.375,3.249-3.65,3.249-6.228 c0-0.028-0.004-0.057-0.004-0.086c0-0.029,0.004-0.058,0.004-0.087V149.528V78.57c0.001-20.965-17.054-38.02-38.019-38.02h-32.958 V22.812C415.683,10.233,405.451,0,392.872,0S370.06,10.233,370.06,22.812V40.55h-45.626V22.812 C324.434,10.233,314.201,0,301.622,0S278.81,10.233,278.81,22.812V40.55h-45.626V22.812C233.185,10.233,222.952,0,210.373,0 c-12.579,0-22.812,10.233-22.812,22.812V40.55h-45.626V22.812C141.935,10.233,131.702,0,119.123,0 c-12.579,0-22.812,10.233-22.812,22.812V40.55H63.359c-20.965,0-38.02,17.055-38.02,38.02v70.958c0,0.013,0.002,0.026,0.002,0.039 v324.41v30.419c0,4.199,3.405,7.604,7.604,7.604h446.111c4.199,0,7.604-3.405,7.604-7.604v-70.971 C486.661,429.225,483.256,425.821,479.057,425.821z M405.538,455.595v-55.124h55.014L405.538,455.595z M385.268,48.272 c0-0.039,0.006-0.078,0.006-0.118c0-0.039-0.005-0.078-0.006-0.118V22.812c0-4.193,3.411-7.604,7.604-7.604 s7.604,3.411,7.604,7.604v50.69c0,4.193-3.411,7.604-7.604,7.604s-7.604-3.411-7.604-7.604V48.272z M294.018,48.213 c0-0.02,0.003-0.04,0.003-0.059c0-0.019-0.003-0.04-0.003-0.059V22.812c0-4.193,3.411-7.604,7.604-7.604s7.604,3.411,7.604,7.604 v50.69c0,4.193-3.411,7.604-7.604,7.604s-7.604-3.411-7.604-7.604V48.213z M202.769,22.812c0-4.193,3.411-7.604,7.604-7.604 c4.193,0,7.604,3.411,7.604,7.604v50.69c0,4.193-3.411,7.604-7.604,7.604c-4.193,0-7.604-3.411-7.604-7.604V22.812z M111.519,48.175c0-0.007,0.001-0.013,0.001-0.02c0-0.006-0.001-0.013-0.001-0.02V22.812c0-4.193,3.411-7.604,7.604-7.604 s7.604,3.411,7.604,7.604v50.69c0,4.193-3.411,7.604-7.604,7.604s-7.604-3.411-7.604-7.604V48.175z M40.547,78.57 c0-12.579,10.233-22.812,22.812-22.812h32.952v17.744c0,12.579,10.233,22.812,22.812,22.812c12.579,0,22.812-10.233,22.812-22.812 V55.758h45.626v17.744c0,12.579,10.233,22.812,22.812,22.812c12.579,0,22.812-10.233,22.812-22.812V55.758h45.626v17.744 c0,12.579,10.233,22.812,22.812,22.812s22.812-10.233,22.812-22.812V55.758h45.626v17.744c0,12.579,10.233,22.812,22.812,22.812 s22.812-10.233,22.812-22.812V55.758h32.958c12.579,0,22.812,10.233,22.812,22.812v63.354H63.362 c-4.199,0-7.604,3.405-7.604,7.604c0,4.199,3.405,7.604,7.604,7.604h408.091v228.13h-73.519c-4.199,0-7.604,3.405-7.604,7.604 v73.506H40.549V149.528c0-0.013-0.002-0.026-0.002-0.039V78.57z"/> </g> </g><g> <g> <path d="M357.966,223.861c-14.336-14.337-33.397-22.232-53.671-22.232c-17.834,0-34.729,6.108-48.295,17.337 c-13.566-11.229-30.46-17.337-48.294-17.337c-20.274,0-39.335,7.896-53.672,22.232c-14.336,14.336-22.232,33.397-22.232,53.671 c0,20.274,7.895,39.336,22.232,53.672l96.589,96.589c1.425,1.427,3.36,2.227,5.376,2.227c2.017,0,3.951-0.801,5.377-2.227 l96.589-96.589c14.337-14.336,22.232-33.397,22.232-53.672S372.302,238.196,357.966,223.861z M347.213,320.45l-91.212,91.213 L164.79,320.45c-11.464-11.464-17.777-26.705-17.777-42.918c-0.001-16.212,6.312-31.453,17.776-42.917 c11.464-11.465,26.705-17.778,42.918-17.778c16.213,0,31.454,6.313,42.918,17.778c1.425,1.427,3.36,2.227,5.376,2.227 c2.017,0,3.951-0.801,5.377-2.227c11.465-11.464,26.706-17.778,42.919-17.778c16.212,0,31.453,6.313,42.918,17.778 c11.465,11.463,17.778,26.704,17.778,42.917C364.991,293.744,358.678,308.986,347.213,320.45z"/> </g> </g></symbol><symbol id="wedding-couple" viewBox="0 0 512 512"><title>wedding-couple</title><g> <g> <path d="M349.266,240.398c-4.148,0-7.51,3.363-7.51,7.51v8.676c0,4.148,3.363,7.51,7.51,7.51c4.147,0,7.51-3.363,7.51-7.51v-8.676 C356.776,243.76,353.414,240.398,349.266,240.398z"/> </g> </g><g> <g> <path d="M407.841,240.398c-4.147,0-7.51,3.363-7.51,7.51v8.676c0,4.147,3.362,7.51,7.51,7.51s7.51-3.363,7.51-7.51v-8.676 C415.351,243.76,411.988,240.398,407.841,240.398z"/> </g> </g><g> <g> <path d="M399.082,283.635c-3.367-2.422-8.06-1.657-10.483,1.71c-1.475,2.05-5.154,4.118-10.046,4.118 c-4.892,0-8.571-2.068-10.046-4.118c-2.423-3.367-7.116-4.132-10.483-1.71c-3.367,2.423-4.133,7.116-1.71,10.483 c4.671,6.491,12.985,10.366,22.239,10.366c9.255,0,17.568-3.875,22.239-10.366C403.215,290.751,402.449,286.058,399.082,283.635z"/> </g> </g><g> <g> <path d="M108.99,251.769c-4.148,0-7.51,3.363-7.51,7.51v8.4c0,4.148,3.363,7.51,7.51,7.51c4.147,0,7.51-3.362,7.51-7.51v-8.4 C116.5,255.131,113.137,251.769,108.99,251.769z"/> </g> </g><g> <g> <path d="M157.361,293.677c-3.367-2.422-8.06-1.657-10.482,1.71c-1.393,1.935-4.88,3.888-9.533,3.888s-8.14-1.953-9.533-3.888 c-2.423-3.367-7.117-4.132-10.483-1.71c-3.367,2.423-4.132,7.116-1.71,10.483c4.567,6.347,12.688,10.135,21.725,10.135 c9.037,0,17.159-3.789,21.726-10.135C161.493,300.794,160.728,296.1,157.361,293.677z"/> </g> </g><g> <g> <path d="M295.476,404.379c-4.148,0-7.51,3.363-7.51,7.51v14.649c0,4.148,3.362,7.51,7.51,7.51s7.51-3.363,7.51-7.51v-14.649 C302.987,407.741,299.624,404.379,295.476,404.379z"/> </g> </g><g> <g> <path d="M288.684,13.061c-12.258,0-23.798,4.475-32.719,12.498c-8.921-8.023-20.461-12.498-32.719-12.498 c-27.037,0-49.033,21.996-49.033,49.033c-0.001,23.803,13.884,46.696,40.152,66.204c19.146,14.219,38.066,21.7,38.862,22.011 c0.88,0.344,1.808,0.516,2.737,0.516c0.929,0,1.857-0.172,2.737-0.516c0.796-0.311,19.715-7.792,38.862-22.011 c26.269-19.509,40.154-42.401,40.154-66.204C337.717,35.057,315.721,13.061,288.684,13.061z M255.963,135.156 c-12.889-5.708-66.731-32.018-66.731-73.061c0-18.755,15.258-34.013,34.013-34.013c10.533,0,20.303,4.765,26.804,13.073 c1.423,1.819,3.605,2.882,5.914,2.882c2.309,0,4.491-1.063,5.914-2.882c6.502-8.308,16.272-13.073,26.804-13.073 c18.755,0,34.013,15.258,34.013,34.013C322.694,103.144,268.84,129.455,255.963,135.156z"/> </g> </g><g> <g> <path d="M468.421,346.269l-47.475-13.979c-0.225-0.068-0.455-0.127-0.689-0.175l-7.449-1.497 c-1.771-0.356-3.057-1.926-3.057-3.733v-3.583c19.497-8.891,34.579-25.829,40.949-46.558h5.741c10.129,0,18.37-8.241,18.37-18.37 V246.34c0-5.418-2.406-10.478-6.397-13.916v-13.246c0-43.173-35.124-78.297-78.297-78.297H366.99 c-43.173,0-78.297,35.124-78.297,78.297v13.246c-3.991,3.438-6.397,8.498-6.397,13.916v12.034c0,10.129,8.241,18.37,18.37,18.37 h5.741c6.224,20.252,20.753,36.9,39.6,45.947v4.465c0,1.807-1.286,3.378-3.057,3.734l-5.984,1.203 c-0.005,0.001-0.01,0.002-0.016,0.003l-0.1,0.02c-0.235,0.047-0.465,0.107-0.691,0.175l-47.473,13.978 c-16.535,4.868-29.847,16.554-37.23,31.402c-3.198-5.079-7.189-9.644-11.826-13.491l18.299-5.795 c10.481-3.319,17.357-13.314,16.723-24.304c-1.128-19.541-5.882-59.123-25.047-104.665c-23.81-56.579-57.938-78.25-83.323-86.366 c-6.483-8.985-17.033-14.849-28.934-14.849s-22.452,5.864-28.935,14.849c-25.385,8.117-59.513,29.788-83.323,86.366 C5.923,274.958,1.169,314.54,0.041,334.08c-0.635,10.99,6.242,20.985,16.723,24.304l18.298,5.795 c-12.641,10.487-20.497,26.304-20.497,43.344v83.905c0,4.148,3.363,7.51,7.51,7.51l482.415-0.049c4.148,0,7.51-3.362,7.51-7.51 v-86.85C512,377.781,494.079,353.823,468.421,346.269z M235.759,235.242c18.293,43.47,22.824,81.127,23.896,99.704 c0.238,4.126-2.337,7.876-6.262,9.119l-31.828,10.08c-0.593-0.197-1.188-0.383-1.783-0.558l-43.497-12.809 c-0.211-0.063-0.425-0.115-0.642-0.159l-6.818-1.371c-1.326-0.266-2.288-1.441-2.288-2.793v-3.446 c0.289-0.126,0.567-0.271,0.854-0.401c0.786-0.355,1.567-0.715,2.338-1.097c0.381-0.189,0.757-0.386,1.134-0.582 c0.776-0.401,1.544-0.811,2.304-1.238c0.328-0.185,0.653-0.373,0.978-0.563c0.827-0.482,1.644-0.981,2.45-1.494 c0.235-0.15,0.47-0.298,0.702-0.451c0.94-0.613,1.864-1.248,2.773-1.903c0.089-0.064,0.18-0.126,0.269-0.191 c12.672-9.21,22.301-22.363,27.04-37.655h5.537c9.938,0,18.024-8.086,18.024-18.024v-11.651c0-0.553-0.034-1.098-0.083-1.638 c-0.012-0.131-0.025-0.261-0.039-0.391c-0.06-0.532-0.136-1.06-0.241-1.578c-0.007-0.034-0.017-0.067-0.024-0.1 c-0.103-0.491-0.231-0.973-0.373-1.449c-0.036-0.12-0.072-0.24-0.11-0.359c-0.159-0.495-0.334-0.982-0.534-1.457 c-0.022-0.052-0.047-0.101-0.069-0.153c-0.188-0.434-0.394-0.857-0.614-1.273c-0.056-0.106-0.111-0.212-0.17-0.317 c-0.248-0.447-0.511-0.884-0.794-1.306c-0.041-0.061-0.085-0.118-0.127-0.178c-0.259-0.375-0.532-0.739-0.818-1.093 c-0.072-0.089-0.142-0.179-0.216-0.267c-0.326-0.389-0.665-0.765-1.022-1.124c-0.06-0.061-0.124-0.118-0.185-0.178 c-0.32-0.313-0.651-0.614-0.993-0.903c-0.083-0.07-0.164-0.141-0.248-0.21c-0.393-0.32-0.799-0.625-1.219-0.912 c-0.079-0.054-0.161-0.104-0.24-0.156c-0.192-0.127-0.382-0.257-0.579-0.377c-0.002-1.247-0.041-2.488-0.098-3.727 c-0.02-0.45-0.049-0.896-0.076-1.344c-0.048-0.771-0.107-1.539-0.176-2.306c-0.052-0.59-0.101-1.181-0.165-1.767 c-0.023-0.203-0.053-0.405-0.077-0.608c-2.496-21.446-13.01-40.467-28.464-53.996c-0.001-0.001-0.002-0.001-0.002-0.002 c-1.44-1.261-2.918-2.479-4.441-3.641c-0.073-0.056-0.144-0.115-0.218-0.171c-0.467-0.354-0.944-0.696-1.419-1.04 c-0.558-0.406-1.119-0.808-1.687-1.201c-0.387-0.267-0.774-0.532-1.165-0.792c-0.84-0.56-1.69-1.106-2.552-1.638 c-0.153-0.094-0.302-0.193-0.455-0.286c-1.085-0.659-2.189-1.292-3.307-1.904c-0.172-0.094-0.346-0.183-0.518-0.276 c-0.961-0.517-1.933-1.015-2.917-1.496c-0.229-0.112-0.458-0.224-0.688-0.334c-0.279-0.133-0.553-0.275-0.834-0.406 c0.022-0.513,0.034-1.026,0.034-1.538c0-0.661-0.021-1.317-0.057-1.97c-0.002-0.031-0.001-0.062-0.003-0.093 C193.436,171.52,217.609,192.112,235.759,235.242z M165.702,275.189c4.148,0,7.51-3.363,7.51-7.51v-8.4 c0-1.7-0.572-3.263-1.524-4.522h23.938v11.018c0,1.039-0.029,2.079-0.086,3.121c-0.004,0.068-0.012,0.135-0.015,0.203 c-0.057,0.984-0.135,1.968-0.242,2.952c-0.003,0.024-0.006,0.047-0.009,0.071c-0.112,1.016-0.25,2.031-0.415,3.043 c-0.008,0.051-0.019,0.101-0.027,0.152c-0.159,0.958-0.342,1.913-0.548,2.865c-0.091,0.416-0.188,0.83-0.288,1.244 c-0.142,0.589-0.293,1.175-0.453,1.758c-0.11,0.402-0.223,0.803-0.342,1.202c-0.12,0.401-0.24,0.802-0.368,1.199 c-0.139,0.433-0.288,0.861-0.437,1.289c-0.222,0.636-0.453,1.268-0.697,1.894c-0.101,0.261-0.203,0.521-0.308,0.78 c-0.645,1.591-1.357,3.152-2.137,4.674c-0.021,0.04-0.041,0.081-0.062,0.121c-3.912,7.586-9.463,14.252-16.192,19.485 c-0.071,0.055-0.141,0.112-0.212,0.166c-0.411,0.317-0.828,0.627-1.248,0.933c-0.234,0.17-0.471,0.337-0.707,0.503 c-0.55,0.389-1.108,0.768-1.672,1.138c-0.387,0.253-0.774,0.505-1.167,0.749c-0.3,0.187-0.603,0.37-0.907,0.552 c-0.533,0.317-1.07,0.628-1.613,0.929c-0.22,0.122-0.44,0.243-0.661,0.363c-0.62,0.333-1.247,0.654-1.88,0.964 c-0.223,0.11-0.448,0.218-0.673,0.325c-0.726,0.345-1.458,0.681-2.2,0.996c-0.085,0.036-0.171,0.069-0.257,0.104 c-0.676,0.283-1.36,0.551-2.048,0.809c-0.254,0.095-0.509,0.189-0.765,0.281c-0.457,0.164-0.919,0.315-1.381,0.468 c-0.419,0.138-0.837,0.281-1.258,0.41c-0.429,0.131-0.864,0.248-1.297,0.369c-0.733,0.205-1.47,0.397-2.21,0.573 c-0.495,0.118-0.988,0.239-1.487,0.344c-0.403,0.085-0.808,0.155-1.213,0.232c-0.487,0.092-0.973,0.183-1.464,0.262 c-0.396,0.064-0.793,0.12-1.19,0.176c-0.519,0.073-1.041,0.14-1.564,0.199c-0.372,0.042-0.744,0.082-1.117,0.117 c-0.59,0.055-1.184,0.098-1.78,0.136c-0.312,0.02-0.623,0.044-0.936,0.059c-0.911,0.043-1.826,0.07-2.748,0.07 c-0.947,0-1.889-0.027-2.825-0.072c-0.286-0.014-0.571-0.039-0.856-0.057c-0.656-0.041-1.312-0.087-1.962-0.15 c-0.318-0.031-0.635-0.07-0.952-0.106c-0.622-0.07-1.241-0.147-1.857-0.237c-0.311-0.045-0.621-0.095-0.931-0.145 c-0.628-0.102-1.254-0.214-1.875-0.336c-0.284-0.056-0.568-0.112-0.851-0.172c-0.66-0.14-1.315-0.293-1.966-0.455 c-0.238-0.059-0.476-0.116-0.713-0.178c-0.735-0.193-1.463-0.402-2.186-0.622c-0.146-0.045-0.294-0.085-0.44-0.131 c-3.559-1.117-6.971-2.567-10.201-4.313c-0.103-0.056-0.205-0.112-0.307-0.168c-0.722-0.396-1.435-0.806-2.137-1.23 c-0.177-0.108-0.351-0.22-0.527-0.329c-0.478-0.296-0.95-0.601-1.419-0.911c-0.366-0.243-0.731-0.487-1.091-0.738 c-0.131-0.09-0.259-0.185-0.389-0.276c-9.247-6.55-16.521-15.732-20.718-26.288c-0.027-0.069-0.055-0.138-0.082-0.207 c-0.371-0.944-0.714-1.901-1.035-2.865c-0.054-0.163-0.113-0.324-0.165-0.488c-0.135-0.42-0.261-0.843-0.387-1.266 c-0.113-0.382-0.222-0.767-0.328-1.153c-0.145-0.527-0.283-1.056-0.412-1.588c-0.114-0.467-0.223-0.935-0.325-1.407 c-0.202-0.933-0.381-1.87-0.538-2.81c-0.011-0.069-0.026-0.137-0.037-0.206c-0.162-0.994-0.297-1.991-0.407-2.988 c-0.004-0.041-0.011-0.081-0.016-0.122c-0.105-0.969-0.182-1.939-0.238-2.909c-0.005-0.081-0.014-0.16-0.018-0.241 c-0.056-1.04-0.085-2.08-0.085-3.118V253.7c0.07-0.029,0.136-0.066,0.205-0.095c0.276-0.118,0.547-0.244,0.814-0.379 c0.107-0.054,0.214-0.106,0.319-0.162c0.357-0.191,0.707-0.393,1.046-0.614c0.006-0.004,0.011-0.008,0.017-0.012 c0.333-0.218,0.653-0.453,0.967-0.698c0.094-0.073,0.185-0.15,0.277-0.226c0.233-0.192,0.46-0.391,0.68-0.597 c0.086-0.081,0.173-0.16,0.258-0.243c0.58-0.57,1.113-1.192,1.591-1.862c0.07-0.098,0.135-0.198,0.203-0.297 c0.172-0.254,0.336-0.514,0.492-0.781c0.061-0.105,0.124-0.208,0.183-0.315c0.201-0.365,0.393-0.737,0.563-1.123 c0.157-0.356,0.287-0.724,0.387-1.101l5.537-20.785c0.329-1.235,1.254-1.695,1.776-1.859c0.525-0.164,1.55-0.317,2.532,0.511 c26.874,22.697,48.353,29.851,63.066,31.358c-1.112,1.31-1.787,3.003-1.787,4.856v8.4 C158.192,271.827,161.555,275.189,165.702,275.189z M210.343,272.416c0.042-0.454,0.061-0.908,0.094-1.363 c0.042-0.591,0.094-1.179,0.122-1.774c0.057-1.169,0.089-2.338,0.089-3.504v-11.018h0.294h1.973c1.656,0,3.004,1.348,3.004,3.004 v11.651c0,1.656-1.348,3.004-3.004,3.004H210.343z M117.091,159.879c0.104-0.529,0.225-1.051,0.369-1.564 c0.028-0.102,0.065-0.202,0.095-0.304c0.128-0.43,0.267-0.855,0.421-1.273c0.053-0.143,0.109-0.284,0.165-0.426 c0.159-0.402,0.329-0.798,0.512-1.188c0.048-0.104,0.095-0.208,0.145-0.311c3.361-6.857,10.411-11.593,18.549-11.593 c8.137,0,15.185,4.734,18.547,11.59c0.052,0.105,0.099,0.212,0.149,0.318c0.182,0.387,0.35,0.781,0.508,1.18 c0.056,0.143,0.114,0.286,0.167,0.431c0.154,0.416,0.292,0.839,0.419,1.267c0.031,0.103,0.067,0.204,0.096,0.308 c0.143,0.513,0.265,1.035,0.368,1.563c0.009,0.045,0.014,0.09,0.023,0.135c-0.966-0.238-1.936-0.453-2.909-0.656 c-0.251-0.052-0.503-0.1-0.755-0.15c-1.16-0.231-2.323-0.443-3.492-0.625c-0.091-0.014-0.181-0.032-0.273-0.046 c-1.248-0.19-2.502-0.344-3.759-0.479c-0.246-0.026-0.491-0.054-0.737-0.078c-1.24-0.122-2.483-0.217-3.73-0.285 c-0.225-0.012-0.45-0.02-0.675-0.03c-1.312-0.06-2.627-0.1-3.947-0.1s-2.634,0.04-3.947,0.1c-0.225,0.01-0.451,0.018-0.676,0.03 c-1.247,0.067-2.491,0.163-3.73,0.285c-0.247,0.024-0.492,0.052-0.738,0.078c-1.257,0.134-2.51,0.288-3.758,0.479 c-0.092,0.014-0.183,0.032-0.275,0.046c-1.167,0.182-2.329,0.393-3.487,0.624c-0.254,0.05-0.508,0.098-0.761,0.151 c-0.972,0.203-1.941,0.418-2.906,0.656C117.077,159.969,117.082,159.923,117.091,159.879z M104.467,180.824 c0.146-0.078,0.291-0.16,0.438-0.237c1.841-0.969,3.732-1.858,5.665-2.663c0.22-0.091,0.442-0.177,0.663-0.266 c0.677-0.274,1.361-0.536,2.049-0.789c0.46-0.169,0.921-0.331,1.383-0.49c0.551-0.189,1.104-0.373,1.66-0.549 c0.492-0.155,0.985-0.305,1.48-0.45c0.551-0.161,1.104-0.314,1.661-0.461c0.496-0.132,0.993-0.26,1.492-0.38 c0.573-0.138,1.151-0.266,1.729-0.391c0.486-0.104,0.972-0.208,1.459-0.302c0.609-0.117,1.223-0.22,1.838-0.321 c0.465-0.077,0.93-0.156,1.397-0.223c0.656-0.094,1.317-0.171,1.979-0.246c0.435-0.05,0.868-0.106,1.304-0.148 c0.739-0.07,1.484-0.119,2.23-0.166c0.365-0.023,0.728-0.057,1.094-0.074c1.113-0.053,2.231-0.083,3.357-0.083 c1.125,0,2.243,0.03,3.356,0.083c0.367,0.017,0.732,0.051,1.099,0.074c0.744,0.047,1.487,0.095,2.224,0.166 c0.438,0.042,0.873,0.099,1.309,0.149c0.66,0.075,1.319,0.152,1.973,0.246c0.469,0.067,0.935,0.147,1.403,0.224 c0.613,0.101,1.225,0.204,1.832,0.32c0.49,0.094,0.977,0.198,1.465,0.303c0.577,0.124,1.152,0.251,1.723,0.389 c0.501,0.121,1,0.25,1.498,0.382c0.554,0.147,1.105,0.299,1.654,0.459c0.497,0.145,0.992,0.296,1.487,0.452 c0.554,0.175,1.105,0.358,1.653,0.547c0.465,0.16,0.928,0.322,1.39,0.492c0.688,0.254,1.373,0.515,2.051,0.79 c0.219,0.088,0.439,0.173,0.656,0.264c1.935,0.806,3.826,1.695,5.669,2.665c0.145,0.076,0.287,0.156,0.431,0.233 c0.753,0.403,1.497,0.82,2.233,1.25c0.227,0.133,0.455,0.267,0.68,0.402c0.655,0.392,1.301,0.797,1.941,1.21 c0.242,0.156,0.487,0.308,0.727,0.468c0.696,0.461,1.381,0.938,2.06,1.423c0.543,0.389,1.076,0.789,1.606,1.193 c0.295,0.224,0.592,0.445,0.883,0.673c0.562,0.442,1.116,0.894,1.664,1.353c0.116,0.097,0.232,0.194,0.348,0.292 c13.464,11.425,22.369,27.743,24.402,45.576c0.039,0.346,0.084,0.69,0.117,1.038c0.048,0.489,0.084,0.98,0.121,1.471 c0.047,0.621,0.088,1.245,0.118,1.87c0.011,0.232,0.022,0.464,0.031,0.697h-4.018h-36.838c-22.94,0-47.247-17.635-59.693-28.147 c-0.363-0.307-0.739-0.592-1.121-0.866c-0.108-0.077-0.216-0.151-0.325-0.226c-0.306-0.21-0.617-0.409-0.933-0.597 c-0.093-0.056-0.184-0.114-0.278-0.168c-0.399-0.228-0.804-0.441-1.216-0.636c-0.093-0.044-0.188-0.083-0.281-0.125 c-0.334-0.151-0.672-0.292-1.013-0.421c-0.124-0.047-0.247-0.094-0.372-0.138c-0.406-0.144-0.815-0.276-1.23-0.389 c-0.027-0.007-0.053-0.017-0.08-0.024c-0.438-0.117-0.882-0.212-1.328-0.295c-0.128-0.024-0.257-0.044-0.385-0.065 c-0.351-0.057-0.703-0.104-1.057-0.14c-0.113-0.011-0.226-0.026-0.339-0.035c-0.451-0.037-0.903-0.057-1.356-0.06 c-0.025,0-0.051-0.003-0.076-0.003c-0.097,0-0.193,0.01-0.29,0.011c-0.289,0.005-0.579,0.014-0.869,0.033 c-0.15,0.01-0.3,0.024-0.451,0.038c-0.27,0.025-0.539,0.055-0.809,0.093c-0.151,0.021-0.302,0.042-0.453,0.067 c-0.285,0.047-0.569,0.103-0.852,0.164c-0.129,0.028-0.258,0.052-0.387,0.082c-0.41,0.098-0.819,0.207-1.226,0.335 c-5.812,1.827-10.218,6.433-11.787,12.322l-5.113,19.191h-1.422h-4.018c0.009-0.232,0.019-0.464,0.031-0.696 c0.03-0.627,0.072-1.251,0.119-1.873c0.038-0.49,0.073-0.98,0.121-1.468c0.034-0.35,0.079-0.697,0.118-1.045 c2.034-17.832,10.939-34.147,24.402-45.571c0.115-0.097,0.231-0.194,0.347-0.291c0.549-0.459,1.104-0.912,1.667-1.355 c0.287-0.225,0.58-0.443,0.87-0.663c0.539-0.41,1.08-0.816,1.632-1.211c0.673-0.481,1.353-0.954,2.043-1.411 c0.243-0.161,0.491-0.315,0.736-0.473c0.638-0.411,1.28-0.814,1.932-1.204c0.228-0.137,0.457-0.272,0.687-0.406 C102.976,181.641,103.717,181.226,104.467,180.824z M21.299,344.065c-3.926-1.243-6.501-4.993-6.263-9.119 c1.073-18.578,5.603-56.234,23.896-99.704c18.15-43.129,42.323-63.722,62.806-73.436c-0.002,0.031-0.001,0.062-0.003,0.093 c-0.036,0.652-0.057,1.309-0.057,1.97c0,0.512,0.011,1.024,0.034,1.538c-0.28,0.13-0.553,0.272-0.832,0.404 c-0.232,0.111-0.463,0.225-0.694,0.337c-0.98,0.479-1.95,0.976-2.907,1.491c-0.176,0.095-0.354,0.186-0.529,0.282 c-1.116,0.611-2.218,1.242-3.3,1.9c-0.158,0.096-0.312,0.199-0.47,0.296c-0.856,0.528-1.701,1.07-2.536,1.627 c-0.394,0.262-0.785,0.53-1.175,0.799c-0.564,0.39-1.121,0.788-1.674,1.192c-0.478,0.347-0.959,0.692-1.43,1.049 c-0.053,0.04-0.104,0.083-0.156,0.123c-17.903,13.638-30.234,34.214-32.965,57.685c-0.024,0.203-0.055,0.404-0.077,0.608 c-0.064,0.587-0.113,1.177-0.165,1.767c-0.069,0.767-0.128,1.535-0.176,2.306c-0.027,0.448-0.056,0.895-0.076,1.344 c-0.057,1.238-0.096,2.48-0.098,3.727c-0.197,0.12-0.387,0.25-0.579,0.377c-0.08,0.053-0.161,0.102-0.24,0.156 c-0.42,0.287-0.826,0.592-1.219,0.912c-0.084,0.068-0.165,0.14-0.248,0.21c-0.342,0.289-0.674,0.59-0.993,0.903 c-0.061,0.06-0.125,0.117-0.185,0.178c-0.357,0.36-0.697,0.736-1.022,1.124c-0.073,0.088-0.144,0.177-0.216,0.267 c-0.285,0.354-0.559,0.717-0.818,1.093c-0.041,0.06-0.086,0.118-0.127,0.178c-0.284,0.422-0.546,0.859-0.794,1.306 c-0.058,0.105-0.113,0.211-0.17,0.317c-0.22,0.416-0.427,0.839-0.614,1.273c-0.022,0.051-0.048,0.101-0.069,0.153 c-0.2,0.475-0.375,0.962-0.534,1.457c-0.038,0.119-0.074,0.239-0.11,0.359c-0.142,0.476-0.27,0.957-0.373,1.449 c-0.007,0.034-0.017,0.067-0.024,0.1c-0.106,0.518-0.181,1.045-0.241,1.578c-0.015,0.13-0.027,0.26-0.039,0.391 c-0.049,0.541-0.083,1.085-0.083,1.638v11.651c0,9.938,8.086,18.024,18.024,18.024h5.535c0.005,0.016,0.011,0.031,0.016,0.047 c0.146,0.469,0.314,0.929,0.469,1.394c6.217,18.841,19.727,34.241,37.636,42.876c0.095,0.046,0.189,0.093,0.285,0.139 c0.403,0.192,0.796,0.401,1.203,0.586v4.226c0,1.352-0.962,2.527-2.291,2.794l-5.583,1.124c-0.215,0.044-0.428,0.096-0.639,0.158 L54.91,353.587c-0.014,0.004-0.029,0.009-0.043,0.014c-0.58,0.171-1.161,0.353-1.74,0.545L21.299,344.065z M64.134,269.281 c0.027,0.58,0.078,1.154,0.119,1.73c0.034,0.468,0.054,0.936,0.096,1.404h-2.572c-1.656,0-3.004-1.348-3.004-3.004V257.76 c0-1.656,1.348-3.004,3.004-3.004h1.974h0.294v11.018C64.045,266.942,64.077,268.111,64.134,269.281z M245.109,483.918h-0.003 h-20.682V413.08c0-3.766-1.226-7.493-3.451-10.493c-9.538-12.863-24.777-20.542-40.764-20.542 c-15.112,0-29.327,6.67-39.001,18.298c-1.327,1.596-2.989,1.835-3.862,1.835s-2.535-0.238-3.863-1.835 c-9.673-11.629-23.889-18.298-39-18.298c-15.987,0-31.226,7.679-40.764,20.542c-2.226,3.001-3.451,6.728-3.451,10.494v13.458 c0,4.148,3.363,7.51,7.51,7.51c4.147,0,7.51-3.363,7.51-7.51v-13.458c0-0.566,0.176-1.115,0.496-1.547 c6.818-9.195,17.279-14.469,28.699-14.469c10.636,0,20.642,4.696,27.453,12.884c3.833,4.607,9.449,7.25,15.411,7.249 c5.961,0,11.577-2.642,15.409-7.249c6.811-8.188,16.817-12.884,27.454-12.884c11.42,0,21.881,5.273,28.699,14.469 c0.319,0.431,0.495,0.98,0.495,1.546v70.838H65.288v-22.435c0-4.148-3.363-7.51-7.51-7.51c-4.147,0-7.51,3.363-7.51,7.51v22.435 H29.585v-76.395c0-17.461,11.258-33.164,27.617-38.894c0.116-0.041,0.231-0.086,0.347-0.126c0.206-0.07,0.416-0.131,0.624-0.198 c0.327-0.105,0.654-0.215,0.981-0.311h-0.001l43.18-12.715l5.26-1.057c0.512-0.103,1.015-0.228,1.509-0.374 c0.168-0.049,0.329-0.114,0.494-0.168c0.321-0.105,0.644-0.207,0.957-0.329c0.194-0.076,0.38-0.167,0.57-0.249 c0.275-0.119,0.552-0.233,0.819-0.364c0.198-0.098,0.387-0.21,0.581-0.314c0.248-0.134,0.499-0.264,0.74-0.409 c0.196-0.118,0.382-0.249,0.572-0.374c0.227-0.149,0.456-0.294,0.676-0.453c0.189-0.137,0.367-0.285,0.55-0.428 c0.208-0.164,0.419-0.324,0.62-0.496c0.179-0.153,0.347-0.317,0.519-0.477c0.191-0.178,0.384-0.353,0.567-0.538 c0.167-0.169,0.323-0.347,0.483-0.522c0.174-0.191,0.349-0.379,0.515-0.577c0.153-0.184,0.297-0.375,0.443-0.564 c0.156-0.203,0.314-0.404,0.461-0.614c0.138-0.196,0.267-0.399,0.398-0.602c0.139-0.214,0.278-0.428,0.407-0.648 c0.122-0.208,0.235-0.421,0.349-0.635c0.121-0.225,0.241-0.45,0.352-0.681c0.105-0.218,0.201-0.441,0.297-0.664 c0.102-0.235,0.202-0.47,0.294-0.71c0.087-0.228,0.165-0.459,0.242-0.69c0.082-0.244,0.162-0.489,0.233-0.738 c0.068-0.235,0.127-0.472,0.185-0.711c0.062-0.253,0.12-0.506,0.171-0.763c0.048-0.242,0.087-0.485,0.125-0.729 c0.04-0.26,0.076-0.521,0.105-0.785c0.027-0.247,0.047-0.494,0.063-0.744c0.009-0.143,0.03-0.283,0.036-0.427 c0.129,0.028,0.261,0.046,0.391,0.073c0.544,0.114,1.094,0.207,1.642,0.309c0.647,0.12,1.292,0.246,1.943,0.348 c0.641,0.101,1.289,0.178,1.936,0.262c0.563,0.073,1.124,0.155,1.69,0.215c0.732,0.078,1.471,0.13,2.209,0.186 c0.491,0.037,0.981,0.085,1.473,0.112c0.77,0.043,1.546,0.059,2.321,0.078c0.471,0.011,0.941,0.033,1.412,0.036 c0.135,0.001,0.268,0.01,0.404,0.01c0.666,0,1.325-0.033,1.987-0.05c0.448-0.012,0.896-0.014,1.344-0.034 c0.828-0.037,1.649-0.102,2.47-0.166c0.416-0.033,0.832-0.055,1.247-0.095c0.842-0.081,1.675-0.188,2.508-0.297 c0.394-0.052,0.789-0.093,1.181-0.151c0.881-0.13,1.752-0.287,2.622-0.448c0.284-0.053,0.571-0.09,0.854-0.146 c0.004,0.06,0.015,0.119,0.02,0.179c0.018,0.225,0.048,0.447,0.075,0.671c0.033,0.282,0.066,0.563,0.112,0.841 c0.037,0.224,0.085,0.444,0.131,0.665c0.056,0.271,0.112,0.542,0.181,0.808c0.056,0.22,0.121,0.437,0.186,0.654 c0.077,0.261,0.157,0.52,0.246,0.777c0.075,0.215,0.156,0.426,0.239,0.637c0.098,0.251,0.199,0.5,0.308,0.746 c0.092,0.207,0.189,0.411,0.289,0.614c0.118,0.24,0.239,0.477,0.367,0.711c0.109,0.199,0.221,0.395,0.337,0.589 c0.137,0.229,0.278,0.454,0.424,0.676c0.124,0.189,0.251,0.375,0.382,0.559c0.155,0.216,0.315,0.428,0.479,0.637 c0.139,0.178,0.279,0.354,0.425,0.526c0.172,0.204,0.351,0.401,0.532,0.597c0.153,0.165,0.305,0.33,0.464,0.489 c0.189,0.19,0.385,0.372,0.583,0.553c0.165,0.152,0.329,0.304,0.499,0.449c0.206,0.176,0.42,0.342,0.634,0.508 c0.175,0.136,0.349,0.275,0.529,0.404c0.224,0.161,0.456,0.31,0.688,0.461c0.184,0.119,0.364,0.243,0.552,0.355 c0.243,0.145,0.494,0.277,0.744,0.411c0.189,0.101,0.374,0.208,0.567,0.303c0.267,0.131,0.543,0.246,0.818,0.363 c0.187,0.08,0.37,0.168,0.56,0.242c0.311,0.121,0.631,0.223,0.95,0.326c0.164,0.053,0.322,0.116,0.488,0.164 c0.489,0.143,0.987,0.268,1.495,0.37l6.495,1.307l43.182,12.714c0.542,0.159,1.078,0.33,1.61,0.511 c0.061,0.021,0.121,0.045,0.182,0.066c16.445,5.682,27.776,21.433,27.776,38.951V483.918z M420.862,358.413l10.241,18.083 l-29.753,46.083L420.862,358.413z M382.698,381.209h-8.29l-2.932-5.08l7.078-6.462l7.077,6.461L382.698,381.209z M384.615,425.985 l-3.318,10.911l-2.744,9.023l-6.059-19.925l4.119-29.764h3.843L384.615,425.985z M358.524,352.547 c4.577,1.203,9.247,1.975,13.943,2.338l-15.578,14.223c-0.492,0.449-0.888,0.964-1.235,1.505l-6.22-20.454L358.524,352.547z M358.264,336.949c1.616-2.643,2.595-5.7,2.744-8.932c0.719,0.172,1.441,0.332,2.166,0.483c0.218,0.045,0.438,0.084,0.656,0.128 c0.916,0.182,1.835,0.347,2.758,0.494c0.225,0.036,0.449,0.077,0.675,0.111c0.993,0.149,1.991,0.271,2.99,0.381 c0.329,0.036,0.656,0.074,0.986,0.106c0.968,0.093,1.939,0.166,2.91,0.222c0.35,0.02,0.701,0.038,1.053,0.054 c0.988,0.044,1.977,0.07,2.966,0.075c0.129,0.001,0.256,0.01,0.386,0.01c0.192,0,0.381-0.013,0.573-0.015 c1.028-0.007,2.056-0.029,3.083-0.078c0.244-0.012,0.487-0.03,0.731-0.044c0.989-0.057,1.977-0.131,2.963-0.226 c0.157-0.015,0.315-0.026,0.472-0.042c1.112-0.114,2.22-0.26,3.325-0.424c0.172-0.026,0.345-0.049,0.517-0.076 c1.11-0.172,2.215-0.372,3.314-0.593c0.139-0.028,0.278-0.056,0.416-0.085c0.279-0.058,0.559-0.111,0.837-0.172 c0.249,3.238,1.331,6.281,3.048,8.889l-3.068,0.806c-10.607,2.787-21.818,2.787-32.424,0L358.264,336.949z M384.64,354.885 c4.696-0.362,9.365-1.135,13.942-2.338l9.09-2.388l-6.219,20.453c-0.346-0.54-0.743-1.055-1.235-1.504L384.64,354.885z M453.768,260.451c0.055-0.721,0.12-1.44,0.155-2.167c0.06-1.223,0.093-2.446,0.093-3.667v-11.626h2.356 c0.032,0,0.068,0.003,0.099,0.003c0.216,0.002,0.431,0.025,0.642,0.07c0.015,0.003,0.031,0.007,0.045,0.011 c0.145,0.033,0.273,0.087,0.406,0.134c0.081,0.03,0.165,0.045,0.245,0.081c0.001,0,0.001,0.001,0.002,0.001 c1.203,0.543,1.98,1.74,1.98,3.048v12.034c0,1.847-1.503,3.349-3.349,3.349h-2.763 C453.717,261.299,453.735,260.875,453.768,260.451z M300.666,261.722L300.666,261.722c-1.847,0.001-3.349-1.502-3.349-3.348 V246.34c0-1.307,0.776-2.503,1.982-3.049c0.196-0.088,0.397-0.15,0.599-0.199c0.035-0.009,0.063-0.019,0.101-0.028 c0.212-0.045,0.426-0.068,0.642-0.07c0.031,0,0.063-0.002,0.094-0.003h2.356v11.626c0,1.221,0.033,2.444,0.093,3.667 c0.035,0.725,0.099,1.441,0.154,2.16c0.033,0.426,0.051,0.852,0.091,1.278H300.666z M312.752,204.739 c-0.286,0.081-0.565,0.179-0.836,0.292c-0.119,0.05-0.231,0.112-0.347,0.168c-0.146,0.07-0.295,0.134-0.436,0.213 c-0.14,0.078-0.27,0.17-0.404,0.256c-0.108,0.07-0.221,0.134-0.326,0.209c-0.139,0.1-0.267,0.213-0.398,0.322 c-0.09,0.075-0.185,0.144-0.271,0.223c-0.13,0.118-0.248,0.248-0.369,0.375c-0.078,0.082-0.16,0.158-0.234,0.243 c-0.117,0.134-0.221,0.278-0.328,0.421c-0.067,0.089-0.138,0.173-0.201,0.265c-0.101,0.148-0.19,0.304-0.28,0.46 c-0.056,0.096-0.117,0.188-0.169,0.287c-0.084,0.159-0.154,0.326-0.227,0.492c-0.038,0.088-0.085,0.171-0.12,0.261 c-0.014,0.035-0.026,0.069-0.04,0.104c-0.004,0.011-0.01,0.022-0.015,0.033c-0.007,0.02-0.014,0.041-0.021,0.061 c-0.001,0.002-0.002,0.006-0.003,0.008c-0.005,0.014-0.01,0.028-0.015,0.042c-0.389,1.058-0.749,2.123-1.089,3.194 c-0.007,0.023-0.016,0.045-0.023,0.067c-0.005,0.015-0.009,0.03-0.013,0.044c-1.341,4.243-2.305,8.584-2.874,12.996v-6.599 c0-34.89,28.385-63.276,63.276-63.276h23.126c34.89,0,63.276,28.385,63.276,63.276v6.618c-0.052-0.402-0.116-0.803-0.174-1.204 c-0.005-0.033-0.008-0.066-0.013-0.099l-0.1-0.69c-0.002-0.013-0.005-0.028-0.007-0.041c-0.162-1.034-0.347-2.063-0.551-3.087 c-0.002-0.008-0.003-0.016-0.004-0.023l-0.167-0.801c-0.004-0.017-0.008-0.033-0.012-0.05c-0.199-0.939-0.413-1.873-0.647-2.803 c-0.006-0.024-0.01-0.047-0.016-0.071l-0.069-0.283c-0.008-0.031-0.015-0.062-0.023-0.093c-0.001-0.004-0.003-0.007-0.004-0.011 c-0.009-0.035-0.019-0.071-0.029-0.107c-0.044-0.161-0.116-0.307-0.17-0.463c-0.079-0.227-0.149-0.457-0.248-0.673 c-0.075-0.162-0.171-0.31-0.257-0.465c-0.113-0.206-0.218-0.417-0.349-0.61c-0.101-0.148-0.221-0.279-0.331-0.419 c-0.141-0.179-0.275-0.365-0.431-0.53c-0.13-0.137-0.278-0.254-0.417-0.38c-0.159-0.145-0.311-0.297-0.482-0.428 c-0.165-0.126-0.347-0.228-0.522-0.34c-0.165-0.105-0.322-0.221-0.494-0.313c-0.2-0.107-0.414-0.186-0.624-0.275 c-0.164-0.069-0.322-0.152-0.491-0.209c-0.226-0.077-0.462-0.123-0.696-0.178c-0.168-0.04-0.33-0.094-0.501-0.122 c-0.227-0.037-0.461-0.042-0.693-0.058c-0.177-0.013-0.349-0.044-0.528-0.044c-0.028,0-0.056,0-0.084,0h-0.002l-0.176,0.002 c-1.319,0.015-2.611,0.376-3.746,1.049c-8.06,4.779-18.739,7.202-31.738,7.202c-13.212,0-26.584-4.191-39.515-8.244 c-16.377-5.133-33.254-10.417-50.427-7.515c-0.169,0.029-0.338,0.052-0.508,0.082c-0.058,0.011-0.117,0.024-0.175,0.034 C316.232,203.849,314.494,204.246,312.752,204.739z M319.501,267.473c-0.211-0.973-0.398-1.949-0.561-2.928 c-0.011-0.066-0.025-0.132-0.036-0.198c-0.169-1.037-0.31-2.077-0.425-3.118c-0.004-0.037-0.01-0.073-0.014-0.11 c-0.11-1.012-0.19-2.025-0.249-3.037c-0.004-0.077-0.013-0.153-0.018-0.23c-0.059-1.079-0.089-2.158-0.089-3.235v-19.02 c0-0.04,0.001-0.08,0.001-0.117c0-0.002,0-0.004,0-0.006c0-0.595,0.015-1.189,0.033-1.782c0.009-0.278,0.019-0.56,0.032-0.85 c0.009-0.206,0.022-0.412,0.033-0.618c0.004-0.05,0.006-0.1,0.01-0.15l0.036-0.506c0.041-0.634,0.083-1.267,0.144-1.902 c0-0.001,0-0.003,0-0.004c0.027-0.283,0.061-0.564,0.094-0.844l0.039-0.331c0.065-0.562,0.133-1.124,0.214-1.686 c0.059-0.413,0.127-0.823,0.195-1.234c0.088-0.53,0.181-1.057,0.284-1.589c0.08-0.417,0.164-0.832,0.253-1.244 c0.111-0.514,0.231-1.026,0.354-1.534l0.029-0.12c0.09-0.37,0.179-0.74,0.279-1.115c0.136-0.513,0.287-1.022,0.434-1.525 l0.036-0.121c0.315-0.057,0.633-0.092,0.949-0.142c0.547-0.086,1.093-0.181,1.642-0.246c0.69-0.082,1.384-0.135,2.078-0.185 c0.179-0.013,0.357-0.037,0.537-0.048c10.276-0.616,21.02,2.127,32.192,5.526c2.177,0.662,4.368,1.347,6.577,2.039 c9.632,3.019,19.489,6.108,29.75,7.744c4.664,0.744,9.411,1.187,14.258,1.187c2.385,0,4.699-0.089,6.969-0.232 c1.663-0.105,3.304-0.239,4.904-0.421c0.119-0.013,0.243-0.021,0.362-0.035c0.815-0.096,1.606-0.219,2.404-0.335 c0.473-0.069,0.958-0.123,1.425-0.199c0.482-0.078,0.946-0.178,1.422-0.263c0.763-0.137,1.533-0.266,2.28-0.422 c0.484-0.101,0.949-0.225,1.426-0.334c0.717-0.164,1.442-0.32,2.144-0.502c0.687-0.179,1.351-0.385,2.024-0.581 c0.471-0.137,0.954-0.261,1.417-0.407c0.559-0.176,1.096-0.377,1.645-0.566c0.554-0.19,1.119-0.368,1.662-0.572l0.013,0.111 c0.089,0.888,0.154,1.78,0.204,2.673c0,0.001,0,0.002,0,0.002l0.031,0.643c0,0.006,0,0.012,0.001,0.019 c0.04,0.898,0.069,1.798,0.069,2.699c0,0.002,0,0.003,0,0.005c0,0.037,0,0.076,0.001,0.117v19.02c0,1.077-0.03,2.156-0.089,3.235 c-0.004,0.077-0.013,0.153-0.018,0.23c-0.059,1.013-0.139,2.025-0.249,3.037c-0.004,0.037-0.01,0.074-0.014,0.111 c-0.115,1.04-0.256,2.079-0.425,3.115c-0.011,0.068-0.025,0.135-0.036,0.203c-0.163,0.978-0.349,1.953-0.56,2.925 c-4.624,21.254-20.451,38.374-40.971,44.821c-0.177,0.055-0.355,0.105-0.533,0.159c-0.725,0.221-1.455,0.43-2.192,0.624 c-0.262,0.069-0.525,0.131-0.787,0.196c-0.66,0.164-1.323,0.319-1.992,0.461c-0.305,0.065-0.611,0.126-0.917,0.186 c-0.636,0.125-1.275,0.239-1.917,0.343c-0.327,0.053-0.654,0.106-0.982,0.154c-0.634,0.093-1.273,0.171-1.914,0.244 c-0.332,0.038-0.663,0.079-0.996,0.111c-0.674,0.065-1.352,0.112-2.032,0.155c-0.297,0.018-0.592,0.045-0.889,0.059 c-0.972,0.047-1.948,0.074-2.931,0.074c-1.003,0-1.999-0.027-2.99-0.076c-0.342-0.017-0.681-0.05-1.022-0.072 c-0.646-0.043-1.292-0.085-1.932-0.147c-0.42-0.041-0.837-0.098-1.256-0.148c-0.552-0.066-1.105-0.13-1.653-0.211 c-0.469-0.069-0.935-0.153-1.402-0.233c-0.485-0.083-0.971-0.165-1.453-0.26c-0.512-0.101-1.021-0.216-1.531-0.33 c-0.426-0.096-0.852-0.19-1.274-0.295c-0.548-0.136-1.093-0.284-1.638-0.436c-0.375-0.104-0.75-0.208-1.122-0.319 c-0.568-0.17-1.133-0.351-1.696-0.538c-0.35-0.116-0.7-0.233-1.048-0.355c-0.554-0.195-1.104-0.4-1.654-0.612 C338.121,303.794,323.851,287.469,319.501,267.473z M336.244,358.413l19.512,64.165l-29.753-46.083L336.244,358.413z M468.05,483.868v-71.979c0-4.148-3.362-7.51-7.51-7.51s-7.51,3.363-7.51,7.51v71.979H302.987v-22.386 c0-4.148-3.363-7.51-7.51-7.51c-4.147,0-7.51,3.363-7.51,7.51v22.386h-27.839v-76.345v-2.995 c0-20.133,13.488-38.165,32.802-43.851l29.728-8.754l-11.176,19.733c-1.949,3.44-1.728,7.664,0.539,10.874l60.223,93.277 c0.011,0.017,0.025,0.032,0.036,0.049c0.04,0.06,0.08,0.12,0.121,0.179c0.031,0.044,0.065,0.086,0.097,0.13 c0.095,0.13,0.192,0.26,0.295,0.384c0.036,0.043,0.075,0.083,0.112,0.126c0.093,0.107,0.185,0.215,0.284,0.316 c0.004,0.004,0.008,0.007,0.012,0.011c0.06,0.061,0.125,0.117,0.187,0.176c0.055,0.053,0.11,0.106,0.167,0.156 c0.147,0.131,0.3,0.255,0.458,0.375c0.036,0.028,0.07,0.057,0.107,0.083c0.029,0.021,0.055,0.044,0.084,0.065 c0.019,0.014,0.04,0.025,0.059,0.038c0.206,0.143,0.422,0.275,0.645,0.399c0.047,0.026,0.092,0.054,0.14,0.079 c0.043,0.023,0.089,0.041,0.133,0.063c0.071,0.036,0.139,0.077,0.212,0.111c0.082,0.038,0.166,0.064,0.248,0.099 c0.116,0.049,0.233,0.097,0.351,0.14c0.057,0.021,0.112,0.048,0.169,0.067c0.01,0.003,0.021,0.006,0.031,0.009 c0.105,0.035,0.211,0.057,0.316,0.088c0.104,0.029,0.207,0.061,0.312,0.086c0.13,0.031,0.26,0.055,0.391,0.079 c0.081,0.015,0.162,0.028,0.243,0.04c0.075,0.011,0.148,0.027,0.223,0.036c0.29,0.034,0.581,0.054,0.87,0.054 c0.001,0,0.003,0,0.004,0c0.001,0,0.003,0,0.004,0c0.29,0,0.58-0.02,0.87-0.054c0.075-0.009,0.149-0.025,0.224-0.036 c0.08-0.012,0.16-0.025,0.239-0.039c0.132-0.024,0.263-0.048,0.394-0.079c0.105-0.025,0.208-0.057,0.312-0.086 c0.109-0.031,0.219-0.054,0.327-0.09c0.004-0.001,0.009-0.002,0.013-0.004c0.059-0.02,0.117-0.048,0.176-0.07 c0.119-0.043,0.235-0.091,0.351-0.14c0.082-0.035,0.167-0.061,0.248-0.099c0.075-0.035,0.144-0.076,0.218-0.113 c0.04-0.02,0.083-0.037,0.123-0.058c0.049-0.026,0.096-0.055,0.144-0.081c0.223-0.124,0.439-0.255,0.645-0.399 c0.019-0.014,0.04-0.025,0.059-0.038c0.031-0.022,0.058-0.046,0.089-0.069c0.031-0.023,0.06-0.048,0.091-0.071 c0.162-0.122,0.319-0.25,0.469-0.383c0.057-0.051,0.112-0.104,0.168-0.157c0.169-0.16,0.33-0.327,0.482-0.501 c0.038-0.043,0.077-0.084,0.114-0.128c0.106-0.127,0.205-0.26,0.302-0.393c0.028-0.038,0.057-0.074,0.084-0.113 c0.043-0.061,0.085-0.123,0.126-0.185c0.011-0.017,0.025-0.032,0.036-0.049l60.223-93.277c2.267-3.209,2.489-7.434,0.54-10.871 l-11.177-19.735l29.729,8.754c19.313,5.686,32.801,23.718,32.801,43.851v79.336H468.05z"/> </g> </g></symbol><symbol id="cheers" viewBox="0 0 511.999 511.999"><title>cheers</title><g> <g> <rect x="248.43" y="20.771" width="15.15" height="47.164"/> </g> </g><g> <g> <rect x="294.84" y="51.521" transform="matrix(0.4198 -0.9076 0.9076 0.4198 131.1098 323.2903)" width="47.162" height="15.149"/> </g> </g><g> <g> <rect x="186.011" y="35.518" transform="matrix(0.9076 -0.4198 0.4198 0.9076 -6.9255 86.7289)" width="15.15" height="47.162"/> </g> </g><g> <g> <rect x="149.365" y="173.793" transform="matrix(0.4229 -0.9062 0.9062 0.4229 -72.4355 246.0279)" width="15.15" height="12.181"/> </g> </g><g> <g> <rect x="167.19" y="197.88" transform="matrix(0.4229 -0.9062 0.9062 0.4229 -83.9752 276.0825)" width="15.15" height="12.181"/> </g> </g><g> <g> <rect x="172.872" y="254.829" transform="matrix(0.4229 -0.9062 0.9062 0.4229 -132.3029 314.0963)" width="15.15" height="12.181"/> </g> </g><g> <g> <rect x="110.234" y="263.492" transform="matrix(0.4229 -0.9062 0.9062 0.4229 -176.3015 262.3353)" width="15.15" height="12.181"/> </g> </g><g> <g> <rect x="119.218" y="315.027" transform="matrix(0.4229 -0.9062 0.9062 0.4229 -217.8169 300.2174)" width="15.15" height="12.181"/> </g> </g><g> <g> <path d="M505.592,432.085l-50.982-0.205l-37.484-80.319l10.657-15.02c16.061-22.637,18.748-52.325,7.008-77.477L359.57,97.882 L256,146.216L152.432,97.882L77.208,259.064c-11.738,25.153-9.052,54.84,7.009,77.477l10.657,15.019L57.39,431.879l-50.98,0.205 L0,445.819l97.297,45.408l6.408-13.735l-32.587-39.205l37.484-80.319l18.356-1.479c27.667-2.229,52.146-19.238,63.885-44.39 L256,172.487l65.156,139.611c11.738,25.152,36.217,42.162,63.885,44.39l18.357,1.479l37.484,80.319l-32.587,39.206l6.408,13.735 l97.296-45.408L505.592,432.085z M71.53,462.483l-32.949-15.377l20.101-0.082L71.53,462.483z M177.117,305.691 c-9.439,20.226-29.124,33.905-51.373,35.697l-18.455,1.487l-10.714-15.1c-12.917-18.203-15.076-42.077-5.637-62.304l55.421-118.75 c0.659,0.733,1.263,1.511,1.923,2.363c2.614,3.374,5.869,7.574,13.773,11.263c7.905,3.689,13.214,3.484,17.479,3.323 c3.432-0.131,5.911-0.226,10.493,1.913c4.583,2.139,6.103,4.101,8.206,6.814c2.615,3.374,5.869,7.574,13.775,11.264 c7.906,3.688,13.215,3.487,17.481,3.324c1.077-0.041,2.06-0.07,3.045-0.036L177.117,305.691z M239.219,172.621 c-4.195-1.001-7.484-0.883-10.31-0.775c-3.431,0.129-5.911,0.225-10.495-1.914c-4.583-2.139-6.102-4.101-8.206-6.814 c-2.615-3.374-5.869-7.574-13.775-11.263c-7.906-3.69-13.216-3.487-17.479-3.323c-3.432,0.13-5.912,0.226-10.493-1.913 c-4.582-2.139-6.102-4.1-8.206-6.814c-1.732-2.235-3.754-4.833-7.214-7.404l6.712-14.383l86.179,40.219L239.219,172.621z M276.815,174.776c-0.662,0.853-1.266,1.632-1.924,2.365l-8.822-18.904l86.18-40.219l8.818,18.896 c-0.984,0.034-1.967,0.005-3.043-0.036c-4.267-0.165-9.576-0.367-17.48,3.323c-7.905,3.69-11.159,7.889-13.774,11.263 c-2.103,2.715-3.623,4.675-8.204,6.813c-4.582,2.139-7.063,2.043-10.495,1.913c-4.265-0.166-9.574-0.367-17.481,3.324 C282.682,167.204,279.429,171.401,276.815,174.776z M404.713,342.875l-18.455-1.487c-22.249-1.793-41.934-15.471-51.374-35.697 l-53.311-114.23c3.461-2.572,5.483-5.17,7.216-7.405c2.104-2.715,3.624-4.675,8.207-6.814c4.583-2.14,7.061-2.045,10.495-1.913 c4.268,0.164,9.574,0.366,17.481-3.324c7.904-3.69,11.158-7.889,13.773-11.263c2.103-2.715,3.622-4.675,8.205-6.814 c4.582-2.139,7.061-2.042,10.494-1.913c2.825,0.108,6.115,0.226,10.309-0.774l53.311,114.231 c9.439,20.226,7.279,44.1-5.637,62.303L404.713,342.875z M440.47,462.483l12.849-15.458l20.1,0.082L440.47,462.483z"/> </g> </g><g> <g> <rect x="365.631" y="213.967" transform="matrix(0.9062 -0.4229 0.4229 0.9062 -58.8134 177.9823)" width="12.181" height="15.15"/> </g> </g><g> <g> <rect x="331.16" y="180.871" transform="matrix(0.9062 -0.4229 0.4229 0.9062 -48.0515 160.3)" width="12.181" height="15.15"/> </g> </g><g> <g> <rect x="319.951" y="224.345" transform="matrix(0.9062 -0.4229 0.4229 0.9062 -67.488 159.6385)" width="12.181" height="15.15"/> </g> </g><g> <g> <rect x="354.603" y="276.631" transform="matrix(0.9062 -0.4229 0.4229 0.9062 -86.3481 179.1981)" width="12.181" height="15.15"/> </g> </g><g> <g> <rect x="390.153" y="284.765" transform="matrix(0.9062 -0.4229 0.4229 0.9062 -86.4527 194.9959)" width="12.181" height="15.15"/> </g> </g></symbol></svg>